<svg width="177" height="57" viewBox="0 0 177 57" fill="none" xmlns="http://www.w3.org/2000/svg">
<path fill-rule="evenodd" clip-rule="evenodd" d="M89.1962 23.1563C88.6492 21.3263 88.536 19.5369 88.8565 17.7879C88.683 17.7608 88.4971 17.7474 88.2988 17.7476C88.1005 17.7205 87.927 17.707 87.7783 17.7072C87.6296 17.6801 87.4561 17.6529 87.2578 17.6259C87.0843 17.5987 86.9231 17.5853 86.7744 17.5854C85.9084 19.0345 85.439 20.6334 85.3663 22.382C85.3667 22.7372 85.3548 23.229 85.3306 23.8575C85.3064 24.4859 85.2944 24.9231 85.2947 25.169C85.2464 26.5351 85.0616 27.6418 84.7402 28.4892C84.5919 28.8719 84.4434 29.1043 84.2948 29.1864C84.1461 29.2959 83.8983 29.3235 83.5513 29.2692C83.4274 29.2421 82.535 29.0519 80.8741 28.6986C80.898 27.7696 80.8972 26.9363 80.8717 26.1987C80.871 25.4337 80.8826 24.6003 80.9065 23.6987C80.9304 22.797 81.004 21.9909 81.1272 21.2804C81.2012 20.8432 81.473 19.9686 81.9426 18.6566C81.992 18.4926 82.0538 18.3149 82.128 18.1236C82.2021 17.9323 82.2639 17.7683 82.3134 17.6316C82.3876 17.4949 82.4618 17.3309 82.536 17.1395C82.6101 16.9482 82.6719 16.7842 82.7214 16.6475C83.3393 14.8709 83.3128 13.1223 82.642 11.4018C82.1451 10.091 81.8221 9.23072 81.673 8.82106C81.3747 7.89247 81.2126 6.84077 81.1866 5.66596C81.1607 4.46383 81.2093 3.38456 81.3323 2.42816L81.3319 2.05931C81.3565 1.89535 81.3812 1.78604 81.4059 1.73137C81.4302 1.21223 81.5043 0.884278 81.6281 0.747525C81.7518 0.610771 82.0367 0.487492 82.4827 0.377688C84.8367 -0.226128 87.216 -0.105946 89.6209 0.738235C91.3316 1.33732 92.4604 2.51085 93.0073 4.25881C94.3248 8.41019 95.0084 10.5405 95.0581 10.6497C95.6051 12.5616 95.1852 14.0648 93.7984 15.1593C92.9068 15.8707 92.4245 16.8548 92.3513 18.1117C92.2536 19.5599 92.3915 21.1717 92.7649 22.9472L93.8105 27.7819C93.8602 27.9185 93.8851 28.0414 93.8852 28.1507C93.96 28.6971 93.9232 29.0523 93.7747 29.2164C93.6509 29.3805 93.3412 29.4628 92.8455 29.4634C92.0772 29.4369 91.5443 29.4102 91.2468 29.3833C90.8255 29.3291 90.5404 29.2338 90.3915 29.0974C90.2675 28.9609 90.1681 28.6741 90.0933 28.2371C90.0186 27.882 89.7321 26.325 89.2338 23.566C89.2338 23.5387 89.2213 23.4841 89.1964 23.4022L89.1962 23.1563ZM87.6168 4.30606C87.5424 4.30614 86.9228 4.25222 85.7578 4.14429C85.6589 4.30833 85.6094 4.40402 85.6094 4.43134C85.4621 5.85224 85.4879 6.9041 85.6868 7.58692C85.7614 7.91469 86.3456 9.75823 87.4393 13.1175C88.1828 13.0347 88.5917 12.9933 88.666 12.9932C89.5582 12.8828 90.1279 12.6363 90.3754 12.2535C90.6229 11.8434 90.6097 11.0647 90.336 9.91753C90.1371 9.26203 89.8137 7.99195 89.3658 6.10726C89.117 5.06933 88.534 4.46892 87.6168 4.30606ZM64.2045 18.2321C64.1538 18.7926 64.1287 19.1694 64.1294 19.3626C63.9903 20.7658 63.9256 21.8808 63.9353 22.7076C64.0128 24.987 64.8143 26.7767 66.3398 28.0766C67.4961 29.0496 68.914 29.6351 70.5936 29.8332C71.1265 29.8852 71.6729 29.7555 72.2326 29.4442C73.5167 28.7397 74.4582 27.8144 75.0573 26.6683C75.681 25.5183 75.9308 24.1939 75.8067 22.6952C75.649 20.5668 75.7617 18.588 76.1448 16.7589C76.5004 15.0998 76.5288 13.6179 76.2301 12.3131C75.6615 9.91973 74.7893 7.40972 73.6135 4.78307C72.9075 3.24032 71.5532 2.28552 69.5506 1.91868C68.8598 1.80938 68.1782 1.86425 67.506 2.08331C66.3959 2.4007 65.3081 3.07348 64.2424 4.10165C63.575 4.73413 63.1466 5.56271 62.9572 6.58739C62.7266 7.86727 62.8539 9.29641 63.3393 10.8748C63.3853 11.0331 63.7241 12.2624 64.3555 14.5627C64.4058 14.9412 64.4247 15.3662 64.4123 15.8376C64.3962 16.282 64.3693 16.6453 64.3317 16.9275C64.3186 17.2058 64.2762 17.6407 64.2045 18.2321ZM68.3578 19.7979C68.3883 19.4616 68.41 19.1543 68.4232 18.8761C68.772 16.2241 68.5245 13.4198 67.6806 10.4634C67.4855 9.74939 67.3568 8.96939 67.2944 8.12344C67.2602 7.30056 67.5529 6.77004 68.1725 6.53188C68.5295 6.39136 68.81 6.42888 69.014 6.64445C69.4537 7.12569 69.693 7.4184 69.7319 7.52257C70.7174 9.84859 71.3221 11.4768 71.546 12.4071C71.8908 13.8701 71.9751 15.5409 71.799 17.4195C71.7518 18.007 71.6996 18.6505 71.6423 19.3501C71.585 20.0497 71.5208 20.7919 71.4498 21.5765C71.3997 22.3302 71.3457 22.9602 71.2878 23.4666C71.2472 23.915 71.1871 24.3113 71.1076 24.6555C70.9797 25.2008 70.6688 25.4996 70.1747 25.5518C69.6316 25.6119 69.2733 25.366 69.0998 24.8142C69.0328 24.6869 68.7796 23.9132 68.3404 22.493C68.3571 22.2418 68.3543 21.9385 68.3321 21.5831C68.3345 21.2238 68.3317 20.9205 68.3239 20.6732C68.337 20.3949 68.3483 20.1032 68.3578 19.7979ZM48.6174 17.3448C48.7389 17.5041 49.5413 18.4922 51.0247 20.3092L55.0452 18.9664C54.3567 17.9688 53.9779 17.4387 53.9089 17.3761C53.9017 17.3499 53.4554 16.8566 52.57 15.8963C51.7535 14.9985 51.1969 14.0567 50.9001 13.071C50.1822 10.7414 49.7442 9.28903 49.5861 8.71377C49.4567 8.2431 49.4417 7.90556 49.5409 7.70114C49.6401 7.49672 49.9067 7.33629 50.3409 7.21984C51.005 6.99803 51.5815 6.83405 52.0702 6.72791C52.4167 6.6693 52.6707 6.69863 52.8325 6.81591C53.0179 6.92527 53.1573 7.14991 53.2507 7.48984C53.5978 8.65858 53.859 9.65617 54.0344 10.4826C54.5144 12.6061 55.4871 14.3082 56.9526 15.5887C57.0288 15.6775 57.1394 15.7975 57.2846 15.9489C57.4298 16.1002 57.5178 16.185 57.5487 16.2032C59.0027 17.6304 59.5851 19.4199 59.2961 21.5719C59.1724 22.4411 59.0401 23.1848 58.8992 23.8028C58.5822 25.1933 58.599 26.7151 58.9496 28.3679C59.329 30.1254 59.5453 31.1951 59.5985 31.577C59.6682 31.9248 59.689 32.1891 59.661 32.3698C59.6495 32.5163 59.5833 32.6526 59.4626 32.7786C59.3583 32.8705 59.1592 32.9941 58.8653 33.1494C58.3104 33.3918 57.855 33.5724 57.4992 33.6912C56.7805 33.9028 56.3158 33.6725 56.1053 33.0006C55.8156 32.0411 55.544 31.1469 55.2903 30.3181C55.0532 29.4552 54.9002 28.5214 54.8312 27.5167C54.7623 26.5119 54.8371 25.5591 55.0556 24.6583C55.0815 24.564 55.2361 23.713 55.5194 22.1053C54.6511 22.3382 54.1814 22.4666 54.1102 22.4903L52.9717 22.8706L52.0466 23.1795C51.6671 23.3063 51.4447 23.5804 51.3792 24.0019C51.3375 24.4155 51.2052 25.1592 50.9824 26.2328C50.6682 27.8222 50.722 29.4315 51.1438 31.0606C51.4528 32.185 51.6558 33.1592 51.7528 33.9832C51.8153 34.3049 51.8361 34.5692 51.8153 34.776C51.7944 34.9828 51.7427 35.1714 51.66 35.3417C51.5701 35.4859 51.4375 35.6158 51.2621 35.7315C51.0796 35.821 50.846 35.9133 50.5613 36.0084C50.2293 36.1193 49.7049 36.2373 48.9883 36.3625C48.4758 36.4765 48.1359 36.276 47.9684 35.761C47.8944 35.5859 47.7439 35.1794 47.5168 34.5415C47.2897 33.9037 47.1366 33.4409 47.0576 33.1533C46.9713 32.8395 46.8718 32.4303 46.759 31.9255C46.639 31.3947 46.5689 30.9042 46.5488 30.4541C46.5287 30.0041 46.5561 29.5382 46.6309 29.0564C46.6611 28.7894 46.7887 28.0759 47.0137 26.9159C47.0468 26.8478 47.1198 26.595 47.2326 26.1576C47.9149 23.6459 47.3874 21.5382 45.6503 19.8346C45.2909 19.4693 44.8482 18.9891 44.3221 18.394C43.4769 17.3916 42.9268 16.1907 42.6717 14.7914C42.6092 14.4697 42.5359 14.1088 42.4518 13.7087C42.3915 13.3006 42.3157 12.8834 42.2244 12.4571C42.1332 12.0308 42.0599 11.6699 42.0045 11.3744C41.9011 10.8094 41.8907 10.4418 41.9733 10.2714C42.0797 10.0931 42.3784 9.90774 42.8693 9.71523L44.4348 9.19239C44.7503 9.11555 45.0055 9.1017 45.2002 9.15084C45.4187 9.19206 45.5923 9.30538 45.721 9.4908C45.8661 9.64215 45.9854 9.88778 46.0789 10.2277C46.2585 10.8814 46.4302 11.6948 46.5941 12.6678C46.931 14.5536 47.6055 16.1126 48.6174 17.3448ZM30.3 39.7983C32.232 42.0992 33.2987 43.3589 33.5001 43.5774C34.2041 44.4218 35.0042 44.5248 35.9002 43.8865C35.9859 43.8316 36.0654 43.7648 36.1386 43.6862C36.2457 43.6174 36.3465 43.5369 36.4411 43.4446L36.7303 43.259C36.9963 43.0567 37.1365 42.8877 37.1508 42.752C37.1866 42.6026 37.1021 42.3881 36.8971 42.1087C36.5426 41.5458 36.1202 40.9633 35.6301 40.361C34.0226 38.2945 32.9848 36.5736 32.5167 35.1984C31.6161 32.6783 30.0354 30.4996 27.7748 28.6625C25.6193 26.916 23.7879 24.9141 22.2804 22.6569C21.9758 22.1885 21.6941 21.9267 21.4355 21.8713C21.1644 21.7924 20.8209 21.9022 20.4049 22.2007C20.0837 22.4069 19.6526 22.731 19.1117 23.173C18.5922 23.6012 18.2575 23.8634 18.1075 23.9596C17.6827 24.2955 17.5539 24.7576 17.7211 25.3458C18.1534 26.8704 18.4619 28.0792 18.6467 28.9722C19.0343 30.6836 19.6226 32.3136 20.4116 33.8621C21.4626 35.9065 22.2884 38.285 22.8892 40.9976C23.2928 42.7936 23.7338 44.4706 24.2125 46.0286C24.4545 46.7585 24.921 47.9134 25.6119 49.4933C25.7651 49.8376 25.9094 50.0295 26.045 50.069C26.2144 50.1183 26.4553 50.0586 26.7676 49.8897C27.1442 49.6797 27.5128 49.4273 27.8734 49.1327C28.3107 48.8204 28.4672 48.3564 28.3428 47.7407C28.2913 47.426 28.2184 47.125 28.1241 46.8378C27.6046 45.1479 27.2238 43.9381 26.9817 43.2082C26.818 42.681 26.9013 42.2956 27.2315 42.052C27.4243 41.9283 28.4471 41.1771 30.3 39.7983ZM22.872 29.1533C25.2304 31.3386 26.5104 32.5405 26.7118 32.759C27.3714 33.4106 28.0653 34.5618 28.7936 36.2126C28.6258 36.3835 28.4151 36.5819 28.1616 36.8078C27.9295 37.02 27.7189 37.2184 27.5296 37.4031C27.3618 37.5741 27.1573 37.7843 26.9163 38.0338C26.6628 38.2598 26.4414 38.465 26.2522 38.6497L26.0359 38.0772C25.6902 35.359 24.8269 32.9096 23.4461 30.7292C23.4122 30.7193 23.1735 30.2402 22.73 29.2919C22.7818 29.227 22.8291 29.1808 22.872 29.1533ZM15.4749 47.9446C15.7237 49.6211 16.3956 51.0991 17.4906 52.3786C19.1064 50.929 20.0032 50.1301 20.1811 49.9818C20.537 49.6852 20.9425 49.4157 21.3977 49.1733C21.6798 49.041 21.9052 49.0072 22.0739 49.0721C22.2475 49.0986 22.424 49.2427 22.6034 49.5042C22.7577 49.6839 22.8922 49.88 23.0069 50.0926C23.3213 50.6869 23.296 51.2389 22.931 51.7487C22.8027 51.9241 22.6991 52.0448 22.62 52.1107C20.441 54.0981 18.7184 55.4825 17.4522 56.2639C17.3978 56.2751 17.2196 56.3551 16.9178 56.5039C16.3734 56.7521 15.9368 56.6365 15.6079 56.1571C14.7709 54.9366 14.1175 53.8028 13.6479 52.7557C13.1782 51.7085 12.8942 50.5923 12.7959 49.4069L12.7351 49.0465C12.7347 48.9099 12.7267 48.7624 12.7113 48.604C12.6809 48.4238 12.663 48.2845 12.6577 48.1862C12.4229 46.2583 11.5107 44.7923 9.92093 43.7882C9.34955 43.4081 8.64171 42.9877 7.79742 42.5268C6.52593 41.8055 5.45911 40.7937 4.59698 39.4914C3.95907 38.516 3.35346 37.565 2.78015 36.6385C2.59066 36.317 2.50049 36.0496 2.50965 35.8364C2.53858 35.6068 2.67408 35.374 2.91613 35.138C3.20254 34.8308 3.58081 34.5668 4.05093 34.3462C4.58037 34.0762 5.04181 34.2054 5.43526 34.7338L6.35453 36.0741C6.48905 36.2702 6.71086 36.6162 7.01993 37.1122L7.78225 38.2236C8.45488 39.2044 9.33003 39.982 10.4077 40.5566C10.6213 40.6869 10.9591 40.8849 11.421 41.1506L12.4712 41.6625C13.827 42.4163 14.6764 43.6093 15.0192 45.2417L15.4749 47.9446ZM0.835414 53.5419C0.21199 52.8006 -0.0625133 52.1125 0.0119036 51.4776C0.086321 50.8427 0.350722 50.293 0.805106 49.8287C1.27767 49.3457 1.80389 49.0874 2.38379 49.0536C2.98186 49.0012 3.59261 49.3457 4.21603 50.087C4.82261 50.8084 5.08802 51.5058 5.01228 52.1793C4.95471 52.8342 4.68965 53.4031 4.21709 53.8861C3.76271 54.3504 3.23714 54.5895 2.64039 54.6033C2.04365 54.617 1.44199 54.2632 0.835414 53.5419ZM107.22 24.4577C107.461 27.7543 107.597 29.5707 107.628 29.907C107.72 31.1089 108.321 31.7713 109.432 31.8942C109.579 31.9178 109.777 31.9358 110.026 31.9481C110.299 31.9643 110.46 31.9763 110.509 31.9842C110.832 32.0083 111.039 31.9586 111.13 31.8353C111.242 31.7428 111.309 31.5189 111.331 31.1635C111.379 30.4256 111.384 29.6258 111.347 28.7641C111.252 25.8775 111.401 23.7064 111.794 22.2508C112.582 19.5058 112.581 16.5654 111.793 13.4295C111.039 10.4097 110.72 7.41814 110.836 4.45485C110.862 3.87921 110.779 3.46554 110.586 3.21384C110.419 2.96608 110.077 2.8009 109.562 2.71831C109.268 2.67112 108.946 2.64703 108.595 2.64604C108.273 2.62195 107.912 2.60548 107.512 2.59662C107.141 2.56467 106.831 2.54254 106.582 2.53025C106.035 2.4978 105.659 2.78267 105.455 3.38486C104.894 4.97908 104.43 6.21615 104.063 7.09609C103.369 8.75175 102.885 10.5239 102.61 12.4126C102.265 14.842 101.54 17.3901 100.437 20.057C99.676 21.84 99.0359 23.5595 98.5168 25.2157C98.2662 25.9762 97.96 27.2523 97.5984 29.0441C97.5203 29.4458 97.5215 29.722 97.6017 29.873C97.7065 30.0278 97.9533 30.1502 98.3422 30.2402C98.7555 30.3341 99.1988 30.3914 99.6719 30.412C100.24 30.4754 100.65 30.21 100.904 29.6156C101.045 29.3069 101.161 28.9943 101.253 28.6777C101.836 26.9213 102.242 25.6473 102.471 24.8559C102.644 24.3038 102.953 24.0497 103.398 24.0934C103.693 24.1406 104.966 24.2621 107.22 24.4577ZM107.473 10.2934C108.11 13.8191 108.446 15.7365 108.48 16.0457C108.646 17.0662 108.53 18.511 108.133 20.38C107.93 20.4026 107.399 20.4417 106.54 20.4973C105.709 20.5297 105.056 20.5491 104.579 20.5555L104.775 19.9243C106.081 17.428 106.818 14.7853 106.986 11.996C106.993 11.9419 107.082 11.3626 107.253 10.258L107.363 10.2757L107.473 10.2934ZM128.77 29.45C128.744 30.8152 128.737 31.5587 128.747 31.6803C128.802 32.055 128.966 32.4612 129.238 32.8989C129.954 33.9647 130.826 34.1302 131.853 33.3955C132.46 32.9508 132.938 32.3049 133.288 31.4578C134.186 29.1164 134.196 26.9243 133.317 24.8815C132.608 23.2626 131.943 21.7065 131.323 20.2131C130.86 19.1084 130.566 18.3539 130.442 17.9497C130.087 16.6861 130.095 15.5621 130.465 14.5777C130.836 13.5933 131.552 12.7995 132.613 12.1963C133.916 11.4324 135.206 11.0873 136.481 11.161C137.96 11.2624 139.192 11.9177 140.177 13.1269C141.162 14.3361 141.601 15.7381 141.495 17.3327C141.466 18.0232 141.392 18.6508 141.275 19.2157C141.214 19.5412 141.115 19.7481 140.978 19.8363C140.864 19.9342 140.659 19.9497 140.364 19.8828C139.875 19.7627 139.166 19.5492 138.237 19.2424C137.78 19.1067 137.543 18.7573 137.528 18.1943C137.487 17.4743 137.435 16.9398 137.372 16.5905C137.221 15.5017 136.791 14.9089 136.081 14.8122C135.777 14.7707 135.463 14.8715 135.139 15.1144C134.838 15.3672 134.584 15.7132 134.377 16.1524C133.661 17.8976 133.93 19.7103 135.185 21.5907C136.107 22.9783 136.899 24.208 137.56 25.2796C138.619 26.9597 138.665 28.7653 137.698 30.6966C136.537 33.1025 135.501 34.814 134.587 35.8313C133.187 37.4033 131.688 38.0836 130.088 37.8723C128.097 37.641 126.602 36.449 125.601 34.2962C125.182 33.4445 124.919 32.6008 124.813 31.7651C124.716 30.9039 124.787 30.0555 125.026 29.2201C125.124 28.9397 125.22 28.7024 125.315 28.5083C125.527 28.1299 125.795 28.0095 126.118 28.1471C126.479 28.3298 127.363 28.7641 128.77 29.45ZM146.789 40.1901C145.997 43.2014 145.568 44.8585 145.502 45.1614C145.209 46.2617 145.541 47.0705 146.499 47.5878C146.586 47.6404 146.679 47.681 146.778 47.7096C146.887 47.7753 147.001 47.8291 147.122 47.8708L147.415 48.0483C147.71 48.1952 147.913 48.2405 148.026 48.1841C148.161 48.1409 148.284 47.9504 148.395 47.6127C148.65 46.9877 148.885 46.2884 149.1 45.5149C149.878 42.931 150.68 41.0634 151.508 39.9122C153.002 37.762 153.88 35.1457 154.142 32.0632C154.389 29.1267 155 26.3646 155.977 23.7769C156.184 23.2476 156.243 22.8465 156.152 22.5737C156.074 22.2769 155.811 22.0091 155.365 21.7701C155.039 21.573 154.565 21.3329 153.942 21.0499C153.342 20.78 152.965 20.599 152.813 20.507C152.333 20.2789 151.907 20.3955 151.537 20.8567C150.574 22.0511 149.794 22.9658 149.195 23.6009C148.065 24.8493 147.101 26.2455 146.305 27.7892C145.258 29.836 143.835 31.8424 142.036 33.8086C140.848 35.1158 139.772 36.3971 138.808 37.6525C138.366 38.2575 137.709 39.2936 136.837 40.7608C136.648 41.083 136.573 41.3183 136.613 41.4667C136.662 41.6522 136.832 41.8489 137.125 42.0569C137.482 42.3043 137.868 42.5223 138.283 42.711C138.751 42.9631 139.193 42.8716 139.607 42.4367C139.825 42.2258 140.021 42.0017 140.196 41.7645C141.242 40.4025 141.986 39.4189 142.428 38.814C142.753 38.3875 143.096 38.2675 143.456 38.4538C143.651 38.5721 144.762 39.1509 146.789 40.1901ZM151.233 27.6853C150.751 31.0397 150.476 32.8684 150.41 33.1713C150.244 34.1303 149.707 35.3793 148.8 36.9184C148.58 36.848 148.317 36.7513 148.011 36.6284C147.726 36.5186 147.464 36.4219 147.223 36.3383C147.003 36.268 146.734 36.1833 146.416 36.0842C146.11 35.9613 145.836 35.858 145.595 35.7745L145.928 35.275C147.863 33.5469 149.321 31.4686 150.304 29.04C150.294 29.0029 150.544 28.5305 151.052 27.6226C151.129 27.6381 151.19 27.659 151.233 27.6853ZM165.522 34.9153C165.537 34.8933 165.71 34.5419 166.041 33.8611C165.247 33.1146 164.808 32.6899 164.723 32.5869C164.643 32.5221 164.441 32.341 164.116 32.0436C163.811 31.7624 163.577 31.5379 163.412 31.3701C163.267 31.2184 163.159 31.0801 163.089 30.9551C163.018 30.8301 162.99 30.6883 163.004 30.5297C163.037 30.3873 163.103 30.22 163.2 30.0278C163.645 29.2694 164.089 28.6285 164.531 28.1051C165.002 27.5377 165.537 27.497 166.136 27.983C166.375 28.1774 166.7 28.4748 167.11 28.8753C167.539 29.2919 167.844 29.5731 168.023 29.7189C168.388 30.0487 169.034 30.6245 169.963 31.4461C170.926 32.2619 171.67 32.8996 172.194 33.359C172.878 33.948 173.415 34.503 173.806 35.0238C173.981 35.268 174.09 35.4746 174.131 35.6436C174.206 35.8068 174.21 35.9625 174.142 36.1107C174.093 36.2751 173.981 36.4893 173.805 36.7533C173.408 37.3473 173.126 37.7462 172.959 37.95C172.655 38.3136 172.371 38.5076 172.109 38.532C171.881 38.5506 171.57 38.417 171.176 38.1312C171.102 38.1046 170.354 37.5654 168.933 36.5135C168.472 37.1573 168.134 37.9857 167.919 38.9987C167.872 39.2998 167.798 39.7322 167.699 40.296C167.634 40.854 167.602 41.2013 167.603 41.3379C167.527 41.8195 167.444 42.2438 167.353 42.6108C167.051 43.8925 166.414 44.8686 165.443 45.5392C164.89 45.9052 164.291 46.2498 163.644 46.573C162.02 47.3919 160.735 48.5546 159.791 50.0611C159.664 50.2973 158.931 51.4164 157.594 53.4184C157.403 53.7044 157.275 53.8723 157.211 53.9221C156.779 54.3853 156.35 54.4277 155.926 54.0493C155.582 53.7357 155.139 53.2918 154.599 52.7178C154.284 52.3602 154.252 51.9944 154.501 51.6204C154.673 51.3182 154.902 50.928 155.191 50.4498C155.48 49.9716 155.724 49.5594 155.925 49.2132C156.125 48.8669 156.358 48.4958 156.622 48.0998C156.887 47.7038 157.154 47.3269 157.424 46.9691C157.728 46.6055 158.028 46.272 158.323 45.9686C158.51 45.781 158.724 45.5986 158.966 45.4214C159.207 45.2442 159.409 45.1029 159.572 44.9975C159.749 44.8701 159.993 44.712 160.304 44.5232C160.65 44.3286 160.879 44.1925 160.992 44.1149C162.102 43.4211 162.839 42.8484 163.202 42.3968C163.973 41.4276 164.428 40.1691 164.57 38.6213C164.707 37.1718 165.024 35.9365 165.522 34.9153ZM173.904 48.8774C173.324 48.8436 172.723 49.1974 172.099 49.9388C171.493 50.6601 171.218 51.3482 171.276 52.0031C171.333 52.6581 171.589 53.2177 172.044 53.6821C172.516 54.165 173.051 54.4134 173.648 54.4271C174.262 54.4595 174.873 54.115 175.48 53.3937C176.103 52.6523 176.369 51.9549 176.276 51.3014C176.202 50.6665 175.928 50.1076 175.456 49.6247C175.001 49.1603 174.484 48.9112 173.904 48.8774Z" fill="white"/>
</svg>
