<svg width="341" height="62" viewBox="0 0 341 62" fill="none" xmlns="http://www.w3.org/2000/svg">
<path d="M10.6274 42.6661C8.95586 45.8977 8.34297 49.4079 8.78871 53.1967C13.6361 53.0295 16.3384 52.946 16.8956 52.946C18.0099 52.946 19.1521 53.0852 20.3222 53.3638C20.9908 53.4753 21.4365 53.6981 21.6594 54.0324C21.938 54.3667 22.1051 54.8961 22.1608 55.6204C22.2166 56.1218 22.2166 56.6511 22.1608 57.2083C21.9937 58.657 21.2136 59.5763 19.8207 59.9663C19.375 60.0778 19.0407 60.1335 18.8178 60.1335C12.076 60.4121 7.00576 60.3006 3.60701 59.7992C3.49557 59.7992 3.04984 59.6877 2.2698 59.4649C0.932583 59.1306 0.263977 58.3227 0.263977 57.0412C0.263977 53.7539 0.486846 50.8844 0.932583 48.4329C1.37832 45.9256 2.29765 43.5855 3.69058 41.4125C3.69058 41.4125 4.13632 40.6603 5.0278 39.156C7.08933 35.4786 7.25648 31.6341 5.52925 27.6225C4.91636 26.1738 4.13632 24.4466 3.18913 22.4408C1.74048 19.3206 1.04402 16.0333 1.09973 12.5789C1.15545 9.96015 1.23903 7.48073 1.35046 5.14061C1.40618 4.30485 1.57333 3.71982 1.85192 3.38552C2.18622 2.9955 2.74339 2.77263 3.52343 2.71691C4.47062 2.60548 5.52925 2.68905 6.69931 2.96764C8.09224 3.30194 8.78871 4.19342 8.78871 5.64206C8.78871 6.64497 8.78871 7.87075 8.78871 9.3194C8.78871 9.76513 8.78871 10.6566 8.78871 11.9938C8.78871 13.2753 8.76085 14.2782 8.70513 15.0026C8.70513 17.677 9.34588 20.2678 10.6274 22.7751C10.906 23.3323 11.3238 24.168 11.881 25.2824C12.4382 26.341 12.8561 27.121 13.1346 27.6225C14.7504 30.8541 14.8062 34.1414 13.3018 37.4844C13.0232 38.0416 12.1317 39.7688 10.6274 42.6661Z" fill="#603DBD"/>
<path d="M48.3756 58.2948C48.2084 57.6262 47.3726 54.0046 45.8683 47.43C40.798 47.7643 37.9286 47.9314 37.26 47.9314C36.2571 47.9871 35.6442 48.6 35.4213 49.7701C35.1427 51.4416 34.6134 54.1439 33.8334 57.8769C33.7219 58.5455 33.5548 59.2141 33.3319 59.8827C32.9419 61.1642 32.1061 61.8328 30.8246 61.8886C29.766 62 28.7631 62.0279 27.8159 61.9721C26.9244 61.9164 26.3394 61.7493 26.0608 61.4707C25.8379 61.1921 25.7544 60.6349 25.8101 59.7992C26.0887 56.0661 26.3951 53.3917 26.7294 51.7759C27.398 48.2657 28.3174 44.5884 29.4874 40.7439C31.1589 35.005 32.0226 29.6283 32.0783 24.6138C32.134 20.7136 32.6912 16.9805 33.7498 13.4146C34.307 11.5202 34.9756 8.87366 35.7556 5.47491C36.0342 4.19342 36.7864 3.49695 38.0122 3.38552C38.5693 3.3298 39.2658 3.27408 40.1016 3.21836C40.993 3.10693 41.8009 3.02336 42.5252 2.96764C43.3053 2.8562 44.0296 2.80048 44.6982 2.80048C45.8683 2.80048 46.6762 3.02335 47.1219 3.46909C47.6234 3.91483 47.9298 4.72273 48.0413 5.89279C48.6541 11.9102 50.2421 17.8441 52.8051 23.6944C55.4795 29.7676 56.3431 35.7015 55.3959 41.4961C54.9502 44.5605 55.2566 48.99 56.3153 54.7846C56.6496 56.5119 56.8724 58.1277 56.9839 59.632C57.0396 60.3563 56.956 60.8299 56.7331 61.0528C56.566 61.3314 56.1202 61.4985 55.3959 61.5543C55.2845 61.5543 54.9223 61.5821 54.3094 61.6378C53.7523 61.6936 53.3065 61.7214 52.9722 61.7214C50.4649 61.8328 48.9327 60.6906 48.3756 58.2948ZM46.2026 30.0462C46.0354 29.4333 44.7261 25.6724 42.2745 18.7635C42.2188 18.7635 42.1352 18.7635 42.0238 18.7635C41.9124 18.7635 41.8288 18.7635 41.7731 18.7635C41.7174 21.0479 41.6895 22.2458 41.6895 22.3572C42.1352 28.0404 41.2716 33.6121 39.0986 39.0724C39.0986 39.0724 39.0151 39.5181 38.8479 40.4096C39.9065 40.2424 41.3552 39.9917 43.1939 39.6574C45.0882 39.2674 46.2583 39.0167 46.704 38.9052C47.0383 35.005 46.8712 32.052 46.2026 30.0462Z" fill="#603DBD"/>
<path d="M93.197 22.4408C93.3641 22.8308 94.5063 25.2824 96.6236 29.7955H106.068C105.176 27.3996 104.675 26.1181 104.563 25.951C104.563 25.8953 103.895 24.6416 102.557 22.1901C101.332 19.9057 100.691 17.7048 100.635 15.5876C100.468 10.573 100.385 7.45287 100.385 6.22709C100.385 5.22418 100.552 4.55558 100.886 4.22128C101.22 3.88697 101.889 3.74768 102.892 3.8034C104.452 3.8034 105.789 3.85911 106.903 3.97055C107.683 4.08198 108.213 4.30485 108.491 4.63915C108.826 4.97346 108.993 5.50277 108.993 6.22709C109.049 8.73437 109.021 10.8516 108.909 12.5789C108.686 17.0362 109.773 20.9921 112.169 24.4466C112.28 24.6695 112.447 24.9759 112.67 25.366C112.893 25.756 113.032 25.9788 113.088 26.0346C115.372 29.7676 115.567 33.64 113.673 37.6516C112.893 39.2674 112.169 40.6325 111.5 41.7468C109.996 44.2541 109.132 47.2349 108.909 50.6894C108.686 54.3667 108.519 56.5954 108.408 57.3755C108.352 58.0998 108.241 58.6291 108.073 58.9634C107.962 59.242 107.739 59.4649 107.405 59.632C107.126 59.7435 106.625 59.8549 105.901 59.9663C104.563 60.0778 103.477 60.1335 102.641 60.1335C100.97 60.0778 100.106 59.3256 100.05 57.8769C99.9945 55.8154 99.9388 53.8932 99.8831 52.1102C99.8831 50.2715 100.106 48.3493 100.552 46.3435C100.997 44.3377 101.722 42.5268 102.725 40.911C102.836 40.7439 103.672 39.1838 105.232 36.2308C103.226 36.1194 102.14 36.0636 101.972 36.0636C101.36 36.0636 100.468 36.0636 99.298 36.0636C98.128 36.0636 97.4036 36.0636 97.1251 36.0636C96.2336 36.0636 95.5928 36.4537 95.2028 37.2337C94.8685 38.0138 94.1442 39.3788 93.0298 41.3289C91.414 44.2262 90.5783 47.4021 90.5226 50.8566C90.5226 53.2524 90.3833 55.2861 90.1047 56.9576C90.049 57.6262 89.9375 58.1555 89.7704 58.5455C89.6032 58.9356 89.3804 59.2699 89.1018 59.5484C88.8232 59.7713 88.461 59.9385 88.0153 60.0499C87.5695 60.1056 87.0124 60.1335 86.3438 60.1335C85.5637 60.1335 84.3658 60.022 82.75 59.7992C81.58 59.6877 80.9671 59.0748 80.9113 57.9605C80.8556 57.5705 80.7721 56.679 80.6606 55.2861C80.5492 53.8931 80.4935 52.8902 80.4935 52.2774C80.4935 51.6087 80.5213 50.7451 80.577 49.6865C80.6328 48.5722 80.7721 47.5692 80.9949 46.6778C81.2178 45.7863 81.5521 44.8948 81.9978 44.0033C82.2207 43.5019 82.9172 42.1925 84.0872 40.0753C84.1987 39.9639 84.5051 39.5181 85.0066 38.7381C87.9596 34.2807 88.071 29.8233 85.3409 25.366C84.7837 24.4188 84.1151 23.193 83.335 21.6886C82.1093 19.1813 81.6357 16.4791 81.9143 13.5818C81.97 12.9132 82.0257 12.161 82.0814 11.3252C82.1928 10.4895 82.2764 9.62584 82.3321 8.73437C82.3878 7.84289 82.4436 7.09071 82.4993 6.47782C82.6107 5.30776 82.8057 4.58344 83.0843 4.30485C83.4186 4.02626 84.1708 3.85911 85.3409 3.8034C87.4024 3.8034 88.6282 3.8034 89.0182 3.8034C89.7425 3.85911 90.2997 3.99841 90.6897 4.22128C91.1354 4.44414 91.4419 4.77845 91.609 5.22419C91.8319 5.61421 91.9433 6.17138 91.9433 6.8957C91.9433 8.28863 91.8319 9.988 91.609 11.9938C91.219 15.894 91.7483 19.3764 93.197 22.4408Z" fill="#603DBD"/>
<path d="M120.113 35.4786C120.169 35.0886 120.336 34.3364 120.614 33.2221C120.949 32.052 121.172 31.1884 121.283 30.6312C121.45 30.0741 121.617 29.3497 121.784 28.4583C121.952 27.5111 122.035 26.6474 122.035 25.8674C121.311 21.02 120.921 18.4292 120.865 18.0949C120.252 14.7518 120.392 11.8267 121.283 9.3194C122.007 7.31358 123.205 5.78136 124.877 4.72273C127.551 2.9955 130.17 1.99259 132.733 1.714C134.293 1.49113 135.825 1.60257 137.33 2.0483C141.676 3.44123 144.406 5.80922 145.52 9.15225C147.359 14.8354 148.557 20.1843 149.114 25.1988C149.392 27.9289 148.891 30.9098 147.609 34.1414C146.216 37.7073 145.381 41.6632 145.102 46.0092C144.935 49.0736 143.988 51.6645 142.261 53.7817C140.589 55.899 138.221 57.459 135.157 58.462C133.819 58.9077 132.566 58.9913 131.396 58.7127C127.718 57.7655 124.737 56.1218 122.453 53.7817C119.444 50.6616 118.191 46.7892 118.692 42.1647C118.915 40.4932 119.389 38.2645 120.113 35.4786ZM129.808 35.8965C129.696 36.4537 129.557 37.0666 129.39 37.7352C129.278 38.3481 129.167 38.9331 129.056 39.4903C129 39.9917 128.916 40.6046 128.805 41.3289C128.749 42.0532 128.666 42.6661 128.554 43.1676C129.111 46.1763 129.446 47.82 129.557 48.0986C129.78 49.2686 130.504 49.8815 131.73 49.9372C132.844 49.9929 133.624 49.4915 134.07 48.4329C134.349 47.7643 134.599 46.9842 134.822 46.0927C135.101 45.0898 135.407 43.8362 135.742 42.3318C136.132 40.7718 136.494 39.2952 136.828 37.9023C137.162 36.5094 137.469 35.2279 137.747 34.0578C138.695 30.3248 139.001 26.926 138.667 23.8616C138.444 21.9115 137.58 18.4292 136.076 13.4146C136.02 13.1917 135.574 12.5231 134.739 11.4088C134.349 10.9073 133.736 10.7402 132.9 10.9073C131.451 11.1859 130.644 12.161 130.476 13.8325C130.365 15.5597 130.421 17.1755 130.644 18.6799C131.646 24.9202 131.368 30.6591 129.808 35.8965Z" fill="#603DBD"/>
<path d="M171.609 48.1821C170.383 44.4491 170.132 40.7996 170.857 37.2337C170.466 37.178 170.049 37.1501 169.603 37.1501C169.157 37.0944 168.767 37.0666 168.433 37.0666C168.099 37.0108 167.708 36.9551 167.263 36.8994C166.873 36.8437 166.511 36.8158 166.176 36.8158C164.226 39.7688 163.168 43.0283 163 46.5942C163 47.3185 162.973 48.3214 162.917 49.6029C162.861 50.8844 162.833 51.7759 162.833 52.2774C162.722 55.0632 162.304 57.3198 161.58 59.047C161.245 59.827 160.911 60.3006 160.577 60.4678C160.242 60.6906 159.685 60.7464 158.905 60.6349C158.627 60.5792 156.621 60.1892 152.888 59.4649C152.943 57.5705 152.943 55.8711 152.888 54.3667C152.888 52.8067 152.916 51.1073 152.971 49.2686C153.027 47.43 153.194 45.7863 153.473 44.3377C153.64 43.4462 154.253 41.6632 155.311 38.9888C155.423 38.6545 155.562 38.2923 155.729 37.9023C155.896 37.5123 156.036 37.178 156.147 36.8994C156.314 36.6208 156.481 36.2865 156.649 35.8965C156.816 35.5065 156.955 35.1722 157.067 34.8936C158.459 31.272 158.404 27.7061 156.899 24.1959C155.785 21.5215 155.061 19.7664 154.726 18.9306C154.058 17.0362 153.696 14.8911 153.64 12.4953C153.584 10.0437 153.696 7.84289 153.974 5.89279C153.974 5.72564 153.974 5.47491 153.974 5.14061C154.03 4.8063 154.086 4.58344 154.141 4.472C154.197 3.41338 154.364 2.74477 154.643 2.46619C154.921 2.1876 155.562 1.93687 156.565 1.714C161.858 0.488225 167.207 0.738952 172.612 2.46619C176.456 3.69196 178.991 6.0878 180.217 9.6537C183.17 18.1227 184.702 22.4687 184.814 22.6915C186.039 26.5917 185.092 29.6562 181.972 31.8849C179.966 33.3335 178.88 35.3393 178.713 37.9023C178.49 40.8553 178.796 44.1426 179.632 47.7643C179.632 47.7643 180.412 51.0516 181.972 57.6262C182.084 57.9048 182.139 58.1555 182.139 58.3784C182.306 59.4927 182.223 60.217 181.889 60.5514C181.61 60.8857 180.913 61.0528 179.799 61.0528C178.072 60.9971 176.874 60.9414 176.205 60.8857C175.258 60.7742 174.617 60.5792 174.283 60.3006C174.005 60.022 173.782 59.437 173.615 58.5455C173.447 57.8212 172.807 54.6453 171.692 49.0179C171.692 48.9622 171.664 48.8507 171.609 48.6836C171.609 48.4607 171.609 48.2936 171.609 48.1821ZM168.099 9.73727C167.931 9.73727 166.538 9.62584 163.92 9.40298C163.697 9.73728 163.585 9.93229 163.585 9.988C163.251 12.8853 163.307 15.0304 163.753 16.4233C163.92 17.0919 165.229 20.8529 167.681 27.7061C169.352 27.5389 170.271 27.4553 170.439 27.4553C172.444 27.2325 173.726 26.731 174.283 25.951C174.84 25.1152 174.812 23.5273 174.2 21.1872C173.754 19.8499 173.029 17.2591 172.027 13.4146C171.469 11.2974 170.16 10.0716 168.099 9.73727Z" fill="#603DBD"/>
<path d="M211.446 58.2948C211.279 57.6262 210.443 54.0046 208.939 47.43C203.869 47.7643 200.999 47.9314 200.331 47.9314C199.328 47.9871 198.715 48.6 198.492 49.7701C198.213 51.4416 197.684 54.1439 196.904 57.8769C196.793 58.5455 196.626 59.2141 196.403 59.8827C196.013 61.1642 195.177 61.8328 193.895 61.8886C192.837 62 191.834 62.0279 190.887 61.9721C189.995 61.9164 189.41 61.7493 189.132 61.4707C188.909 61.1921 188.825 60.6349 188.881 59.7992C189.159 56.0661 189.466 53.3917 189.8 51.7759C190.469 48.2657 191.388 44.5884 192.558 40.7439C194.23 35.005 195.093 29.6283 195.149 24.6138C195.205 20.7136 195.762 16.9805 196.821 13.4146C197.378 11.5202 198.046 8.87366 198.826 5.47491C199.105 4.19342 199.857 3.49695 201.083 3.38552C201.64 3.3298 202.337 3.27408 203.172 3.21836C204.064 3.10693 204.872 3.02336 205.596 2.96764C206.376 2.8562 207.1 2.80048 207.769 2.80048C208.939 2.80048 209.747 3.02335 210.193 3.46909C210.694 3.91483 211.001 4.72273 211.112 5.89279C211.725 11.9102 213.313 17.8441 215.876 23.6944C218.55 29.7676 219.414 35.7015 218.467 41.4961C218.021 44.5605 218.327 48.99 219.386 54.7846C219.72 56.5119 219.943 58.1277 220.055 59.632C220.11 60.3563 220.027 60.8299 219.804 61.0528C219.637 61.3314 219.191 61.4985 218.467 61.5543C218.355 61.5543 217.993 61.5821 217.38 61.6378C216.823 61.6936 216.377 61.7214 216.043 61.7214C213.536 61.8328 212.003 60.6906 211.446 58.2948ZM209.273 30.0462C209.106 29.4333 207.797 25.6724 205.345 18.7635C205.29 18.7635 205.206 18.7635 205.095 18.7635C204.983 18.7635 204.9 18.7635 204.844 18.7635C204.788 21.0479 204.76 22.2458 204.76 22.3572C205.206 28.0404 204.342 33.6121 202.169 39.0724C202.169 39.0724 202.086 39.5181 201.919 40.4096C202.977 40.2424 204.426 39.9917 206.265 39.6574C208.159 39.2674 209.329 39.0167 209.775 38.9052C210.109 35.005 209.942 32.052 209.273 30.0462Z" fill="#603DBD"/>
<path d="M252.005 44.3377C253.064 47.1235 253.649 48.6279 253.76 48.8507C254.095 49.5194 254.763 50.188 255.766 50.8566C256.936 51.5809 258.051 51.8316 259.109 51.6087C260.224 51.3859 261.171 50.7173 261.951 49.6029C262.954 48.21 263.483 46.5106 263.539 44.5048C263.762 38.9888 262.09 34.5871 258.524 31.2998C255.794 28.6811 253.12 26.0903 250.501 23.5273C248.662 21.7443 247.437 20.4907 246.824 19.7664C245.096 17.5377 244.261 15.2811 244.316 12.9967C244.372 10.6566 245.319 8.42792 247.158 6.31067C249.442 3.69196 252.033 1.93687 254.93 1.0454C256.602 0.432505 258.274 0.237494 259.945 0.460363C261.617 0.627516 263.177 1.07325 264.625 1.79758C266.074 2.46618 267.355 3.46909 268.47 4.80631C269.584 6.0878 270.392 7.53645 270.893 9.15225C271.339 10.5452 271.646 11.8545 271.813 13.0803C271.924 13.7489 271.869 14.2504 271.646 14.5847C271.479 14.8633 271.033 15.0583 270.308 15.1697C269.138 15.3369 267.411 15.5319 265.127 15.7547C264.012 15.8105 263.205 15.309 262.703 14.2504C262.034 12.8017 261.533 11.771 261.199 11.1581C259.973 9.09653 258.552 8.26077 256.936 8.65079C256.156 8.81794 255.516 9.29154 255.014 10.0716C254.513 10.7959 254.234 11.7152 254.178 12.8296C253.9 16.9527 255.906 20.3514 260.196 23.0258C263.316 25.0316 266.018 26.8146 268.303 28.3747C271.924 30.882 273.429 34.4757 272.816 39.156C272.091 45.0063 271.088 49.3522 269.807 52.1938C267.968 56.5397 265.21 59.1863 261.533 60.1335C256.908 61.3592 252.646 60.2449 248.746 56.7904C245.514 53.8931 243.787 50.6337 243.564 47.0121C243.564 46.3992 243.592 45.8699 243.648 45.4241C243.815 44.4769 244.316 44.0033 245.152 44.0033C246.099 44.0033 248.384 44.1148 252.005 44.3377Z" fill="#603DBD"/>
<path d="M299.266 58.2948C299.099 57.6262 298.263 54.0046 296.759 47.43C291.689 47.7643 288.819 47.9314 288.151 47.9314C287.148 47.9871 286.535 48.6 286.312 49.7701C286.033 51.4416 285.504 54.1439 284.724 57.8769C284.613 58.5455 284.445 59.2141 284.223 59.8827C283.832 61.1642 282.997 61.8328 281.715 61.8886C280.657 62 279.654 62.0279 278.707 61.9721C277.815 61.9164 277.23 61.7493 276.951 61.4707C276.729 61.1921 276.645 60.6349 276.701 59.7992C276.979 56.0661 277.286 53.3917 277.62 51.7759C278.289 48.2657 279.208 44.5884 280.378 40.7439C282.05 35.005 282.913 29.6283 282.969 24.6138C283.025 20.7136 283.582 16.9805 284.64 13.4146C285.198 11.5202 285.866 8.87366 286.646 5.47491C286.925 4.19342 287.677 3.49695 288.903 3.38552C289.46 3.3298 290.156 3.27408 290.992 3.21836C291.884 3.10693 292.692 3.02336 293.416 2.96764C294.196 2.8562 294.92 2.80048 295.589 2.80048C296.759 2.80048 297.567 3.02335 298.013 3.46909C298.514 3.91483 298.82 4.72273 298.932 5.89279C299.545 11.9102 301.133 17.8441 303.696 23.6944C306.37 29.7676 307.234 35.7015 306.287 41.4961C305.841 44.5605 306.147 48.99 307.206 54.7846C307.54 56.5119 307.763 58.1277 307.874 59.632C307.93 60.3563 307.847 60.8299 307.624 61.0528C307.457 61.3314 307.011 61.4985 306.287 61.5543C306.175 61.5543 305.813 61.5821 305.2 61.6378C304.643 61.6936 304.197 61.7214 303.863 61.7214C301.356 61.8328 299.823 60.6906 299.266 58.2948ZM297.093 30.0462C296.926 29.4333 295.617 25.6724 293.165 18.7635C293.109 18.7635 293.026 18.7635 292.914 18.7635C292.803 18.7635 292.719 18.7635 292.664 18.7635C292.608 21.0479 292.58 22.2458 292.58 22.3572C293.026 28.0404 292.162 33.6121 289.989 39.0724C289.989 39.0724 289.906 39.5181 289.739 40.4096C290.797 40.2424 292.246 39.9917 294.084 39.6574C295.979 39.2674 297.149 39.0167 297.595 38.9052C297.929 35.005 297.762 32.052 297.093 30.0462Z" fill="#603DBD"/>
<path d="M322.414 13.7489C322.358 13.7489 322.219 12.9132 321.996 11.2416C319.6 11.0188 318.235 10.9073 317.901 10.9073C317.678 10.9073 317.065 10.8795 316.062 10.8238C315.115 10.7123 314.391 10.6288 313.889 10.573C313.165 10.5173 312.636 10.3502 312.301 10.0716C311.967 9.79299 311.772 9.29154 311.716 8.56721C311.605 6.61711 311.633 4.88988 311.8 3.38552C311.967 1.714 312.942 0.878242 314.725 0.878242C315.449 0.878242 316.452 0.93396 317.734 1.0454C319.071 1.15683 320.018 1.21255 320.575 1.21255C321.69 1.26827 323.668 1.35184 326.509 1.46327C329.407 1.51899 331.607 1.57471 333.112 1.63042C335.173 1.74186 336.928 1.96473 338.377 2.29903C339.046 2.46618 339.519 2.6612 339.798 2.88406C340.132 3.05121 340.355 3.3298 340.466 3.71982C340.578 4.05412 340.634 4.58344 340.634 5.30776C340.634 6.86784 340.606 7.95433 340.55 8.56721C340.383 9.62584 340.076 10.3502 339.631 10.7402C339.185 11.1302 338.405 11.3531 337.291 11.4088C337.012 11.4645 334.895 11.5759 330.939 11.7431C330.883 13.526 331.301 15.4483 332.192 17.5098C332.471 18.067 332.889 18.9028 333.446 20.0171C334.059 21.0757 334.421 21.7443 334.533 22.0229C335.034 22.9701 335.424 23.8059 335.703 24.5302C336.761 27.1489 336.789 29.7397 335.786 32.3027C335.229 33.6957 334.533 35.1443 333.697 36.6487C331.635 40.326 330.66 44.1426 330.772 48.0986C330.827 48.7115 330.855 51.6923 330.855 57.0412C330.855 57.7655 330.855 58.2391 330.855 58.462C330.577 59.8549 329.769 60.5235 328.431 60.4678C327.373 60.4121 325.98 60.2728 324.253 60.0499C323.194 59.8827 322.665 59.2699 322.665 58.2112C322.609 57.3755 322.525 56.1497 322.414 54.5339C322.358 52.8624 322.303 51.5252 322.247 50.5223C322.191 49.5193 322.191 48.3214 322.247 46.9285C322.358 45.5356 322.525 44.2541 322.748 43.084C322.86 42.5268 323.027 41.914 323.25 41.2453C323.473 40.5767 323.668 40.0474 323.835 39.6574C324.058 39.2117 324.336 38.5988 324.671 37.8187C325.061 36.983 325.339 36.4258 325.506 36.1472C326.732 33.3056 327.401 31.272 327.512 30.0462C327.791 27.2603 327.066 24.4188 325.339 21.5215C323.779 18.847 322.804 16.2562 322.414 13.7489Z" fill="#603DBD"/>
</svg>
