<svg width="113" height="104" viewBox="0 0 113 104" fill="none" xmlns="http://www.w3.org/2000/svg">
<path fill-rule="evenodd" clip-rule="evenodd" d="M57.1716 15.193C56.821 14.0201 56.7484 12.8731 56.9538 11.7521C56.8426 11.7347 56.7235 11.7261 56.5964 11.7262C56.4693 11.7089 56.3581 11.7002 56.2628 11.7003C56.1674 11.6829 56.0562 11.6656 55.9291 11.6482C55.8179 11.6308 55.7146 11.6222 55.6193 11.6223C55.0642 12.5511 54.7633 13.5759 54.7167 14.6968C54.717 14.9245 54.7093 15.2397 54.6938 15.6425C54.6783 16.0453 54.6706 16.3255 54.6708 16.4831C54.6399 17.3588 54.5214 18.0682 54.3154 18.6113C54.2203 18.8566 54.1251 19.0056 54.0299 19.0582C53.9346 19.1284 53.7758 19.1461 53.5533 19.1113C53.4739 19.0939 52.9019 18.972 51.8373 18.7455C51.8526 18.1501 51.8521 17.616 51.8358 17.1431C51.8353 16.6528 51.8428 16.1187 51.8581 15.5407C51.8734 14.9628 51.9206 14.4461 51.9996 13.9907C52.047 13.7104 52.2212 13.1498 52.5222 12.3089C52.5539 12.2038 52.5935 12.0899 52.641 11.9672C52.6886 11.8446 52.7282 11.7395 52.7599 11.6519C52.8074 11.5643 52.855 11.4591 52.9025 11.3365C52.9501 11.2138 52.9897 11.1087 53.0214 11.0211C53.4174 9.88234 53.4005 8.76155 52.9705 7.65876C52.652 6.81853 52.4449 6.26712 52.3494 6.00454C52.1582 5.40934 52.0543 4.73523 52.0377 3.9822C52.021 3.21167 52.0521 2.51988 52.131 1.90685L52.1308 1.67043C52.1465 1.56534 52.1624 1.49527 52.1782 1.46023C52.1938 1.12747 52.2412 0.917264 52.3206 0.829609C52.3999 0.741953 52.5826 0.662934 52.8684 0.592552C54.3772 0.205521 55.9023 0.282555 57.4438 0.823654C58.5403 1.20766 59.2638 1.95986 59.6144 3.08025C60.4589 5.74119 60.897 7.10666 60.9289 7.17667C61.2795 8.40214 61.0104 9.36565 60.1215 10.0672C59.55 10.5232 59.2408 11.154 59.194 11.9596C59.1313 12.8879 59.2197 13.921 59.459 15.059L60.1292 18.158C60.1611 18.2455 60.177 18.3243 60.1771 18.3944C60.2251 18.7446 60.2015 18.9722 60.1063 19.0774C60.0269 19.1826 59.8284 19.2354 59.5107 19.2357C59.0182 19.2188 58.6766 19.2017 58.486 19.1844C58.2159 19.1497 58.0332 19.0886 57.9378 19.0011C57.8582 18.9137 57.7945 18.7299 57.7466 18.4497C57.6987 18.2221 57.5151 17.2241 57.1957 15.4557C57.1957 15.4382 57.1877 15.4032 57.1717 15.3507L57.1716 15.193ZM56.1592 3.11054C56.1116 3.11059 55.7144 3.07603 54.9677 3.00685C54.9042 3.112 54.8725 3.17333 54.8725 3.19084C54.7781 4.1016 54.7946 4.77582 54.9221 5.21349C54.97 5.42358 55.3444 6.60525 56.0455 8.75848C56.522 8.70539 56.7841 8.67881 56.8318 8.67876C57.4036 8.60804 57.7688 8.45001 57.9274 8.20465C58.086 7.94177 58.0776 7.44267 57.9022 6.70735C57.7747 6.2872 57.5674 5.4731 57.2803 4.26507C57.1208 3.59977 56.7471 3.21493 56.1592 3.11054ZM41.1529 12.0368C41.1203 12.396 41.1043 12.6376 41.1047 12.7614C41.0155 13.6608 40.974 14.3755 40.9803 14.9054C41.03 16.3665 41.5437 17.5136 42.5215 18.3468C43.2627 18.9705 44.1715 19.3458 45.2481 19.4728C45.5897 19.5061 45.9399 19.423 46.2987 19.2234C47.1217 18.7719 47.7252 18.1788 48.1092 17.4442C48.509 16.707 48.6691 15.8581 48.5895 14.8975C48.4885 13.5332 48.5607 12.2649 48.8063 11.0924C49.0342 10.029 49.0524 9.07917 48.861 8.24282C48.4965 6.70873 47.9374 5.09988 47.1838 3.41627C46.7312 2.4274 45.8632 1.8154 44.5796 1.58027C44.1368 1.5102 43.6999 1.54538 43.269 1.68578C42.5575 1.88922 41.8602 2.32046 41.1771 2.97949C40.7494 3.38489 40.4748 3.91599 40.3534 4.57279C40.2055 5.39316 40.2871 6.3092 40.5982 7.32092C40.6278 7.42235 40.8449 8.2103 41.2496 9.68479C41.2819 9.92737 41.294 10.1998 41.286 10.5019C41.2757 10.7868 41.2585 11.0197 41.2344 11.2006C41.226 11.3789 41.1988 11.6577 41.1529 12.0368ZM43.815 13.0404C43.8345 12.8248 43.8485 12.6279 43.8569 12.4495C44.0805 10.7496 43.9218 8.95221 43.3809 7.05724C43.2559 6.59955 43.1734 6.09959 43.1334 5.55736C43.1115 5.02991 43.2991 4.68986 43.6962 4.53721C43.9251 4.44714 44.1049 4.47119 44.2356 4.60936C44.5175 4.91783 44.6709 5.10544 44.6958 5.17221C45.3275 6.66313 45.7151 7.70675 45.8585 8.30305C46.0795 9.24083 46.1336 10.3118 46.0207 11.5159C45.9905 11.8925 45.957 12.305 45.9203 12.7534C45.8836 13.2018 45.8424 13.6775 45.7969 14.1804C45.7648 14.6635 45.7302 15.0674 45.693 15.3919C45.667 15.6793 45.6285 15.9333 45.5776 16.154C45.4956 16.5035 45.2963 16.695 44.9796 16.7285C44.6315 16.767 44.4018 16.6094 44.2906 16.2557C44.2476 16.1741 44.0854 15.6782 43.8038 14.7679C43.8145 14.6069 43.8128 14.4125 43.7985 14.1847C43.8 13.9543 43.7983 13.7599 43.7933 13.6014C43.8017 13.4231 43.8089 13.2361 43.815 13.0404ZM31.1626 11.468C31.2404 11.5701 31.7548 12.2034 32.7056 13.3681L35.2826 12.5074C34.8413 11.868 34.5985 11.5282 34.5543 11.488C34.5496 11.4713 34.2636 11.1551 33.696 10.5395C33.1727 9.96406 32.8159 9.36042 32.6257 8.72861C32.1655 7.23541 31.8848 6.30445 31.7834 5.93572C31.7005 5.63404 31.6909 5.41768 31.7545 5.28665C31.818 5.15563 31.989 5.05279 32.2672 4.97815C32.6929 4.83598 33.0624 4.73087 33.3757 4.66284C33.5978 4.62527 33.7606 4.64407 33.8643 4.71925C33.9831 4.78934 34.0725 4.93333 34.1324 5.15122C34.3549 5.90035 34.5223 6.53978 34.6347 7.06951C34.9423 8.43064 35.5658 9.52161 36.5052 10.3424C36.554 10.3993 36.6249 10.4762 36.718 10.5732C36.8111 10.6703 36.8675 10.7246 36.8873 10.7363C37.8192 11.651 38.1926 12.7981 38.0073 14.1775C37.928 14.7346 37.8432 15.2113 37.7529 15.6074C37.5497 16.4987 37.5605 17.4741 37.7852 18.5335C38.0284 19.66 38.167 20.3457 38.2011 20.5905C38.2458 20.8134 38.2591 20.9828 38.2412 21.0986C38.2338 21.1926 38.1914 21.2799 38.114 21.3607C38.0472 21.4196 37.9196 21.4988 37.7311 21.5983C37.3755 21.7537 37.0836 21.8695 36.8556 21.9457C36.3949 22.0812 36.097 21.9337 35.9621 21.503C35.7764 20.8879 35.6023 20.3148 35.4397 19.7835C35.2877 19.2304 35.1896 18.6319 35.1454 17.9879C35.1012 17.3439 35.1492 16.7332 35.2893 16.1557C35.3059 16.0953 35.4049 15.5499 35.5865 14.5194C35.03 14.6687 34.7289 14.7509 34.6833 14.7661L33.9535 15.0099L33.3606 15.2079C33.1173 15.2892 32.9747 15.4649 32.9328 15.7351C32.9061 16.0002 32.8213 16.4768 32.6784 17.165C32.477 18.1838 32.5115 19.2153 32.7819 20.2595C32.98 20.9802 33.1101 21.6046 33.1722 22.1328C33.2123 22.339 33.2257 22.5084 33.2123 22.6409C33.1989 22.7735 33.1657 22.8944 33.1128 23.0036C33.0552 23.096 32.9702 23.1793 32.8577 23.2534C32.7407 23.3108 32.591 23.37 32.4085 23.4309C32.1957 23.502 31.8596 23.5776 31.4003 23.6578C31.0718 23.731 30.8539 23.6024 30.7466 23.2723C30.6991 23.1601 30.6026 22.8995 30.4571 22.4907C30.3115 22.0818 30.2134 21.7852 30.1627 21.6009C30.1074 21.3997 30.0437 21.1374 29.9713 20.8139C29.8944 20.4736 29.8495 20.1592 29.8366 19.8707C29.8238 19.5823 29.8413 19.2836 29.8892 18.9749C29.9086 18.8037 29.9904 18.3464 30.1346 17.6028C30.1558 17.5592 30.2026 17.3972 30.2749 17.1168C30.7122 15.5069 30.3741 14.1559 29.2607 13.0639C29.0303 12.8297 28.7466 12.5219 28.4094 12.1405C27.8676 11.498 27.515 10.7283 27.3515 9.83135C27.3114 9.62515 27.2644 9.39381 27.2106 9.13733C27.1719 8.87577 27.1233 8.60837 27.0648 8.33512C27.0063 8.06188 26.9593 7.83054 26.9238 7.6411C26.8575 7.27898 26.8509 7.04332 26.9038 6.93413C26.972 6.81986 27.1635 6.70103 27.4781 6.57764L28.4816 6.24251C28.6838 6.19326 28.8474 6.18438 28.9722 6.21588C29.1123 6.2423 29.2235 6.31493 29.306 6.43378C29.399 6.53079 29.4755 6.68824 29.5354 6.90613C29.6505 7.32513 29.7606 7.84648 29.8656 8.47016C30.0816 9.67892 30.5139 10.6782 31.1626 11.468ZM19.4215 25.8601C20.6599 27.3349 21.3436 28.1424 21.4727 28.2824C21.924 28.8237 22.4368 28.8897 23.0111 28.4806C23.0661 28.4453 23.117 28.4025 23.1639 28.3521C23.2326 28.3081 23.2972 28.2565 23.3579 28.1973L23.5432 28.0783C23.7137 27.9487 23.8035 27.8403 23.8127 27.7534C23.8357 27.6576 23.7815 27.5201 23.6501 27.341C23.4229 26.9803 23.1522 26.6069 22.838 26.2208C21.8076 24.8962 21.1424 23.7932 20.8424 22.9117C20.2651 21.2964 19.2519 19.8999 17.8029 18.7224C16.4213 17.6029 15.2474 16.3197 14.2812 14.8729C14.0859 14.5727 13.9054 14.4049 13.7396 14.3694C13.5658 14.3188 13.3456 14.3892 13.0791 14.5805C12.8731 14.7127 12.5968 14.9204 12.2501 15.2037C11.9171 15.4782 11.7026 15.6463 11.6065 15.7079C11.3342 15.9232 11.2516 16.2194 11.3588 16.5964C11.6359 17.5736 11.8336 18.3485 11.9521 18.9209C12.2005 20.0178 12.5776 21.0626 13.0833 22.0552C13.757 23.3656 14.2863 24.8901 14.6714 26.6288C14.9301 27.78 15.2128 28.8549 15.5196 29.8536C15.6747 30.3214 15.9737 31.0617 16.4166 32.0744C16.5148 32.2951 16.6073 32.4181 16.6942 32.4434C16.8028 32.475 16.9572 32.4367 17.1574 32.3285C17.3988 32.1938 17.635 32.0321 17.8662 31.8432C18.1465 31.6431 18.2468 31.3457 18.167 30.951C18.134 30.7493 18.0873 30.5564 18.0269 30.3723C17.6938 29.2891 17.4497 28.5136 17.2946 28.0458C17.1897 27.7078 17.243 27.4608 17.4547 27.3047C17.5783 27.2254 18.2339 26.7439 19.4215 25.8601ZM14.6604 19.037C16.1721 20.4377 16.9925 21.2081 17.1216 21.3481C17.5443 21.7658 17.9891 22.5037 18.456 23.5618C18.3484 23.6713 18.2134 23.7985 18.0509 23.9433C17.9021 24.0793 17.7671 24.2065 17.6458 24.3249C17.5382 24.4344 17.4072 24.5692 17.2527 24.7291C17.0902 24.874 16.9483 25.0055 16.827 25.1239L16.6883 24.757C16.4667 23.0146 15.9134 21.4446 15.0283 20.0471C15.0066 20.0407 14.8536 19.7336 14.5694 19.1258C14.6026 19.0842 14.6329 19.0546 14.6604 19.037ZM9.919 31.0817C10.0785 32.1563 10.5091 33.1037 11.211 33.9238C12.2467 32.9946 12.8216 32.4826 12.9356 32.3875C13.1637 32.1974 13.4236 32.0247 13.7154 31.8693C13.8962 31.7845 14.0407 31.7628 14.1488 31.8044C14.2601 31.8214 14.3732 31.9138 14.4882 32.0814C14.5871 32.1965 14.6733 32.3223 14.7469 32.4585C14.9484 32.8395 14.9321 33.1933 14.6982 33.52C14.616 33.6325 14.5495 33.7098 14.4988 33.7521C13.1022 35.026 11.9981 35.9133 11.1865 36.4142C11.1515 36.4213 11.0373 36.4726 10.8439 36.568C10.4949 36.7271 10.2151 36.653 10.0043 36.3457C9.46775 35.5634 9.04897 34.8367 8.74795 34.1655C8.44692 33.4943 8.26489 32.7788 8.20184 32.019L8.1629 31.788C8.16259 31.7005 8.15749 31.6059 8.1476 31.5044C8.12813 31.3889 8.1167 31.2996 8.1133 31.2366C7.96279 30.0008 7.37804 29.0611 6.35906 28.4175C5.99282 28.1739 5.53912 27.9044 4.99795 27.609C4.18295 27.1467 3.49915 26.4981 2.94655 25.6634C2.53766 25.0382 2.14948 24.4287 1.78201 23.8348C1.66055 23.6287 1.60275 23.4573 1.60862 23.3207C1.62717 23.1735 1.71402 23.0243 1.86917 22.873C2.05275 22.6761 2.29521 22.5069 2.59655 22.3655C2.9359 22.1924 3.23167 22.2752 3.48387 22.6139L4.07309 23.473C4.15932 23.5987 4.30149 23.8205 4.4996 24.1384L4.98822 24.8508C5.41936 25.4794 5.98031 25.9779 6.67107 26.3462C6.80798 26.4297 7.02448 26.5566 7.32056 26.7269L7.9937 27.055C8.86279 27.5382 9.4072 28.3029 9.62694 29.3492L9.919 31.0817ZM0.53548 34.6694C0.13588 34.1942 -0.0400695 33.7532 0.00762991 33.3462C0.0553296 32.9393 0.224804 32.587 0.516053 32.2893C0.818952 31.9798 1.15625 31.8142 1.52795 31.7925C1.9113 31.7589 2.30277 31.9797 2.70237 32.4549C3.09117 32.9173 3.2613 33.3643 3.21275 33.796C3.17585 34.2158 3.00595 34.5805 2.70305 34.89C2.4118 35.1877 2.07492 35.3409 1.69243 35.3497C1.30993 35.3585 0.924279 35.1318 0.53548 34.6694ZM68.7245 16.0273C68.8791 18.1403 68.9663 19.3046 68.986 19.5201C69.0449 20.2905 69.4303 20.7151 70.1423 20.7939C70.2366 20.809 70.3635 20.8205 70.523 20.8284C70.6982 20.8388 70.8016 20.8465 70.833 20.8515C71.0397 20.867 71.1723 20.8352 71.2309 20.7561C71.3029 20.6968 71.3459 20.5533 71.3599 20.3255C71.3902 19.8525 71.3937 19.3399 71.3702 18.7875C71.3094 16.9373 71.4047 15.5457 71.6562 14.6127C72.1613 12.8532 72.1612 10.9684 71.6559 8.95845C71.1728 7.02282 70.9683 5.1053 71.0424 3.20591C71.059 2.83694 71.0056 2.57179 70.8825 2.41046C70.775 2.25165 70.5562 2.14577 70.2261 2.09283C70.0374 2.06258 69.8308 2.04714 69.6061 2.04651C69.3994 2.03107 69.1681 2.02051 68.912 2.01484C68.6739 1.99435 68.4751 1.98017 68.3156 1.97229C67.9652 1.95149 67.7244 2.13409 67.5932 2.52008C67.2336 3.54193 66.9363 4.33486 66.7014 4.89888C66.2563 5.96011 65.9459 7.09603 65.7701 8.30662C65.5486 9.86382 65.0842 11.4971 64.3771 13.2065C63.8892 14.3493 63.4789 15.4515 63.1462 16.5131C62.9855 17.0005 62.7893 17.8185 62.5575 18.967C62.5075 19.2245 62.5082 19.4015 62.5596 19.4983C62.6268 19.5975 62.785 19.676 63.0342 19.7337C63.2992 19.7938 63.5833 19.8306 63.8866 19.8438C64.2504 19.8844 64.5137 19.7143 64.6763 19.3333C64.7666 19.1355 64.8412 18.9351 64.9001 18.7321C65.2734 17.6063 65.5337 16.7898 65.6809 16.2825C65.7918 15.9286 65.9899 15.7657 66.2751 15.7937C66.4638 15.824 67.2802 15.9018 68.7245 16.0273ZM68.8871 6.94827C69.2952 9.20814 69.5103 10.4372 69.5323 10.6354C69.6386 11.2895 69.5646 12.2156 69.3102 13.4135C69.1798 13.428 68.8394 13.4531 68.2889 13.4887C67.7564 13.5095 67.3374 13.5219 67.0319 13.526L67.1575 13.1214C67.9947 11.5214 68.467 9.82745 68.5745 8.0396C68.5791 8.00494 68.6361 7.6336 68.7456 6.92559L68.8163 6.93693L68.8871 6.94827ZM82.5386 19.2271C82.522 20.1022 82.5171 20.5787 82.5238 20.6567C82.559 20.8969 82.6638 21.1572 82.8381 21.4378C83.2972 22.1209 83.856 22.227 84.5144 21.7561C84.9036 21.471 85.2101 21.057 85.434 20.5141C86.01 19.0133 86.0161 17.6082 85.4525 16.2989C84.9982 15.2612 84.5724 14.2637 84.175 13.3065C83.8778 12.5984 83.6894 12.1148 83.6098 11.8557C83.3823 11.0458 83.3874 10.3253 83.6251 9.69437C83.8627 9.0634 84.3216 8.55458 85.0017 8.16793C85.8369 7.67831 86.6634 7.45712 87.4811 7.50437C88.4289 7.56934 89.2184 7.98936 89.8497 8.76443C90.481 9.53951 90.7626 10.4381 90.6946 11.4603C90.676 11.9028 90.6289 12.3051 90.5534 12.6672C90.5145 12.8759 90.4511 13.0085 90.3632 13.065C90.2902 13.1278 90.159 13.1377 89.9697 13.0948C89.6561 13.0178 89.2017 12.881 88.6065 12.6843C88.3134 12.5973 88.1619 12.3734 88.1519 12.0125C88.126 11.551 88.0926 11.2084 88.0517 10.9845C87.9553 10.2866 87.6795 9.90668 87.2245 9.84467C87.0295 9.81809 86.8281 9.88266 86.6204 10.0384C86.4276 10.2004 86.2649 10.4222 86.1324 10.7037C85.6731 11.8223 85.8456 12.9843 86.6499 14.1895C87.2412 15.079 87.7487 15.8671 88.1725 16.554C88.8515 17.6309 88.8809 18.7883 88.2607 20.0262C87.517 21.5683 86.8524 22.6653 86.2669 23.3174C85.3697 24.325 84.4084 24.761 83.3832 24.6256C82.107 24.4774 81.1484 23.7133 80.5073 22.3334C80.2385 21.7875 80.0701 21.2467 80.0021 20.711C79.9397 20.159 79.9852 19.6153 80.1384 19.0798C80.2013 18.9 80.263 18.7479 80.3235 18.6235C80.4594 18.381 80.6311 18.3038 80.8386 18.392C81.0701 18.5091 81.6367 18.7875 82.5386 19.2271ZM94.0873 26.1113C93.5796 28.0414 93.3045 29.1036 93.2623 29.2977C93.0743 30.003 93.2873 30.5214 93.9015 30.853C93.9572 30.8867 94.0167 30.9127 94.0801 30.9311C94.1497 30.9732 94.2231 31.0076 94.3004 31.0344L94.4884 31.1482C94.6771 31.2423 94.8076 31.2713 94.88 31.2352C94.9663 31.2075 95.0452 31.0854 95.1167 30.869C95.2799 30.4683 95.4305 30.0201 95.5686 29.5243C96.0668 27.8681 96.5812 26.671 97.1115 25.9331C98.0694 24.5549 98.6324 22.8779 98.8005 20.9021C98.9582 19.0199 99.3503 17.2494 99.9766 15.5908C100.109 15.2515 100.147 14.9945 100.089 14.8196C100.038 14.6294 99.8702 14.4577 99.584 14.3045C99.3751 14.1782 99.0712 14.0243 98.6722 13.8428C98.2872 13.6699 98.0459 13.5539 97.9484 13.4949C97.6407 13.3487 97.3679 13.4234 97.1302 13.719C96.5135 14.4846 96.0133 15.0709 95.6294 15.478C94.9049 16.2782 94.2873 17.1731 93.7766 18.1626C93.1055 19.4745 92.1935 20.7606 91.0406 22.0209C90.2793 22.8587 89.5896 23.68 88.9716 24.4847C88.6879 24.8725 88.2668 25.5366 87.708 26.4771C87.5871 26.6836 87.5392 26.8344 87.5643 26.9295C87.5957 27.0484 87.7051 27.1745 87.8925 27.3078C88.1216 27.4664 88.3691 27.6061 88.6351 27.7271C88.9352 27.8886 89.2181 27.83 89.4837 27.5513C89.6235 27.4161 89.7493 27.2725 89.8612 27.1204C90.5314 26.2474 91.0083 25.617 91.2919 25.2292C91.5004 24.9558 91.72 24.8789 91.9504 24.9983C92.0758 25.0742 92.7881 25.4451 94.0873 26.1113ZM96.9356 18.096C96.6264 20.2461 96.4506 21.4182 96.4083 21.6124C96.3017 22.2271 95.9575 23.0277 95.3759 24.0142C95.2352 23.9691 95.0667 23.9071 94.8704 23.8283C94.688 23.7579 94.5195 23.6959 94.365 23.6424C94.2243 23.5973 94.0521 23.543 93.8481 23.4795C93.6517 23.4007 93.4763 23.3345 93.3217 23.281L93.5355 22.9608C94.7754 21.8531 95.7104 20.521 96.3403 18.9643C96.334 18.9406 96.4938 18.6377 96.8197 18.0558C96.8691 18.0657 96.9078 18.0791 96.9356 18.096ZM106.095 22.7303C106.104 22.7162 106.215 22.4909 106.428 22.0545C105.919 21.5761 105.637 21.3038 105.582 21.2378C105.531 21.1963 105.402 21.0802 105.194 20.8896C104.998 20.7093 104.848 20.5654 104.742 20.4578C104.649 20.3607 104.58 20.272 104.535 20.1919C104.49 20.1118 104.472 20.0209 104.481 19.9192C104.502 19.8279 104.544 19.7207 104.607 19.5975C104.892 19.1114 105.176 18.7006 105.46 18.3651C105.762 18.0014 106.105 17.9753 106.488 18.2868C106.642 18.4115 106.85 18.6021 107.112 18.8588C107.388 19.1258 107.583 19.306 107.698 19.3995C107.932 19.6109 108.346 19.9799 108.941 20.5066C109.559 21.0295 110.035 21.4382 110.371 21.7327C110.81 22.1103 111.154 22.466 111.405 22.7998C111.517 22.9563 111.586 23.0888 111.613 23.1971C111.661 23.3017 111.664 23.4015 111.62 23.4965C111.589 23.6019 111.517 23.7392 111.404 23.9084C111.149 24.2891 110.969 24.5448 110.862 24.6754C110.667 24.9085 110.485 25.0329 110.317 25.0485C110.171 25.0604 109.971 24.9748 109.719 24.7916C109.671 24.7745 109.192 24.4289 108.281 23.7547C107.986 24.1673 107.769 24.6983 107.631 25.3476C107.601 25.5406 107.554 25.8178 107.49 26.1791C107.448 26.5368 107.428 26.7594 107.429 26.847C107.38 27.1557 107.327 27.4277 107.268 27.6629C107.075 28.4844 106.667 29.1101 106.044 29.5399C105.69 29.7745 105.306 29.9954 104.891 30.2025C103.85 30.7275 103.027 31.4727 102.421 32.4383C102.34 32.5897 101.87 33.307 101.013 34.5903C100.891 34.7736 100.809 34.8812 100.768 34.9131C100.491 35.21 100.216 35.2372 99.9441 34.9947C99.7232 34.7936 99.4398 34.5092 99.0937 34.1412C98.8917 33.912 98.8708 33.6775 99.0309 33.4378C99.1406 33.2441 99.2879 32.994 99.473 32.6875C99.658 32.3809 99.8148 32.1167 99.9433 31.8948C100.072 31.6729 100.221 31.435 100.39 31.1812C100.56 30.9274 100.731 30.6858 100.904 30.4565C101.099 30.2234 101.291 30.0096 101.48 29.8152C101.6 29.6949 101.737 29.578 101.892 29.4644C102.047 29.3508 102.177 29.2603 102.281 29.1927C102.395 29.1111 102.551 29.0097 102.75 28.8887C102.972 28.764 103.119 28.6767 103.191 28.627C103.903 28.1823 104.375 27.8152 104.608 27.5257C105.102 26.9045 105.394 26.0978 105.485 25.1057C105.572 24.1766 105.776 23.3848 106.095 22.7303ZM111.468 31.6796C111.096 31.6579 110.711 31.8847 110.311 32.3599C109.922 32.8222 109.746 33.2633 109.783 33.6831C109.82 34.1029 109.984 34.4616 110.276 34.7593C110.578 35.0688 110.921 35.228 111.304 35.2368C111.698 35.2575 112.089 35.0367 112.478 34.5744C112.878 34.0992 113.048 33.6522 112.988 33.2333C112.941 32.8264 112.765 32.4681 112.463 32.1586C112.171 31.8609 111.84 31.7013 111.468 31.6796Z" fill="#603DBD"/>
<path d="M70.2759 74.1837C70.3754 74.1837 70.4732 74.141 70.5489 74.0538L71.6897 72.739L72.6495 73.8434C72.7238 73.9306 72.8231 73.9734 72.9211 73.9734C73.0204 73.9734 73.1184 73.9306 73.1941 73.8434C73.3454 73.6708 73.3454 73.3887 73.1941 73.216L72.2356 72.1116L73.3469 70.8308C73.4967 70.6564 73.4967 70.3761 73.3469 70.2017C73.1956 70.029 72.9523 70.029 72.8008 70.2017L71.4167 71.7968L70.003 73.4264C69.8532 73.599 69.8532 73.8811 70.003 74.0538C70.0786 74.141 70.1781 74.1837 70.2759 74.1837Z" fill="#603DBD"/>
<path d="M69.0869 53.6051C68.8746 53.6051 68.7012 53.8035 68.7012 54.0479V61.2666C68.7012 61.5128 68.8746 61.7109 69.0869 61.7109C69.3004 61.7109 69.4726 61.5128 69.4726 61.2666V54.0479C69.4726 53.8035 69.3004 53.6051 69.0869 53.6051Z" fill="#603DBD"/>
<path d="M63.2403 82.6266C64.6616 82.6266 65.8127 81.2981 65.8127 79.6619C65.8127 78.0239 64.6616 76.6953 63.2403 76.6953C61.8192 76.6953 60.668 78.0239 60.668 79.6619C60.668 81.2981 61.8192 82.6266 63.2403 82.6266Z" fill="#603DBD"/>
<path d="M56.0218 81.0825C55.424 81.0825 54.8959 81.4313 54.5827 81.9613C54.1971 80.8569 53.258 80.0771 52.1632 80.0771C51.9065 80.0771 51.6973 80.3167 51.6973 80.614C51.6973 80.9116 51.9065 81.151 52.1632 81.151C53.0874 81.151 53.8395 82.0178 53.8395 83.0829C53.8395 84.1481 53.0874 85.0149 52.1632 85.0149C51.9065 85.0149 51.6973 85.2542 51.6973 85.5518C51.6973 85.8494 51.9065 86.0887 52.1632 86.0887C53.2565 86.0887 54.1956 85.3107 54.5813 84.208C54.8942 84.7397 55.4225 85.0885 56.0218 85.0885C56.9815 85.0885 57.759 84.1926 57.759 83.0864C57.759 81.9802 56.9815 81.0825 56.0218 81.0825Z" fill="#603DBD"/>
<path d="M40.2496 82.7498C40.619 82.7498 40.9171 82.4044 40.9171 81.9804C40.9171 81.5547 40.619 81.2111 40.2496 81.2111C39.8817 81.2111 39.582 81.5547 39.582 81.9804C39.582 82.4044 39.8817 82.7498 40.2496 82.7498Z" fill="#603DBD"/>
<path d="M38.2486 79.1694C38.3227 79.2344 38.4088 79.2651 38.4949 79.2651C38.618 79.2651 38.7396 79.2019 38.8197 79.0805L39.7484 77.6768C39.885 77.4699 39.8508 77.1758 39.6712 77.0184C39.4917 76.8612 39.2366 76.9007 39.1002 77.1074L38.1714 78.5111C38.035 78.7182 38.0691 79.0122 38.2486 79.1694Z" fill="#603DBD"/>
<path d="M36.7131 78.7026C36.9386 78.7026 37.1211 78.4923 37.1211 78.2341V75.3907C37.1211 75.1309 36.9386 74.9205 36.7131 74.9205C36.4892 74.9205 36.3066 75.1309 36.3066 75.3907V78.2341C36.3066 78.4923 36.4892 78.7026 36.7131 78.7026Z" fill="#603DBD"/>
<path d="M34.5927 79.0805C34.6729 79.2019 34.793 79.2651 34.9162 79.2651C35.0021 79.2651 35.0896 79.2344 35.1625 79.1694C35.342 79.012 35.376 78.718 35.2395 78.5111L34.3109 77.1074C34.1743 76.9007 33.9191 76.8612 33.7398 77.0184C33.5616 77.1758 33.5276 77.4699 33.6626 77.6768L34.5927 79.0805Z" fill="#603DBD"/>
<path d="M95.8533 68.3454C95.6783 68.7404 95.4988 69.1472 95.4661 69.6055C95.4321 70.0705 95.5537 70.5099 95.6708 70.934C95.7746 71.3085 95.8726 71.6641 95.8325 71.9427C95.7909 72.2248 95.5982 72.5258 95.395 72.8439C95.1665 73.2012 94.9291 73.5705 94.8326 74.0183C94.7348 74.4698 94.7925 74.9245 94.8474 75.3658C94.8964 75.7555 94.9439 76.1231 94.8653 76.3932C94.7852 76.6635 94.5553 76.9232 94.3119 77.1985C94.0346 77.5114 93.7482 77.8346 93.591 78.262C93.4321 78.6877 93.4278 79.1494 93.4234 79.5939C93.4204 79.9888 93.4159 80.3615 93.3018 80.6164C93.1889 80.866 92.9278 81.0831 92.6518 81.3123C92.5213 81.42 92.3893 81.5311 92.2633 81.6524L91.0972 80.3086C90.2073 79.283 89.1531 78.517 88.0027 78.0427C87.7608 77.9236 87.5127 77.8345 87.2605 77.7817C86.592 77.585 85.8979 77.4822 85.1898 77.4806C82.5091 77.207 80.1102 75.3041 78.928 72.5156C76.9666 67.8839 74.1909 61.8842 73.7445 60.9165C74.2785 59.9692 74.5887 58.8408 74.5887 57.6287V56.9224C74.5887 54.2946 73.1288 52.0531 71.095 51.2153C70.7002 48.449 69.475 45.9152 67.6295 44.06C66.2185 42.641 64.5127 41.692 62.6938 41.2919C62.7235 41.0713 62.7562 40.8525 62.8243 40.7345C62.8956 40.6115 63.0751 40.4866 63.2501 40.3652C63.5393 40.1636 63.8688 39.936 64.0156 39.5257C64.1611 39.1239 64.069 38.6983 63.9889 38.3238C63.94 38.0912 63.8896 37.8519 63.9148 37.7014C63.9384 37.5612 64.0616 37.3681 64.1817 37.1817C64.3835 36.8654 64.612 36.5081 64.612 36.0583C64.612 35.6103 64.3835 35.253 64.1817 34.9367C64.0616 34.7505 63.94 34.5572 63.9148 34.417C63.8896 34.2648 63.94 34.0254 63.9889 33.7946C64.0438 33.5417 64.1032 33.2663 64.0913 32.9893C64.3094 33.056 64.5437 33.2304 64.79 33.415C65.1209 33.6614 65.4621 33.9177 65.8671 33.9964C66.2779 34.0749 66.6755 33.9622 67.0612 33.8528C67.3877 33.7604 67.6947 33.6714 67.9306 33.7296C68.1723 33.7896 68.4247 34.0169 68.6917 34.2563C69.0033 34.5349 69.3236 34.8238 69.7212 34.9419C70.1233 35.0616 70.5283 34.9881 70.9198 34.9179C71.2522 34.8582 71.5652 34.8033 71.7966 34.8837C72.0325 34.9692 72.267 35.2205 72.5146 35.4874C72.8025 35.795 73.0991 36.1165 73.4848 36.2755C73.875 36.4361 74.2845 36.4054 74.6806 36.3764C75.0158 36.3524 75.3319 36.3284 75.5544 36.4344C75.7844 36.5438 75.9979 36.8192 76.2234 37.1115C76.4831 37.4501 76.753 37.8006 77.124 37.999C77.4993 38.2024 77.9088 38.2179 78.3034 38.2314C78.6401 38.2434 78.9561 38.2554 79.1712 38.3853C79.3908 38.5205 79.5792 38.8196 79.778 39.1359C80.0094 39.5 80.2468 39.878 80.5982 40.1191C80.9529 40.3635 81.3579 40.4252 81.7496 40.4849C82.0833 40.5361 82.3979 40.5858 82.5982 40.7397C82.8059 40.9004 82.9661 41.22 83.1367 41.5603C83.3325 41.9501 83.5341 42.3536 83.8606 42.634C84.1899 42.9196 84.586 43.0325 84.9689 43.1402C85.2952 43.2324 85.6052 43.3196 85.7906 43.501C85.9805 43.6856 86.1095 44.0259 86.2461 44.385C86.4019 44.7968 86.5635 45.2228 86.8572 45.5441C87.1555 45.8689 87.5367 46.0331 87.9046 46.192C88.2207 46.3289 88.5188 46.4571 88.6849 46.6623C88.8557 46.8709 88.9476 47.2282 89.0454 47.6045C89.1566 48.0335 89.271 48.478 89.5276 48.8371C89.7873 49.2012 90.1448 49.4202 90.4904 49.6304C90.79 49.8118 91.0733 49.9844 91.2158 50.2118C91.3597 50.4459 91.4102 50.8135 91.4636 51.2033C91.5245 51.6445 91.5867 52.0993 91.7974 52.496C92.011 52.8943 92.3373 53.1662 92.6534 53.4278C92.9293 53.6569 93.1889 53.8741 93.3018 54.1237C93.4159 54.3785 93.4204 54.7511 93.4234 55.1461C93.4278 55.5906 93.4321 56.0521 93.591 56.4781C93.7497 56.9054 94.0346 57.2285 94.3119 57.5415C94.5553 57.8167 94.7867 58.0767 94.8653 58.3468C94.9439 58.6169 94.8979 58.9845 94.8474 59.3743C94.7925 59.8153 94.7348 60.2703 94.8326 60.7216C94.9306 61.1696 95.1665 61.5389 95.395 61.8962C95.5982 62.2142 95.7909 62.5151 95.8325 62.7972C95.8726 63.076 95.7746 63.4298 95.6708 63.8043C95.5537 64.2301 95.4321 64.6694 95.4661 65.1329C95.4988 65.5909 95.6783 65.9997 95.8533 66.3929C96.0105 66.7468 96.1573 67.0803 96.1573 67.3692C96.1573 67.658 96.0105 67.9933 95.8533 68.3454ZM60.8603 89.4523L60.2505 88.8027L60.2416 88.7924C59.9567 88.4796 59.7416 88.2505 59.5755 88.0811C59.5695 88.076 59.5651 88.071 59.5591 88.0641L59.037 87.5084C58.6912 87.1408 58.19 87.0826 57.7878 87.363C57.3859 87.6418 57.1973 88.182 57.3191 88.7052L57.5832 89.8371L57.684 90.2731H48.86V87.8657C48.86 85.3473 47.0827 83.2989 44.8976 83.2989H42.8236V80.1719C42.8236 79.912 42.6411 79.7016 42.4171 79.7016H41.481C41.5226 79.5665 41.5671 79.4315 41.6146 79.2981C41.8357 78.6825 41.9469 78.033 41.9469 77.3679V74.5057C43.0417 75.6239 44.4065 76.4017 45.9122 76.6923C46.3425 76.7762 46.7861 76.819 47.2386 76.819C49.492 76.819 51.6149 75.7368 53.1296 73.8356C54.2705 75.2648 55.7954 76.2788 57.5149 76.6548C58 76.7625 58.5013 76.819 59.0147 76.819C61.9179 76.819 64.4637 75.0272 65.8656 72.3514C66.4887 71.1596 66.8863 69.7918 66.9841 68.3284C66.9871 68.3317 66.9886 68.3334 66.9914 68.3369C67.4426 68.8516 67.6472 69.0807 67.7452 69.1867C67.6191 69.6517 67.5508 70.1459 67.5508 70.6571C67.5508 70.9015 67.7229 71.1016 67.9366 71.1016C68.1487 71.1016 68.3223 70.9015 68.3223 70.6571C68.3223 70.1441 68.4054 69.6517 68.5582 69.2002C69.0655 67.6872 70.3414 66.6118 71.8308 66.6118C73.7668 66.6118 75.3408 68.4258 75.3408 70.6571V74.5142C75.3408 76.7455 73.7668 78.5595 71.8308 78.5595C71.4911 78.5595 71.1633 78.5031 70.8517 78.3988C69.3918 77.9099 68.3223 76.354 68.3223 74.5142C68.3223 74.2696 68.1487 74.0697 67.9366 74.0697C67.7229 74.0697 67.5508 74.2696 67.5508 74.5142C67.5508 76.6086 68.6902 78.4039 70.2909 79.1168C70.2523 81.6423 69.4764 84.0992 68.0984 86.0602C66.7022 88.0453 64.7499 89.4438 62.6003 89.9995C61.9818 90.1584 61.3305 89.9533 60.8603 89.4523V89.4523ZM32.6289 95.4553H23.0751C20.1511 95.4553 17.7716 92.7128 17.7716 89.3429C17.7716 85.973 20.1511 83.2322 23.0751 83.2322H23.8747H31.049V83.5246C29.2821 84.1624 27.9989 86.0637 27.9989 88.3069C27.9989 91.0682 29.9483 93.3147 32.3455 93.3147H34.7474C34.6108 94.5218 33.7135 95.4553 32.6289 95.4553V95.4553ZM22.6968 80.6334C22.5782 80.3701 22.5752 79.994 22.5707 79.5939C22.5663 79.1529 22.5618 78.6962 22.4074 78.2774C22.2517 77.8567 21.9684 77.5371 21.6939 77.2275C21.4461 76.9489 21.2133 76.6838 21.1317 76.4069C21.0502 76.1266 21.0975 75.7538 21.1465 75.3588C21.2029 74.9228 21.2592 74.4715 21.1628 74.0287C21.068 73.5875 20.8336 73.2217 20.6066 72.8677C20.4004 72.5446 20.206 72.242 20.1631 71.9496C20.1214 71.6606 20.2208 71.3017 20.3261 70.922C20.4419 70.5014 20.562 70.0654 20.5295 69.6089C20.4967 69.1592 20.3187 68.7559 20.1453 68.3643C19.9864 68.0068 19.8366 67.6685 19.8366 67.3692C19.8366 67.0699 19.9864 66.7332 20.1453 66.374C20.3187 65.9842 20.4967 65.5807 20.5295 65.1294C20.562 64.6746 20.4419 64.2386 20.3261 63.8179C20.2208 63.4366 20.1214 63.0793 20.1631 62.7904C20.206 62.4981 20.4004 62.1937 20.6066 61.8707C20.8336 61.5166 21.068 61.1508 21.1628 60.7096C21.2592 60.2685 21.2029 59.8173 21.148 59.3793C21.0975 58.9845 21.0502 58.6117 21.1317 58.3331C21.2133 58.0543 21.4476 57.7911 21.6939 57.5106C21.9684 57.2012 22.2517 56.8814 22.4074 56.4609C22.5633 56.0421 22.5663 55.5854 22.5707 55.1444C22.5752 54.7443 22.5782 54.3681 22.6968 54.1049C22.8141 53.8449 23.078 53.6262 23.357 53.3936C23.67 53.1337 23.9935 52.8651 24.2027 52.4738C24.4102 52.0856 24.4726 51.6325 24.532 51.1948C24.5853 50.8015 24.6372 50.4287 24.7872 50.1878C24.934 49.9519 25.2203 49.7775 25.5228 49.5929C25.8656 49.3843 26.2202 49.1687 26.4767 48.8114C26.7275 48.4575 26.8418 48.018 26.9515 47.5925C27.051 47.211 27.1444 46.8504 27.3194 46.6333C27.4916 46.4212 27.7942 46.2912 28.1146 46.1528C28.478 45.9954 28.8548 45.833 29.1486 45.5134C29.438 45.1988 29.5982 44.7765 29.7524 44.3678C29.8903 44.0035 30.021 43.6599 30.2182 43.4685C30.4097 43.2821 30.7225 43.1932 31.0535 43.1009C31.4332 42.993 31.8249 42.8821 32.1497 42.6015C32.4687 42.3246 32.669 41.9261 32.8634 41.5398C33.0354 41.196 33.1986 40.8714 33.4122 40.7055C33.6199 40.5466 33.939 40.4969 34.2772 40.4457C34.6644 40.3857 35.0663 40.3242 35.4149 40.0831C35.759 39.8472 35.9951 39.4727 36.2234 39.1119C36.4252 38.7906 36.6167 38.488 36.8436 38.3493C37.0646 38.2144 37.385 38.2024 37.7263 38.1904C38.1178 38.1767 38.523 38.1614 38.8924 37.963C39.2558 37.7664 39.5229 37.4193 39.781 37.0843C40.0094 36.7884 40.2246 36.5098 40.4618 36.3969C40.6934 36.2875 41.0123 36.3114 41.352 36.3354C41.7436 36.3644 42.1486 36.3951 42.5329 36.2362C42.9112 36.0806 43.2065 35.7625 43.4912 35.4564C43.742 35.1863 43.9779 34.9317 44.224 34.8462C44.4629 34.7606 44.7789 34.8188 45.1141 34.8787C45.5029 34.9487 45.9048 35.0206 46.2996 34.9025C46.6896 34.7863 47.0087 34.5009 47.3157 34.2238C47.5858 33.981 47.8408 33.7519 48.0917 33.6904C48.3364 33.6306 48.648 33.7194 48.9773 33.8133C49.1642 33.8665 49.3541 33.921 49.5484 33.952C49.5854 34.1299 49.6108 34.299 49.59 34.417C49.5661 34.5572 49.443 34.7505 49.3244 34.9367C49.1226 35.253 48.8927 35.6103 48.8927 36.0583C48.8927 36.5081 49.1226 36.8654 49.3244 37.1817C49.443 37.3681 49.5661 37.5612 49.59 37.7014C49.6166 37.8519 49.5661 38.0912 49.5158 38.3238C49.4356 38.6983 49.3452 39.1239 49.4906 39.5257C49.6374 39.936 49.9653 40.1636 50.256 40.3652C50.4296 40.4866 50.6106 40.6115 50.6818 40.7345C50.7544 40.8594 50.7856 41.0988 50.8168 41.3312C49.0603 41.7502 47.4166 42.6837 46.0488 44.06C44.1544 45.9647 42.9127 48.5857 42.5535 51.4376C42.5522 51.4496 42.5507 51.4616 42.5507 51.4719C40.7972 52.4566 39.5866 54.5305 39.5866 56.9224V57.6287C39.5866 59.1931 40.0998 60.6721 41.0359 61.8022C39.9159 63.3871 39.2454 65.4063 39.2454 67.605C39.2454 69.8483 39.9441 71.9086 41.1057 73.5071V77.3679C41.1057 77.9064 41.0151 78.4313 40.8371 78.9288C40.7452 79.1819 40.6652 79.4418 40.5954 79.7016H37.9548H31.4569C31.2316 79.7016 31.049 79.912 31.049 80.1719V82.3432H24.2352C24.2278 82.3157 24.2159 82.2902 24.2027 82.2645C23.9935 81.873 23.67 81.6046 23.357 81.3447C23.078 81.1121 22.8141 80.8933 22.6968 80.6334ZM69.3324 50.8649H44.8427C44.3369 50.8649 43.8458 50.9487 43.383 51.1043C44.1409 46.4776 47.381 42.8991 51.3434 42.1228C51.8701 42.0186 52.4101 41.9656 52.9575 41.9656H60.7222C61.2163 41.9656 61.7028 42.0083 62.1791 42.0938C66.1712 42.7964 69.4601 46.3427 70.2716 50.9606C69.9674 50.8974 69.653 50.8649 69.3324 50.8649V50.8649ZM72.933 60.708C72.1142 61.9749 70.8056 62.7972 69.3324 62.7972H66.0154C65.9575 62.7972 65.9026 62.8127 65.8537 62.8384C65.5154 62.1955 65.1105 61.6056 64.6506 61.0773C64.7261 61.0566 64.8019 61.0344 64.8776 61.0104C66.14 60.6106 66.9055 59.1297 66.5836 57.7125C66.4234 57.0046 66.0317 56.4147 65.4814 56.0521C64.9309 55.6898 64.2929 55.5991 63.6833 55.7992C63.6774 55.801 63.6714 55.8025 63.6655 55.8043V54.0467C63.6655 53.8023 63.492 53.6039 63.2798 53.6039C63.0661 53.6039 62.8941 53.8023 62.8941 54.0467V55.9959C60.9047 56.3429 59.2684 55.5052 58.4154 54.9255C58.2358 54.8025 58.0489 54.6981 57.859 54.6127V54.0467C57.859 53.8023 57.6855 53.6039 57.4734 53.6039C57.2597 53.6039 57.0876 53.8023 57.0876 54.0467V54.3665C57.049 54.3596 57.0089 54.3528 56.969 54.346C56.2197 54.2296 55.4839 54.5597 54.9974 55.2248C54.5122 55.8899 54.3565 56.7822 54.5833 57.6115C54.7659 58.2819 55.1294 58.8613 55.6159 59.2683C54.6709 59.7813 53.8282 60.5011 53.1296 61.3764C53.0659 61.2962 52.9991 61.2158 52.9324 61.1371C53.0243 60.8482 53.0748 60.5369 53.0748 60.2121C53.0748 59.2871 52.6681 58.4698 52.0511 57.9843V54.0467C52.0511 53.8023 51.879 53.6039 51.6654 53.6039C51.4532 53.6039 51.2797 53.8023 51.2797 54.0467V57.591C51.1045 57.5415 50.9222 57.5158 50.7351 57.5158H46.2446V54.0467C46.2446 53.8023 46.0724 53.6039 45.8589 53.6039C45.6468 53.6039 45.4732 53.8023 45.4732 54.0467V57.5158H44.2522C42.9631 57.5158 41.9142 58.7246 41.9142 60.2121C41.9142 60.378 41.9276 60.5421 41.9528 60.6993C41.8149 60.8413 41.6813 60.9866 41.5537 61.1371C40.7808 60.1796 40.358 58.94 40.358 57.6287V56.9224C40.358 54.7511 41.527 52.8876 43.1766 52.125C43.6915 51.8856 44.2537 51.754 44.8427 51.754H69.3324C69.7836 51.754 70.2182 51.8309 70.6291 51.9746C72.4717 52.6173 73.8171 54.5922 73.8171 56.9224V57.6287C73.8171 58.7811 73.4878 59.8461 72.933 60.708V60.708ZM63.894 56.654C64.302 56.5189 64.7306 56.5806 65.0985 56.8234C65.468 57.0663 65.7305 57.4611 65.8374 57.9365C66.054 58.8871 65.5302 59.8822 64.6729 60.1539C64.4295 60.2308 64.1847 60.2975 63.9384 60.3523C63.5677 60.4379 63.1952 60.4977 62.82 60.5319C62.5455 60.5592 62.2695 60.5729 61.9935 60.5729C60.2149 60.5729 58.6735 60.0274 57.5446 59.453C57.1455 59.2511 56.7983 59.0444 56.5089 58.8563C56.4022 58.7896 56.3043 58.7229 56.2138 58.6597C55.7865 58.3621 55.4691 57.8954 55.3193 57.3466C55.1724 56.808 55.2734 56.2285 55.5877 55.7958C55.8607 55.4232 56.257 55.2128 56.6782 55.2128C56.7435 55.2128 56.8103 55.2178 56.8755 55.2281C56.9466 55.2383 57.0179 55.2538 57.0876 55.2708C57.3547 55.3342 57.6113 55.4385 57.859 55.5871C57.9138 55.6179 57.9688 55.6523 58.0237 55.6898C58.9523 56.3242 60.7252 57.2302 62.8941 56.8934L63.894 56.654ZM51.2797 58.5178C51.5986 58.6545 51.8686 58.9058 52.0511 59.2306C52.2113 59.5127 52.3032 59.8513 52.3032 60.2121C52.3032 60.2958 52.2989 60.3797 52.2885 60.4617C52.2499 60.7815 52.1387 61.0739 51.9739 61.3165C51.6877 61.7423 51.2381 62.0176 50.7351 62.0176H44.2522C43.6351 62.0176 43.0996 61.6038 42.8444 61.0037C42.7419 60.7643 42.6842 60.4959 42.6842 60.2121C42.6842 60.1521 42.6871 60.0924 42.6916 60.0325C42.7701 59.1197 43.4407 58.4048 44.2522 58.4048H45.4732H46.2446H46.8275H47.6466L51.2797 58.5178ZM44.0371 74.3946C44.1069 74.7109 44.227 74.9997 44.3857 75.2528C43.4097 74.7691 42.5448 74.0423 41.8474 73.1395C41.6931 72.9396 41.5463 72.7327 41.4099 72.5156H44.2493C43.9837 73.0815 43.8933 73.7432 44.0371 74.3946ZM42.0091 83.275H38.3611V80.6402H42.0091V83.275ZM31.8635 80.6402H37.5467V83.275H31.8635V80.6402ZM31.9258 84.2137H34.3943C33.2788 85.1182 32.5488 86.6159 32.5488 88.3069C32.5488 90.015 33.2951 91.5247 34.43 92.4274H32.3455C30.3739 92.4274 28.7703 90.5774 28.7703 88.3052C28.7703 86.1971 30.1515 84.453 31.9258 84.2137V84.2137ZM48.0886 90.7586V92.4274C48.0886 93.4856 47.4046 94.4004 46.4997 94.5543C46.4984 94.5543 46.4969 94.5543 46.4954 94.556C46.6437 94.0378 46.7312 93.3899 46.7312 92.5829V88.5788C46.7312 87.1561 45.9568 85.8601 44.8041 85.3523C44.6053 85.2651 44.3829 85.3798 44.3072 85.6089C44.23 85.838 44.3309 86.0961 44.5297 86.1833C45.3856 86.5594 45.9599 87.5221 45.9599 88.5788V92.5829C45.9599 93.7165 45.7699 94.4261 45.5102 94.8688C45.0771 95.6074 44.4481 95.6074 44.1721 95.6074H43.0328C43.7895 94.8876 44.2716 93.8002 44.2716 92.5863V90.5687C44.2716 89.3361 43.4021 88.3342 42.3326 88.3342C42.119 88.3342 41.9469 88.5326 41.9469 88.7787C41.9469 89.0233 42.119 89.2232 42.3326 89.2232C42.9765 89.2232 43.5001 89.8268 43.5001 90.5687V92.5863C43.5001 94.1507 42.4661 95.44 41.1443 95.5957C41.0552 95.6057 40.9663 95.6109 40.8757 95.6109H38.3582C37.8212 95.6109 37.3835 95.1065 37.3835 94.4876C37.3835 93.8686 37.8212 93.3642 38.3582 93.3642C38.422 93.3642 38.4829 93.3454 38.5362 93.3147H40.6502C40.8625 93.3147 41.0359 93.1163 41.0359 92.8719V91.5861C41.0359 91.34 40.8625 91.1416 40.6502 91.1416C40.4367 91.1416 40.2645 91.34 40.2645 91.5861V92.4274H36.8955C34.9239 92.4274 33.3202 90.5774 33.3202 88.3052C33.3202 86.1971 34.6999 84.4548 36.4742 84.2137H42.4171C42.4631 84.2137 42.5076 84.2052 42.5492 84.1882H44.8976C46.6571 84.1882 48.0886 85.838 48.0886 87.8657V90.7586ZM48.86 91.3837V91.2443C48.86 91.2443 48.862 91.2955 48.86 91.3837ZM45.0177 70.6246L45.9657 71.6281H44.6469L43.0773 69.9697C42.9199 69.8038 42.6752 69.8158 42.5314 69.997C42.3875 70.1782 42.3979 70.4587 42.5552 70.6246L43.5046 71.6281H40.9262H40.9173C40.3417 70.4347 40.0154 69.0635 40.0154 67.605C40.0154 65.2456 40.8729 63.11 42.248 61.5936C42.6545 62.3799 43.4008 62.9066 44.2522 62.9066H50.7351C51.4562 62.9066 52.1001 62.5306 52.5302 61.9389C52.5644 61.9816 52.5985 62.0246 52.6312 62.0671C51.6194 63.6095 51.02 65.5277 51.02 67.605C51.02 69.0463 51.3094 70.4125 51.8226 71.6281H49.5692L47.9995 69.9697C47.8423 69.8038 47.5991 69.8158 47.4551 69.997C47.3112 70.1782 47.3216 70.4587 47.479 70.6246L48.4284 71.6281H47.108L45.5384 69.9697C45.3812 69.8038 45.138 69.8158 44.994 69.997C44.8501 70.1782 44.8605 70.4587 45.0177 70.6246V70.6246ZM47.5159 74.8698L47.3409 74.6834C46.9404 74.2611 47.108 73.4953 47.6331 73.3414L47.9625 73.2457C48.2725 73.1532 48.4639 72.8439 48.4773 72.5156H49.3155H52.2529C52.37 72.731 52.4962 72.9413 52.6312 73.1447C51.3419 74.8134 49.5395 75.8085 47.6065 75.9197C47.8024 75.6119 47.786 75.1554 47.5159 74.8698ZM55.7434 74.3946C55.8089 74.6904 55.9171 74.9622 56.061 75.2033C55.0388 74.6734 54.1428 73.8781 53.4382 72.8934C53.3506 72.7702 53.266 72.6438 53.186 72.5156H55.9557C55.6903 73.0815 55.5997 73.7432 55.7434 74.3946V74.3946ZM61.4314 71.6281L59.8617 69.9697C59.7061 69.8038 59.4613 69.8158 59.3173 69.997C59.1734 70.1782 59.1838 70.4587 59.341 70.6246L60.2906 71.6281H58.9702L57.4006 69.9697C57.2434 69.8038 57.0002 69.8158 56.8562 69.997C56.7123 70.1782 56.7227 70.4587 56.8799 70.6246L57.8294 71.6281H56.5089L54.9395 69.9697C54.7823 69.8038 54.5389 69.8158 54.3951 69.997C54.2512 70.1782 54.2616 70.4587 54.4188 70.6246L55.3683 71.6281H52.6935C52.1179 70.4347 51.7914 69.0635 51.7914 67.605C51.7914 65.6149 52.4012 63.7856 53.4159 62.3511C54.2096 61.231 55.2495 60.3523 56.4408 59.8258C57.6618 60.5661 59.6289 61.4619 61.9935 61.4619C62.5722 61.4619 63.1523 61.4072 63.7249 61.2995C64.8434 62.4091 65.6637 63.9086 66.0273 65.6114C66.1652 66.251 66.238 66.9177 66.238 67.605C66.238 69.0635 65.9115 70.4347 65.3359 71.6281H61.4314ZM59.2224 74.8698L59.0472 74.6834C58.6468 74.2611 58.8144 73.4953 59.3397 73.3414L59.669 73.2457C59.979 73.1532 60.1704 72.8439 60.1837 72.5156H61.1792H64.8434C63.584 74.4988 61.5797 75.8188 59.31 75.9247C59.5103 75.6169 59.4953 75.1571 59.2224 74.8698ZM49.946 35.4634C50.1062 35.2103 50.2902 34.9247 50.3466 34.5896C50.406 34.2443 50.3317 33.892 50.2649 33.5827C50.2516 33.5227 50.2397 33.4612 50.2263 33.4013C50.1907 33.2134 50.1671 33.032 50.2026 32.9313C50.253 32.7928 50.4563 32.6509 50.6536 32.514C50.8895 32.3499 51.155 32.1652 51.3226 31.8781C51.4902 31.589 51.5379 31.2317 51.5793 30.9171C51.612 30.6693 51.6506 30.3872 51.7411 30.2828C51.8315 30.1785 52.0764 30.1341 52.2913 30.0964C52.5644 30.0486 52.8745 29.9939 53.1251 29.8005C53.3744 29.6074 53.5346 29.3013 53.6771 29.0296C53.7957 28.8021 53.9188 28.5679 54.0389 28.5097C54.1547 28.4535 54.3936 28.5217 54.6041 28.5817C54.8727 28.6586 55.1784 28.7441 55.478 28.6756C55.7688 28.6107 56.0166 28.3986 56.2362 28.2139C56.4231 28.0532 56.6173 27.8891 56.7524 27.8891C56.8888 27.8891 57.0817 28.0532 57.2701 28.2139C57.4897 28.3986 57.7373 28.6107 58.0282 28.6756C58.3279 28.7441 58.632 28.6586 58.902 28.5817C59.1127 28.5217 59.3514 28.4535 59.4656 28.5097C59.5874 28.5679 59.7104 28.8021 59.8292 29.0296C59.9716 29.3013 60.1318 29.6074 60.381 29.8005C60.6318 29.9939 60.9418 30.0486 61.2133 30.0964C61.4298 30.1341 61.6746 30.1785 61.7652 30.2828C61.8556 30.3872 61.8927 30.6693 61.9268 30.9171C61.9684 31.2317 62.0159 31.589 62.1835 31.8781C62.3495 32.1652 62.6166 32.3499 62.8512 32.514C63.001 32.6165 63.1523 32.7226 63.2397 32.8269C63.2681 32.8628 63.2917 32.897 63.3034 32.9313C63.3511 33.0645 63.2931 33.3398 63.2412 33.5827C63.1744 33.892 63.0988 34.2443 63.1582 34.5896C63.216 34.9247 63.3984 35.2103 63.5601 35.4634C63.6982 35.6788 63.842 35.9027 63.842 36.0583C63.842 36.2157 63.6982 36.4396 63.5601 36.655C63.3984 36.9081 63.216 37.1937 63.1582 37.5288C63.0988 37.8741 63.1744 38.2246 63.2412 38.5357C63.2931 38.7786 63.3511 39.0539 63.3034 39.1856C63.2531 39.3258 63.0483 39.4677 62.8512 39.6044C62.6166 39.7685 62.3495 39.9532 62.1835 40.2405C62.0232 40.5156 61.9727 40.8542 61.9328 41.1568C61.5337 41.1038 61.1287 41.0766 60.7222 41.0766H52.9575C52.4931 41.0766 52.0318 41.1123 51.5763 41.1825C51.5362 40.8747 51.4874 40.5242 51.3226 40.2405C51.155 39.9532 50.8895 39.7668 50.6536 39.6044C50.4563 39.4677 50.253 39.3258 50.2026 39.1856C50.1537 39.0539 50.213 38.7786 50.2649 38.5357C50.3317 38.2246 50.406 37.8741 50.3466 37.5288C50.2902 37.1937 50.1062 36.9081 49.946 36.655C49.8065 36.4379 49.6641 36.2157 49.6641 36.0583C49.6641 35.9027 49.8065 35.6788 49.946 35.4634V35.4634ZM96.3043 69.6859C96.3236 69.4173 96.4601 69.1114 96.6041 68.7866C96.7895 68.3676 97 67.8924 97 67.3692C97 66.8477 96.7895 66.3722 96.6041 65.9517C96.4601 65.6269 96.3236 65.3208 96.3043 65.0542C96.285 64.7806 96.3771 64.449 96.4734 64.0984C96.6024 63.6317 96.7359 63.1477 96.6618 62.6383C96.5891 62.1253 96.3147 61.698 96.0729 61.32C95.8845 61.0259 95.7065 60.7473 95.6486 60.4857C95.5921 60.2206 95.6352 59.8788 95.6812 59.5145C95.7391 59.0512 95.8058 58.5263 95.6619 58.0355C95.5195 57.5466 95.1901 57.1755 94.9009 56.8491C94.6724 56.5908 94.4573 56.348 94.3652 56.0966C94.272 55.8487 94.2689 55.5017 94.2659 55.1341C94.2616 54.6674 94.2555 54.1357 94.0493 53.6774C93.8447 53.2209 93.4887 52.9268 93.1444 52.6412C92.8849 52.4259 92.6401 52.2207 92.5139 51.9866C92.3923 51.7574 92.3448 51.4137 92.2959 51.0513C92.2321 50.5913 92.1608 50.0681 91.8998 49.6474C91.6416 49.2319 91.2559 48.9977 90.8834 48.7721C90.5987 48.5977 90.3301 48.4353 90.1773 48.2214C90.029 48.013 89.9431 47.6797 89.8525 47.3274C89.7368 46.8811 89.6062 46.3751 89.3006 45.9989C88.9994 45.6278 88.5931 45.4534 88.1999 45.2843C87.8972 45.1526 87.6108 45.0294 87.4359 44.8397C87.2667 44.6534 87.1451 44.3353 87.0174 43.9967C86.8559 43.571 86.6734 43.089 86.3321 42.7572C85.9969 42.4323 85.5755 42.3126 85.169 42.1982C84.8544 42.1092 84.5578 42.0255 84.3649 41.8579C84.178 41.6955 84.0267 41.3944 83.8651 41.0748C83.6648 40.673 83.4363 40.2183 83.0669 39.9344C82.7035 39.6539 82.2747 39.5874 81.8608 39.5241C81.5389 39.4745 81.2362 39.4282 81.0286 39.2863C80.8267 39.1461 80.6487 38.864 80.4603 38.5649C80.2245 38.1921 79.956 37.7681 79.5643 37.5288C79.1786 37.2927 78.7469 37.2774 78.33 37.2619C78.0051 37.2501 77.6996 37.2382 77.48 37.12C77.2679 37.0056 77.0661 36.744 76.8525 36.4669C76.587 36.1216 76.2843 35.7318 75.8748 35.5369C75.4713 35.3454 75.0427 35.3779 74.6273 35.4087C74.3023 35.4326 73.9951 35.4549 73.7682 35.3607C73.5472 35.2702 73.3246 35.0309 73.0889 34.7778C72.7965 34.4632 72.4658 34.1059 72.0429 33.9572C71.6275 33.8101 71.2019 33.8853 70.7908 33.9605C70.4689 34.0169 70.1662 34.0717 69.9319 34.0015C69.7034 33.9348 69.4646 33.7194 69.2095 33.4902C68.8949 33.2081 68.5374 32.8868 68.1056 32.7808C67.68 32.6764 67.2631 32.7961 66.8596 32.9106C66.5435 32.9995 66.2454 33.085 66.0065 33.039C65.7736 32.9945 65.5185 32.8029 65.2484 32.6012C64.9132 32.3499 64.5349 32.066 64.0972 32.0045C63.9712 31.9858 63.842 31.9858 63.7012 32.0045C63.67 32.0078 63.6418 32.0165 63.6136 32.0268C63.4964 31.9226 63.3702 31.8352 63.2501 31.7514C63.0751 31.6318 62.8956 31.5071 62.8243 31.3839C62.7517 31.259 62.7191 31.0163 62.6879 30.7837C62.6374 30.3992 62.5795 29.9649 62.3111 29.6536C62.0412 29.3442 61.6642 29.2775 61.3305 29.2176C61.1272 29.1816 60.918 29.1458 60.8098 29.0621C60.7029 28.98 60.5945 28.7713 60.4894 28.5714C60.3142 28.2363 60.1169 27.8583 59.7609 27.6891C59.4123 27.5215 59.0429 27.6257 58.7179 27.7181C58.5163 27.7763 58.3086 27.8344 58.178 27.8036C58.0564 27.7764 57.8888 27.6344 57.7271 27.4975C57.4525 27.2651 57.1424 27 56.7524 27C56.3637 27 56.0521 27.2651 55.7792 27.4975C55.6174 27.6344 55.4498 27.7764 55.3282 27.8036C55.1962 27.8344 54.9885 27.7763 54.7882 27.7181C54.4632 27.6257 54.0938 27.5215 53.7438 27.6891C53.3892 27.8583 53.1904 28.2363 53.0154 28.5714C52.9116 28.7713 52.8032 28.98 52.6965 29.0621C52.5881 29.1458 52.3776 29.1816 52.1757 29.2176C51.8419 29.2775 51.4651 29.3442 51.1951 29.6536C50.9266 29.9649 50.8687 30.3992 50.8168 30.7837C50.7856 31.0163 50.7544 31.2574 50.6818 31.3839C50.6106 31.5071 50.4296 31.6318 50.256 31.7514C49.9653 31.9533 49.6374 32.1822 49.4906 32.591C49.4401 32.7329 49.4178 32.8766 49.4148 33.0185C49.3333 32.998 49.2472 32.974 49.1612 32.95C48.7622 32.8354 48.3497 32.7192 47.9314 32.8218C47.5072 32.9243 47.1689 33.2286 46.8425 33.5227C46.5843 33.7536 46.3425 33.9707 46.1066 34.0425C45.8662 34.1144 45.5592 34.0579 45.2329 33.9997C44.8264 33.9263 44.4052 33.851 43.997 33.9964C43.5818 34.1434 43.2687 34.4802 42.9646 34.8068C42.7272 35.0633 42.5017 35.306 42.2732 35.4002C42.0388 35.4959 41.7288 35.4736 41.401 35.4497C40.99 35.4189 40.5642 35.3882 40.1681 35.5746C39.7661 35.766 39.4812 36.1353 39.2039 36.4943C38.9887 36.7747 38.784 37.0398 38.5646 37.1577C38.3389 37.2792 38.0289 37.2894 37.7011 37.3014C37.2887 37.3167 36.8614 37.3339 36.4831 37.5647C36.0974 37.7989 35.8453 38.2007 35.599 38.5889C35.4089 38.8915 35.2281 39.1769 35.0204 39.3205C34.8068 39.4659 34.4996 39.5137 34.1748 39.5634C33.7638 39.6266 33.341 39.6916 32.9835 39.9669C32.62 40.2473 32.4049 40.6781 32.1957 41.0953C32.034 41.4184 31.8798 41.7227 31.6869 41.8904C31.4881 42.0613 31.1884 42.1467 30.8695 42.2374C30.4674 42.3503 30.0506 42.4683 29.7213 42.7879C29.386 43.1129 29.2138 43.571 29.0462 44.0122C28.9157 44.354 28.7941 44.6771 28.6189 44.8687C28.4396 45.0636 28.1502 45.1884 27.8447 45.3202C27.4545 45.4894 27.051 45.6621 26.7572 46.0261C26.4561 46.3956 26.3328 46.8759 26.2128 47.3394C26.1207 47.695 26.0332 48.0318 25.8805 48.2472C25.7231 48.466 25.4517 48.6319 25.164 48.8063C24.7944 49.032 24.4117 49.2628 24.1596 49.6698C23.9029 50.0834 23.8361 50.5776 23.7709 51.0581C23.7205 51.4239 23.6729 51.771 23.5469 52.0071C23.4177 52.2482 23.1686 52.4549 22.906 52.6737C22.5663 52.9558 22.2147 53.2482 22.0128 53.6946C21.8097 54.1459 21.8053 54.6486 21.8008 55.1341C21.7962 55.5052 21.7934 55.8557 21.6984 56.1121C21.602 56.3702 21.3854 56.6165 21.1539 56.8764C20.8527 57.2165 20.5427 57.5671 20.4018 58.0475C20.2609 58.5297 20.3233 59.0272 20.384 59.5077C20.4315 59.8753 20.4744 60.2223 20.4152 60.4942C20.3573 60.7643 20.1763 61.0464 19.9864 61.344C19.7342 61.7355 19.4745 62.1423 19.4019 62.6452C19.3308 63.1444 19.4628 63.623 19.5903 64.0864C19.6883 64.4403 19.7802 64.7756 19.7609 65.0577C19.7416 65.3328 19.6037 65.6423 19.4583 65.9705C19.2653 66.4067 19.0652 66.8562 19.0652 67.3692C19.0652 67.8821 19.2653 68.3334 19.4583 68.7677C19.6037 69.096 19.7416 69.4073 19.7609 69.6824C19.7802 69.9628 19.6883 70.298 19.5903 70.6519C19.4628 71.1151 19.3308 71.5939 19.4019 72.0931C19.4745 72.5976 19.7342 73.0028 19.9864 73.3961C20.1763 73.6935 20.3573 73.9738 20.4152 74.2441C20.4744 74.516 20.43 74.863 20.384 75.2306C20.3233 75.7111 20.2609 76.2086 20.4018 76.6908C20.5412 77.1711 20.8527 77.5216 21.1539 77.8619C21.3839 78.1218 21.602 78.3679 21.6984 78.6262C21.7934 78.8826 21.7962 79.2332 21.7993 79.6042C21.8038 80.0897 21.8097 80.5924 22.0128 81.0437C22.2131 81.4899 22.5663 81.7825 22.906 82.0646C23.0188 82.1586 23.1285 82.2508 23.228 82.3432H23.0751C19.7254 82.3432 17 85.484 17 89.3429C17 93.2035 19.7254 96.3445 23.0751 96.3445H32.6289C33.4464 96.3445 34.1881 95.953 34.7162 95.3236C34.7177 95.3253 34.7177 95.3253 34.7192 95.3253C34.835 95.3596 34.9269 95.4023 35.0011 95.4535C35.2042 95.592 35.3824 95.8743 35.5708 96.1734C35.8067 96.5479 36.0736 96.9719 36.4653 97.2113C36.8525 97.4454 37.2827 97.4626 37.6996 97.4779C37.9069 97.4857 38.1066 97.4928 38.2809 97.5276L38.8427 97.8613C38.9536 97.9804 39.0645 98.1233 39.1786 98.2712C39.4442 98.6168 39.7453 99.0081 40.1548 99.2014C40.5583 99.3929 40.9885 99.3621 41.4038 99.3314C41.7273 99.3074 42.0345 99.2852 42.2615 99.3776C42.4839 99.4698 42.705 99.7092 42.9407 99.9623C43.2332 100.277 43.5638 100.632 43.9868 100.781C44.4037 100.93 44.8279 100.853 45.2388 100.78C45.5607 100.721 45.8649 100.667 46.0978 100.737C46.3263 100.805 46.5665 101.021 46.8203 101.248C47.1347 101.532 47.4922 101.852 47.9241 101.957C48.3497 102.062 48.7666 101.944 49.17 101.829C49.4861 101.739 49.7857 101.653 50.0231 101.699C50.1287 101.748 50.2323 101.79 50.3355 101.829C50.4785 101.912 50.6273 102.023 50.7811 102.139C51.1165 102.388 51.4963 102.672 51.9338 102.736C52.3656 102.797 52.7721 102.638 53.1652 102.484C53.4737 102.364 53.7646 102.25 54.0049 102.272C54.2408 102.294 54.5094 102.46 54.7927 102.636C55.1442 102.853 55.5433 103.1 55.9838 103.12C56.417 103.141 56.8118 102.944 57.1914 102.753C57.491 102.604 57.7731 102.462 58.0148 102.462C58.2566 102.462 58.5399 102.604 58.8382 102.753C59.2001 102.934 59.574 103.122 59.9834 103.122C60.0042 103.122 60.025 103.122 60.0458 103.12C60.1362 103.117 60.2312 103.098 60.338 103.064C60.786 102.918 61.1539 102.577 61.3765 102.099C61.602 101.614 61.6464 101.034 61.4981 100.509L58.3931 89.5328C58.3857 89.507 58.3769 89.4831 58.3664 89.4593L58.1321 88.4521C58.0979 88.3052 58.175 88.2265 58.2225 88.1923C58.2715 88.1598 58.368 88.117 58.4658 88.2213L58.6038 88.3684C58.6438 88.4521 58.7047 88.5188 58.7758 88.5633C58.8025 88.5873 58.8441 88.6283 58.8959 88.6812C58.9228 88.7087 58.9523 88.7394 58.985 88.7737L59.1511 88.9513C59.2016 89.0045 59.2551 89.0608 59.3115 89.1225C60.5932 90.5159 63.9207 94.2842 68.5196 99.5553C69.2658 100.412 70.2612 100.889 71.2834 100.889C71.3664 100.889 71.451 100.886 71.5342 100.879C71.7372 100.863 71.905 100.831 72.0429 100.781C72.4658 100.632 72.798 100.277 73.0902 99.9623C73.3246 99.7092 73.5472 99.4698 73.7682 99.3776C73.9967 99.2834 74.3023 99.3074 74.6273 99.3314C75.0427 99.3604 75.4713 99.3929 75.8748 99.2014C76.1033 99.0936 76.2979 98.9232 76.472 98.7343C76.596 98.6233 76.7217 98.4737 76.8525 98.2712C77.0661 97.9944 77.2679 97.7328 77.48 97.6181C77.6996 97.5002 78.0051 97.4899 78.33 97.4779C78.7469 97.4626 79.1771 97.4472 79.5643 97.2113C79.956 96.9719 80.2231 96.5479 80.4588 96.1734C80.6472 95.876 80.8252 95.592 81.0286 95.4535C81.2347 95.3116 81.5389 95.2654 81.8608 95.2159C82.2747 95.1527 82.702 95.086 83.0669 94.8056C83.4363 94.52 83.6648 94.0653 83.8651 93.6652C84.0253 93.3454 84.1765 93.0428 84.3649 92.8804C84.5578 92.7145 84.8544 92.6308 85.169 92.5419C85.5755 92.4274 85.9954 92.3077 86.3321 91.9812C86.6734 91.6511 86.8559 91.1689 87.0174 90.7431C87.1451 90.4048 87.2652 90.0867 87.4359 89.9003C87.6108 89.7106 87.8957 89.5875 88.1983 89.4558C88.5914 89.2866 88.9994 89.112 89.2992 88.7412C89.6047 88.3649 89.7352 87.8589 89.851 87.4127C89.9431 87.0604 90.029 86.727 90.1773 86.5184C90.3286 86.3048 90.5987 86.1422 90.8834 85.9679C91.2559 85.7423 91.6416 85.508 91.8998 85.0925C92.1608 84.6719 92.2321 84.1487 92.2943 83.6887C92.3448 83.3247 92.3908 82.9826 92.5139 82.7535C92.5391 82.7057 92.5703 82.6578 92.6059 82.6116C92.7409 82.4339 92.9382 82.2697 93.1444 82.0986C93.4887 81.8132 93.8432 81.5191 94.0493 81.0626C94.2555 80.6044 94.2616 80.0727 94.2659 79.6059C94.2689 79.2382 94.272 78.8929 94.3639 78.6432C94.4573 78.3919 94.6724 78.1492 94.9009 77.8909C95.1901 77.5645 95.5195 77.1935 95.6619 76.7043C95.8058 76.2138 95.7391 75.6888 95.6812 75.2254C95.6352 74.8613 95.5908 74.5195 95.6486 74.2544C95.7065 73.9928 95.8845 73.7142 96.0729 73.4201C96.3147 73.0421 96.5891 72.613 96.6618 72.1018C96.7359 71.5921 96.6024 71.1084 96.4734 70.6399C96.3771 70.2893 96.285 69.9595 96.3043 69.6859" fill="#603DBD"/>
</svg>
