<svg width="37" height="37" viewBox="0 0 37 37" fill="none" xmlns="http://www.w3.org/2000/svg">
<path d="M25.1775 4.99735C26.9602 5.00267 28.6684 5.71321 29.9289 6.97377C31.1895 8.23434 31.9 9.9425 31.9054 11.7252V25.1795C31.9 26.9622 31.1895 28.6703 29.9289 29.9309C28.6684 31.1915 26.9602 31.902 25.1775 31.9073H11.7232C9.94055 31.902 8.23238 31.1915 6.97182 29.9309C5.71125 28.6703 5.00072 26.9622 4.9954 25.1795V11.7252C5.00072 9.9425 5.71125 8.23434 6.97182 6.97377C8.23238 5.71321 9.94055 5.00267 11.7232 4.99735H25.1775ZM25.1775 2.30664H11.7232C6.54293 2.30664 2.30469 6.54488 2.30469 11.7252V25.1795C2.30469 30.3598 6.54293 34.598 11.7232 34.598H25.1775C30.3578 34.598 34.5961 30.3598 34.5961 25.1795V11.7252C34.5961 6.54488 30.3578 2.30664 25.1775 2.30664Z" fill="white"/>
<path d="M27.1979 11.7249C26.7987 11.7249 26.4085 11.6065 26.0766 11.3848C25.7447 11.163 25.4861 10.8478 25.3333 10.479C25.1806 10.1102 25.1406 9.70445 25.2185 9.31296C25.2963 8.92146 25.4886 8.56185 25.7708 8.2796C26.0531 7.99735 26.4127 7.80513 26.8042 7.72726C27.1957 7.64938 27.6015 7.68935 27.9702 7.8421C28.339 7.99486 28.6542 8.25354 28.876 8.58543C29.0977 8.91732 29.2161 9.30752 29.2161 9.70669C29.2167 9.97188 29.1649 10.2346 29.0636 10.4797C28.9624 10.7248 28.8138 10.9475 28.6263 11.1351C28.4387 11.3226 28.216 11.4712 27.9709 11.5724C27.7258 11.6737 27.4631 11.7255 27.1979 11.7249Z" fill="white"/>
<path d="M18.4518 13.0701C19.5162 13.0701 20.5568 13.3858 21.4419 13.9772C22.327 14.5686 23.0168 15.4091 23.4242 16.3926C23.8316 17.376 23.9381 18.4582 23.7305 19.5022C23.5228 20.5463 23.0102 21.5053 22.2575 22.258C21.5048 23.0107 20.5458 23.5233 19.5018 23.731C18.4577 23.9386 17.3756 23.832 16.3921 23.4247C15.4086 23.0173 14.5681 22.3275 13.9767 21.4424C13.3853 20.5573 13.0696 19.5167 13.0696 18.4522C13.0711 17.0253 13.6387 15.6572 14.6477 14.6482C15.6567 13.6392 17.0248 13.0716 18.4518 13.0701ZM18.4518 10.3794C16.8551 10.3794 15.2943 10.8529 13.9667 11.7399C12.6392 12.627 11.6044 13.8878 10.9934 15.3629C10.3824 16.838 10.2225 18.4612 10.534 20.0272C10.8455 21.5932 11.6144 23.0316 12.7434 24.1606C13.8724 25.2896 15.3108 26.0585 16.8768 26.37C18.4428 26.6815 20.066 26.5216 21.5411 25.9106C23.0162 25.2996 24.277 24.2648 25.1641 22.9373C26.0511 21.6097 26.5246 20.0489 26.5246 18.4522C26.5246 16.3112 25.6741 14.2578 24.1601 12.7439C22.6462 11.2299 20.5928 10.3794 18.4518 10.3794Z" fill="white"/>
</svg>
