<svg width="267" height="61" viewBox="0 0 267 61" fill="none" xmlns="http://www.w3.org/2000/svg">
<path d="M16.512 59.616C16.2773 59.616 16.0133 59.5866 15.72 59.528C15.4853 59.4693 15.2507 59.44 15.016 59.44C14.488 59.3226 13.96 59.2346 13.432 59.176C12.904 59.1173 12.376 59.088 11.848 59.088C11.7893 59.088 11.7013 59.088 11.584 59.088C11.5253 59.088 11.4667 59.088 11.408 59.088C11.2907 59.088 11.144 59.088 10.968 59.088C10.8507 59.1466 10.704 59.176 10.528 59.176C10.176 59.2933 9.91201 59.352 9.73601 59.352C9.56001 59.352 9.47201 59.352 9.47201 59.352C9.35468 59.4106 9.20801 59.44 9.03201 59.44C8.91468 59.44 8.79734 59.44 8.68001 59.44C7.97601 59.44 7.38934 59.3813 6.92001 59.264C6.50934 59.1466 6.09868 58.9413 5.68801 58.648C5.51201 58.5306 5.33601 58.384 5.16001 58.208C5.04268 58.032 4.89601 57.8266 4.72001 57.592C4.13334 56.888 3.57601 56.096 3.04801 55.216C2.57868 54.2773 2.16801 53.368 1.81601 52.488C1.46401 51.608 1.20001 50.7573 1.02401 49.936C0.84801 49.056 0.76001 48.264 0.76001 47.56C0.76001 46.328 1.02401 45.36 1.55201 44.656C2.13868 43.952 2.90134 43.6 3.84001 43.6C4.89601 43.6 5.80534 43.952 6.56801 44.656C7.38934 45.36 8.18134 46.1813 8.94401 47.12C9.06134 47.2373 9.14934 47.3546 9.20801 47.472C9.32534 47.5893 9.44268 47.6773 9.56001 47.736C10.3813 48.792 11.2613 49.76 12.2 50.64C13.1973 51.52 14.3707 51.96 15.72 51.96C16.7173 51.96 17.48 51.7253 18.008 51.256C18.5947 50.728 18.888 49.9946 18.888 49.056C18.888 48.7626 18.8 48.4693 18.624 48.176C18.448 47.8826 18.184 47.5893 17.832 47.296C17.0693 46.6506 16.0427 45.976 14.752 45.272C13.4613 44.568 12.112 43.776 10.704 42.896C8.65068 41.6053 6.77334 39.992 5.07201 38.056C3.37068 36.0613 2.52001 33.5386 2.52001 30.488C2.52001 26.3226 3.92801 22.92 6.74401 20.28C9.61868 17.5813 13.256 16.232 17.656 16.232C18.4187 16.232 19.152 16.2906 19.856 16.408C20.6187 16.5253 21.352 16.6426 22.056 16.76C22.76 16.936 23.464 17.0826 24.168 17.2C24.9307 17.3173 25.6933 17.376 26.456 17.376C26.8667 17.376 27.248 17.3173 27.6 17.2C27.952 17.0826 28.3333 16.936 28.744 16.76C29.096 16.6426 29.448 16.5253 29.8 16.408C30.152 16.2906 30.5333 16.232 30.944 16.232C31.0027 16.232 31.0613 16.232 31.12 16.232C31.2373 16.232 31.3253 16.232 31.384 16.232C32.5573 16.4666 33.672 17.2293 34.728 18.52C35.8427 19.752 36.752 21.1013 37.456 22.568C37.8667 23.448 38.16 24.2986 38.336 25.12C38.5707 25.8826 38.688 26.5573 38.688 27.144C38.688 28.376 38.2773 29.4026 37.456 30.224C36.6933 30.9866 35.696 31.368 34.464 31.368C33.2907 31.368 32.2347 31.016 31.296 30.312C30.416 29.608 29.5653 28.8453 28.744 28.024C28.6267 27.9066 28.5093 27.7893 28.392 27.672C28.2747 27.5546 28.128 27.4373 27.952 27.32C27.3067 26.616 26.6027 26 25.84 25.472C25.136 24.944 24.344 24.68 23.464 24.68C22.7013 24.68 21.9973 24.9733 21.352 25.56C20.7653 26.1466 20.472 26.8213 20.472 27.584C20.472 28.2293 20.7067 28.816 21.176 29.344C21.704 29.872 22.3787 30.3706 23.2 30.84C24.08 31.4266 25.0773 32.0133 26.192 32.6C27.3067 33.128 28.48 33.7146 29.712 34.36C32 35.6506 34.0827 37.264 35.96 39.2C37.896 41.136 38.864 43.7173 38.864 46.944C38.864 50.6986 37.28 53.8373 34.112 56.36C31.0027 58.8826 27.1307 60.144 22.496 60.144C21.968 60.144 21.44 60.1146 20.912 60.056C20.4427 60.056 19.9733 60.0266 19.504 59.968C19.0347 59.9093 18.536 59.8506 18.008 59.792C17.5387 59.7333 17.04 59.6746 16.512 59.616Z" fill="black"/>
<path d="M84.7615 32.248C84.7615 32.776 84.7615 33.304 84.7615 33.832C84.7615 34.3013 84.7615 34.7706 84.7615 35.24C84.7028 35.7093 84.6735 36.208 84.6735 36.736C84.6735 37.2053 84.6735 37.6746 84.6735 38.144C84.6735 41.7226 84.8788 44.2746 85.2895 45.8C85.7588 47.3253 86.4628 48.176 87.4015 48.352C88.0468 48.4106 88.5748 48.5573 88.9855 48.792C89.4548 49.0266 89.6895 49.5253 89.6895 50.288C89.6895 52.5173 88.7802 54.4533 86.9615 56.096C85.2015 57.7386 83.2362 58.8533 81.0655 59.44C80.3615 59.6746 79.6575 59.8506 78.9535 59.968C78.3082 60.0853 77.6922 60.144 77.1055 60.144C75.6388 60.144 74.4362 59.9386 73.4975 59.528C72.5588 59.1173 71.7962 58.648 71.2095 58.12C70.6815 57.7093 70.2415 57.328 69.8895 56.976C69.5375 56.624 69.1855 56.36 68.8335 56.184C68.7162 56.1253 68.5988 56.096 68.4815 56.096C68.4228 56.0373 68.3348 56.008 68.2175 56.008C67.8655 56.008 67.3375 56.2426 66.6335 56.712C65.9295 57.1226 65.0495 57.592 63.9935 58.12C62.9962 58.648 61.8522 59.1173 60.5615 59.528C59.2708 59.9386 57.8335 60.144 56.2495 60.144C52.1428 60.144 48.7695 59.088 46.1295 56.976C43.4895 54.864 42.1695 52.136 42.1695 48.792C42.1695 44.568 43.6948 41.4586 46.7455 39.464C49.7962 37.4106 53.1695 36.0613 56.8655 35.416C57.8042 35.2986 58.7428 35.2106 59.6815 35.152C60.6788 35.0346 61.6468 34.976 62.5855 34.976C64.2868 34.9173 65.3428 34.7413 65.7535 34.448C66.1642 34.1546 66.3695 33.3626 66.3695 32.072C66.3695 29.1386 66.0468 26.9973 65.4015 25.648C64.7562 24.24 63.7588 23.536 62.4095 23.536C61.4122 23.536 60.5322 23.8586 59.7695 24.504C59.0655 25.1493 58.3615 25.912 57.6575 26.792C57.5402 26.968 57.3935 27.1733 57.2175 27.408C57.0415 27.6426 56.8655 27.848 56.6895 28.024C55.8095 29.1973 54.8415 30.2533 53.7855 31.192C52.7295 32.1306 51.3802 32.6 49.7375 32.6C48.3295 32.6 47.1562 32.1893 46.2175 31.368C45.2788 30.5466 44.8095 29.5493 44.8095 28.376C44.8095 25.736 46.0708 23.5653 48.5935 21.864C51.1748 20.104 53.9908 18.7546 57.0415 17.816C58.7428 17.288 60.4148 16.9066 62.0575 16.672C63.7588 16.3786 65.1962 16.232 66.3695 16.232C69.2442 16.232 71.7668 16.5546 73.9375 17.2C76.1668 17.7866 78.1322 18.7253 79.8335 20.016C79.8922 20.0746 79.9215 20.1333 79.9215 20.192C79.9802 20.192 80.0388 20.192 80.0975 20.192C81.9162 21.6 83.1482 23.1546 83.7935 24.856C84.4388 26.4986 84.7615 28.992 84.7615 32.336V32.248ZM59.5935 46.328C59.5935 47.6773 59.9162 48.792 60.5615 49.672C61.2655 50.552 62.1455 50.992 63.2015 50.992C64.3748 50.992 65.2255 50.5226 65.7535 49.584C66.3402 48.5866 66.6335 47.0906 66.6335 45.096C66.6335 43.5706 66.4575 42.5146 66.1055 41.928C65.8122 41.3413 65.1962 41.048 64.2575 41.048C62.9668 41.048 61.8522 41.576 60.9135 42.632C60.0335 43.688 59.5935 44.9493 59.5935 46.416V46.328Z" fill="black"/>
<path d="M117.971 27.408V41.928C117.971 43.688 118.382 45.1253 119.203 46.24C120.083 47.3546 121.169 47.912 122.459 47.912C123.574 47.912 124.366 47.824 124.835 47.648C125.363 47.4133 125.774 47.1786 126.067 46.944C126.126 46.8853 126.185 46.8266 126.243 46.768C126.302 46.7093 126.361 46.68 126.419 46.68C126.595 46.4453 126.801 46.2693 127.035 46.152C127.329 46.0346 127.71 45.976 128.179 45.976C128.825 45.976 129.353 46.24 129.763 46.768C130.233 47.296 130.555 47.8826 130.731 48.528C130.849 48.7626 130.907 48.9973 130.907 49.232C130.966 49.4666 130.995 49.7013 130.995 49.936C130.995 52.1653 129.91 54.0426 127.739 55.568C125.627 57.0346 123.281 58.1493 120.699 58.912C119.291 59.3226 117.913 59.616 116.563 59.792C115.214 60.0266 114.041 60.144 113.043 60.144C108.585 60.144 104.977 58.8533 102.219 56.272C99.4619 53.6906 98.0832 50.288 98.0832 46.064V26.176C98.0832 25.5893 97.9952 25.208 97.8192 25.032C97.6432 24.856 97.2325 24.768 96.5872 24.768L92.1872 24.68C91.3659 24.7386 90.8672 24.6213 90.6912 24.328C90.4565 24.0346 90.3392 23.4186 90.3392 22.48L90.2512 20.456C90.3099 20.456 90.3392 20.4266 90.3392 20.368C90.3392 20.3093 90.3392 20.2506 90.3392 20.192C90.3979 19.8986 90.5152 19.6053 90.6912 19.312C90.8085 19.0186 90.9845 18.8133 91.2192 18.696L110.931 6.19996C111.166 6.14129 111.401 6.08262 111.635 6.02395C111.929 5.96529 112.281 5.93596 112.691 5.93596L116.211 5.84796C116.915 5.90662 117.385 6.11196 117.619 6.46396C117.854 6.75729 117.971 7.37329 117.971 8.31196V14.12C117.971 15 118.089 15.5866 118.323 15.88C118.617 16.1146 119.233 16.232 120.171 16.232L128.091 16.144C129.147 16.2026 129.822 16.4373 130.115 16.848C130.467 17.2 130.643 18.0213 130.643 19.312V21.776C130.643 23.184 130.438 24.152 130.027 24.68C129.617 25.208 128.883 25.472 127.827 25.472L120.083 25.384C119.321 25.4426 118.763 25.6186 118.411 25.912C118.118 26.1466 117.971 26.6746 117.971 27.496V27.408Z" fill="black"/>
<path d="M157.122 19.136V44.128C157.122 46.0053 157.268 47.384 157.562 48.264C157.914 49.144 158.5 49.936 159.322 50.64C159.38 50.6986 159.439 50.7866 159.498 50.904C159.615 50.9626 159.732 51.0213 159.85 51.08C160.319 51.432 160.7 51.7546 160.994 52.048C161.287 52.2826 161.522 52.5173 161.698 52.752C161.874 52.9866 161.991 53.2506 162.05 53.544C162.108 53.7786 162.138 54.072 162.138 54.424C162.138 56.2426 160.964 57.6213 158.618 58.56C156.271 59.44 152.81 59.88 148.234 59.88C142.836 59.88 138.876 59.4986 136.354 58.736C133.89 57.9733 132.658 56.712 132.658 54.952C132.658 54.0133 132.922 53.28 133.45 52.752C133.978 52.1653 134.564 51.6373 135.21 51.168C135.268 51.168 135.298 51.168 135.298 51.168C135.298 51.1093 135.298 51.08 135.298 51.08C135.356 51.0213 135.386 50.992 135.386 50.992C135.444 50.9333 135.503 50.904 135.562 50.904C136.5 50.2586 137.146 49.2026 137.498 47.736C137.85 46.2106 138.026 44.0106 138.026 41.136C138.026 40.6666 138.026 40.1973 138.026 39.728C138.026 39.2586 137.996 38.76 137.938 38.232C137.938 37.7626 137.908 37.2933 137.85 36.824C137.85 36.3546 137.85 35.8853 137.85 35.416C137.85 35.1813 137.85 34.976 137.85 34.8C137.85 34.624 137.85 34.448 137.85 34.272C137.732 32.5706 137.615 31.456 137.498 30.928C137.439 30.3413 137.234 29.872 136.882 29.52C136.823 29.4613 136.764 29.432 136.706 29.432C136.647 29.3733 136.588 29.3146 136.53 29.256C136.354 29.1386 136.148 29.0213 135.914 28.904C135.738 28.728 135.532 28.6106 135.298 28.552C135.239 28.4933 135.18 28.464 135.122 28.464C135.063 28.4053 135.034 28.376 135.034 28.376C134.33 28.024 133.714 27.6426 133.186 27.232C132.716 26.7626 132.482 26.0586 132.482 25.12C132.482 24.1813 132.804 23.36 133.45 22.656C134.095 21.8933 135.268 21.1893 136.97 20.544C137.908 20.1333 139.023 19.752 140.314 19.4C141.663 18.9893 143.218 18.5786 144.978 18.168C146.914 17.6986 148.674 17.3466 150.258 17.112C151.9 16.8186 153.367 16.6426 154.658 16.584C155.479 16.584 156.095 16.8186 156.506 17.288C156.916 17.7573 157.122 18.4026 157.122 19.224V19.136ZM148.322 0.303955C148.732 0.362624 149.172 0.421292 149.642 0.479958C150.17 0.479958 150.668 0.538624 151.138 0.655956C152.546 0.890623 153.836 1.38929 155.01 2.15196C156.183 2.91462 156.77 4.08796 156.77 5.67196C156.77 7.95996 155.244 9.89596 152.194 11.48C149.143 13.064 145.359 13.856 140.842 13.856C138.612 13.856 136.794 13.3866 135.386 12.448C133.978 11.4506 133.274 10.16 133.274 8.57596C133.274 6.40529 134.711 4.52796 137.586 2.94396C140.519 1.35996 144.098 0.509291 148.322 0.391959V0.303955Z" fill="black"/>
<path d="M209.521 29.696L198.433 51.344C197.318 53.5146 196.321 55.2453 195.441 56.536C194.619 57.8266 193.798 58.736 192.977 59.264C192.507 59.616 192.038 59.8506 191.569 59.968C191.158 60.144 190.689 60.232 190.161 60.232C188.929 60.232 187.667 59.5866 186.377 58.296C185.086 56.9466 183.737 54.9226 182.329 52.224L170.097 28.992C169.686 28.2293 169.217 27.584 168.689 27.056C168.161 26.528 167.633 26.088 167.105 25.736C166.694 25.5013 166.283 25.296 165.873 25.12C165.462 24.944 165.081 24.768 164.729 24.592C164.025 24.2986 163.467 23.9466 163.057 23.536C162.646 23.1253 162.441 22.48 162.441 21.6C162.441 19.84 163.761 18.5786 166.401 17.816C169.099 16.9946 173.353 16.584 179.161 16.584C184.03 16.584 187.609 16.936 189.897 17.64C192.185 18.2853 193.329 19.3413 193.329 20.808C193.329 21.3946 193.153 21.9226 192.801 22.392C192.507 22.8026 192.155 23.2133 191.745 23.624C191.745 23.624 191.715 23.624 191.657 23.624C191.657 23.624 191.657 23.6533 191.657 23.712C191.305 24.064 190.953 24.4453 190.601 24.856C190.307 25.2666 190.161 25.7653 190.161 26.352C190.161 26.7626 190.249 27.32 190.425 28.024C190.659 28.6693 190.953 29.344 191.305 30.048C191.774 31.0453 192.302 31.9546 192.889 32.776C193.534 33.5973 194.179 34.1546 194.825 34.448C194.942 34.448 195.059 34.4773 195.177 34.536C195.294 34.536 195.411 34.536 195.529 34.536C195.763 34.536 195.998 34.5066 196.233 34.448C196.467 34.3893 196.702 34.272 196.937 34.096C197.23 33.8613 197.523 33.5093 197.817 33.04C198.169 32.5706 198.55 31.9253 198.961 31.104C199.019 30.928 199.078 30.7813 199.137 30.664C199.254 30.488 199.371 30.3413 199.489 30.224C199.899 29.52 200.281 28.7866 200.633 28.024C200.985 27.2613 201.161 26.4693 201.161 25.648C201.161 25.1786 201.014 24.768 200.721 24.416C200.427 24.0053 200.105 23.624 199.753 23.272C199.753 23.2133 199.753 23.184 199.753 23.184C199.342 22.832 198.99 22.4506 198.697 22.04C198.403 21.6293 198.257 21.16 198.257 20.632C198.257 19.1653 199.107 18.1386 200.809 17.552C202.569 16.9066 205.502 16.584 209.609 16.584C212.894 16.584 215.241 16.8773 216.649 17.464C218.057 18.0506 218.761 19.048 218.761 20.456C218.761 21.16 218.497 21.776 217.969 22.304C217.499 22.7733 216.707 23.184 215.593 23.536C215.358 23.5946 215.123 23.6826 214.889 23.8C214.713 23.8586 214.537 23.9173 214.361 23.976C213.833 24.152 213.393 24.3573 213.041 24.592C212.689 24.8266 212.337 25.1493 211.985 25.56C211.633 25.9706 211.251 26.528 210.841 27.232C210.489 27.8773 210.049 28.728 209.521 29.784V29.696Z" fill="black"/>
<path d="M261.965 32.248C261.965 32.776 261.965 33.304 261.965 33.832C261.965 34.3013 261.965 34.7706 261.965 35.24C261.906 35.7093 261.877 36.208 261.877 36.736C261.877 37.2053 261.877 37.6746 261.877 38.144C261.877 41.7226 262.082 44.2746 262.493 45.8C262.962 47.3253 263.666 48.176 264.605 48.352C265.25 48.4106 265.778 48.5573 266.189 48.792C266.658 49.0266 266.893 49.5253 266.893 50.288C266.893 52.5173 265.983 54.4533 264.165 56.096C262.405 57.7386 260.439 58.8533 258.269 59.44C257.565 59.6746 256.861 59.8506 256.157 59.968C255.511 60.0853 254.895 60.144 254.309 60.144C252.842 60.144 251.639 59.9386 250.701 59.528C249.762 59.1173 248.999 58.648 248.413 58.12C247.885 57.7093 247.445 57.328 247.093 56.976C246.741 56.624 246.389 56.36 246.037 56.184C245.919 56.1253 245.802 56.096 245.685 56.096C245.626 56.0373 245.538 56.008 245.421 56.008C245.069 56.008 244.541 56.2426 243.837 56.712C243.133 57.1226 242.253 57.592 241.197 58.12C240.199 58.648 239.055 59.1173 237.765 59.528C236.474 59.9386 235.037 60.144 233.453 60.144C229.346 60.144 225.973 59.088 223.333 56.976C220.693 54.864 219.373 52.136 219.373 48.792C219.373 44.568 220.898 41.4586 223.949 39.464C226.999 37.4106 230.373 36.0613 234.069 35.416C235.007 35.2986 235.946 35.2106 236.885 35.152C237.882 35.0346 238.85 34.976 239.789 34.976C241.49 34.9173 242.546 34.7413 242.957 34.448C243.367 34.1546 243.573 33.3626 243.573 32.072C243.573 29.1386 243.25 26.9973 242.605 25.648C241.959 24.24 240.962 23.536 239.613 23.536C238.615 23.536 237.735 23.8586 236.973 24.504C236.269 25.1493 235.565 25.912 234.861 26.792C234.743 26.968 234.597 27.1733 234.421 27.408C234.245 27.6426 234.069 27.848 233.893 28.024C233.013 29.1973 232.045 30.2533 230.989 31.192C229.933 32.1306 228.583 32.6 226.941 32.6C225.533 32.6 224.359 32.1893 223.421 31.368C222.482 30.5466 222.013 29.5493 222.013 28.376C222.013 25.736 223.274 23.5653 225.797 21.864C228.378 20.104 231.194 18.7546 234.245 17.816C235.946 17.288 237.618 16.9066 239.261 16.672C240.962 16.3786 242.399 16.232 243.573 16.232C246.447 16.232 248.97 16.5546 251.141 17.2C253.37 17.7866 255.335 18.7253 257.037 20.016C257.095 20.0746 257.125 20.1333 257.125 20.192C257.183 20.192 257.242 20.192 257.301 20.192C259.119 21.6 260.351 23.1546 260.997 24.856C261.642 26.4986 261.965 28.992 261.965 32.336V32.248ZM236.797 46.328C236.797 47.6773 237.119 48.792 237.765 49.672C238.469 50.552 239.349 50.992 240.405 50.992C241.578 50.992 242.429 50.5226 242.957 49.584C243.543 48.5866 243.837 47.0906 243.837 45.096C243.837 43.5706 243.661 42.5146 243.309 41.928C243.015 41.3413 242.399 41.048 241.461 41.048C240.17 41.048 239.055 41.576 238.117 42.632C237.237 43.688 236.797 44.9493 236.797 46.416V46.328Z" fill="black"/>
</svg>
