<svg width="37" height="37" viewBox="0 0 37 37" fill="none" xmlns="http://www.w3.org/2000/svg">
<path d="M18.5238 0.781625C8.74999 0.781625 0.79725 8.73213 0.79725 18.5071C0.79725 28.2821 8.74999 36.2326 18.5238 36.2326C28.2977 36.2326 36.2504 28.2821 36.2504 18.5071C36.2504 8.73213 28.2977 0.781625 18.5238 0.781625ZM18.5238 34.6297C9.63431 34.6297 2.40231 27.3967 2.40231 18.5071C2.40231 9.61755 9.63431 2.3845 18.5238 2.3845C27.4134 2.3845 34.6454 9.61755 34.6454 18.5071C34.6454 27.3967 27.4134 34.6297 18.5238 34.6297Z" fill="white" stroke="white" stroke-width="0.43675"/>
<path d="M28.491 12.8467C28.5446 12.721 28.5923 12.5927 28.6337 12.4623L28.6338 12.4622C28.6828 12.3074 28.6838 12.1414 28.6366 11.9861C28.5894 11.8308 28.4962 11.6934 28.3692 11.5922C28.2423 11.4909 28.0877 11.4306 27.9257 11.419C27.7638 11.4075 27.6022 11.4454 27.4622 11.5276L27.4613 11.5282C26.9528 11.8303 26.4048 12.06 25.8332 12.2108C25.0385 11.5313 24.0265 11.156 22.9783 11.1547L22.9779 11.1547C22.3869 11.1551 21.8021 11.2749 21.2586 11.5068C20.7151 11.7387 20.2239 12.078 19.8147 12.5043C19.4054 12.9306 19.0865 13.4352 18.8769 13.9878C18.6982 14.4592 18.6022 14.9572 18.5926 15.46C16.2899 15.1077 14.1963 13.9131 12.7206 12.1031L12.7206 12.1031L12.7198 12.1022C12.6375 12.0024 12.5324 11.9239 12.4133 11.8735C12.2942 11.823 12.1647 11.8021 12.0357 11.8124C11.9068 11.8227 11.7823 11.8639 11.6727 11.9327C11.5631 12.0014 11.4718 12.0956 11.4064 12.2072L11.4061 12.2076C11.0292 12.8545 10.8243 13.5872 10.8111 14.3358C10.7993 14.9995 10.9385 15.656 11.2167 16.2562C11.2037 16.263 11.1909 16.2701 11.1783 16.2775L11.1782 16.2774L11.1717 16.2816C11.0524 16.3576 10.9543 16.4624 10.8863 16.5864C10.8183 16.7103 10.7825 16.8494 10.7824 16.9908V16.991C10.7824 18.2231 11.3001 19.3591 12.1447 20.1664C12.1028 20.2394 12.0724 20.3189 12.0551 20.402C12.0267 20.5381 12.0342 20.6793 12.0769 20.8116C12.272 21.4201 12.5977 21.9787 13.0312 22.4481C13.3545 22.7982 13.732 23.0925 14.1482 23.3201C13.1451 23.7231 12.0546 23.8696 10.9761 23.7427L10.9727 23.7423C10.7936 23.7241 10.6135 23.7657 10.4606 23.8608C10.3077 23.9559 10.1907 24.099 10.1279 24.2677L10.1279 24.2677L10.1268 24.2709C10.0661 24.4416 10.065 24.6278 10.1235 24.7993C10.182 24.9707 10.2968 25.1174 10.4491 25.2155L10.4494 25.2156C12.2174 26.3504 14.2743 26.9533 16.3752 26.9525L28.491 12.8467ZM28.491 12.8467C28.5094 12.85 28.5278 12.8538 28.546 12.8584C28.7133 12.8999 28.8628 12.9942 28.9724 13.1273C29.082 13.2604 29.1457 13.4253 29.1543 13.5975C29.1628 13.7696 29.1157 13.94 29.0199 14.0833C29.02 14.0833 29.02 14.0832 29.02 14.0832L28.491 12.8467ZM27.3747 15.8797L27.3752 15.9523L27.3752 15.9536C27.3752 21.3537 23.2626 26.9525 16.3753 26.9525L27.3747 15.8797ZM27.3747 15.8797C28.0115 15.3686 28.5664 14.7628 29.0199 14.0834L27.3747 15.8797ZM11.0008 16.991C11.0009 16.8863 11.0273 16.7833 11.0777 16.6915C11.1281 16.5997 11.2008 16.522 11.2891 16.4657C11.2971 16.461 11.3052 16.4565 11.3134 16.4521L11.0008 16.991ZM11.0008 16.991C11.0008 18.1536 11.4861 19.2268 12.2799 19.9934L11.0008 16.991ZM25.9797 15.518L25.7616 15.5288C25.7549 15.3949 25.7819 15.2615 25.8401 15.1407C25.8761 15.0659 25.9234 14.9974 25.9799 14.9376C25.9408 14.9208 25.903 14.9008 25.8667 14.8778C25.7127 14.78 25.5966 14.6326 25.5375 14.46C25.4785 14.2874 25.48 14.0999 25.5418 13.9282C25.5463 13.9158 25.5511 13.9036 25.5561 13.8915C25.4848 13.8883 25.414 13.8757 25.3455 13.8536C25.2159 13.8119 25.0991 13.738 25.0059 13.6387C24.5865 13.1927 24.0318 12.8975 23.4277 12.7985C22.8235 12.6996 22.2036 12.8026 21.6638 13.0915C21.124 13.3804 20.6945 13.8391 20.4417 14.3968C20.189 14.9544 20.127 15.5798 20.2655 16.1761L20.2655 16.1762C20.3225 16.4221 20.2609 16.6785 20.1008 16.8716C19.9361 17.0701 19.7018 17.1605 19.4543 17.1591L19.4442 17.159L19.4443 17.1588C16.8162 17.0231 14.3285 15.951 12.4276 14.1444L16.3763 25.5669C22.3939 25.5669 25.9895 20.6784 25.9895 15.9525C25.9895 15.8084 25.9863 15.6621 25.9797 15.518ZM25.9797 15.518L25.7616 15.5279C25.768 15.6687 25.7712 15.8117 25.7712 15.9525C25.7712 20.5774 22.2545 25.3485 16.3763 25.3485H16.3762C15.591 25.3489 14.8099 25.2503 14.0512 25.0558M25.9797 15.518C25.9749 15.4205 25.9945 15.3234 26.0368 15.2354C26.0792 15.1475 26.1429 15.0716 26.2221 15.0146C26.2285 15.01 26.2349 15.0055 26.2413 15.0009L14.0512 25.0558M14.0512 25.0558C15.0046 24.7699 15.8982 24.3066 16.6839 23.6878L16.684 23.6877C16.8139 23.5854 16.9089 23.4454 16.9562 23.2869C17.0035 23.1285 17.0006 22.9593 16.9481 22.8025C16.8956 22.6458 16.7959 22.509 16.6627 22.4111C16.5295 22.3131 16.3693 22.2586 16.204 22.2552L16.2036 22.2551C15.767 22.2468 15.3385 22.136 14.9526 21.9316C14.6803 21.7874 14.4346 21.5995 14.225 21.3761C14.3756 21.3517 14.5243 21.3196 14.6706 21.2802M14.0512 25.0558L13.5319 16.9113L13.6526 16.7293C13.6527 16.7293 13.6527 16.7294 13.6528 16.7294C13.9519 16.928 14.0808 17.3018 13.9712 17.6412C13.8596 17.9865 13.5315 18.1961 13.1899 18.1975L13.1818 18.1976L13.1818 18.1974C13.0019 18.1915 12.8222 18.1742 12.6441 18.1461M14.6706 21.2802C14.6705 21.2802 14.6705 21.2802 14.6704 21.2802L14.614 21.0693L14.6708 21.2801C14.6708 21.2801 14.6707 21.2802 14.6706 21.2802ZM14.6706 21.2802C14.8456 21.2333 14.9995 21.1285 15.1073 20.9829C15.2152 20.8373 15.2705 20.6594 15.2642 20.4783C15.2579 20.2972 15.1905 20.1235 15.0728 19.9857C14.9554 19.8481 14.7948 19.7543 14.6173 19.7195M14.6173 19.7195C14.1247 19.6191 13.6686 19.3868 13.2978 19.0473C13.0203 18.7933 12.7983 18.4864 12.6441 18.1461M14.6173 19.7195C14.617 19.7194 14.6167 19.7194 14.6164 19.7193L14.5746 19.9337M14.6173 19.7195C14.6176 19.7196 14.6179 19.7196 14.6182 19.7197L14.5746 19.9337M12.6441 18.1461C12.5578 18.1325 12.4719 18.1163 12.3865 18.0977M12.6441 18.1461C12.6089 18.0684 12.5772 17.989 12.5492 17.908C12.7606 17.9481 12.9748 17.9721 13.189 17.9791L12.3865 18.0977M12.3865 18.0977C12.5529 18.5201 12.8138 18.9003 13.1503 19.2084C13.5506 19.5748 14.0429 19.8255 14.5746 19.9337M12.3865 18.0977L14.5746 19.9337M10.5673 25.0318C12.3002 26.144 14.3161 26.7349 16.3752 26.7341L10.5673 25.0318Z" fill="white" stroke="white" stroke-width="0.43675"/>
</svg>
