<svg width="66" height="66" viewBox="0 0 66 66" fill="none" xmlns="http://www.w3.org/2000/svg">
<g filter="url(#filter0_d)">
<mask id="path-1-outside-1" maskUnits="userSpaceOnUse" x="0" y="0" width="64" height="65" fill="black">
<rect fill="white" width="64" height="65"/>
<path fill-rule="evenodd" clip-rule="evenodd" d="M32.2087 1.02628C32.2087 1.056 32.4497 1.79393 32.7439 2.66623C33.763 5.6871 33.4695 7.39095 31.2482 11.3467C30.0134 13.5458 29.7341 14.1464 29.453 15.2089C29.1409 16.3878 29.1207 16.391 28.2824 15.4056C27.3662 14.3287 26.97 13.4755 26.3868 11.3233C25.1126 6.622 24.2504 5.33523 21.2857 3.71053C20.1397 3.08253 20.1439 3.18457 21.3187 4.49264C23.4897 6.90996 23.9127 8.61092 23.422 12.9522C23.0835 15.9489 23.0609 16.396 23.1941 17.5065C23.3462 18.7741 23.3987 18.7307 22.3516 18.2029C20.7801 17.4103 20.4667 17.1102 18.4064 14.4233C16.0039 11.2904 14.1544 10.187 10.9374 9.96659L10.0466 9.90558L11.4569 10.5922C14.7732 12.2064 15.5413 13.3554 17.1794 19.1523C17.4487 20.1045 17.7792 20.961 18.1846 21.7579C18.8949 23.153 18.9101 23.127 17.4897 22.9518C16.0212 22.7709 15.3567 22.5134 13.2426 21.3061C9.50956 19.1741 7.49565 18.7404 4.85974 19.501C3.15028 19.9941 3.14792 20.0214 4.8073 20.1227C8.47979 20.3462 9.51795 21.0355 13.3134 25.7681C14.0256 26.6562 14.7913 27.4727 15.3716 27.9626C16.4206 28.8486 16.4255 28.8039 15.2335 29.2037C14.1599 29.5639 12.2168 29.6071 10.2561 29.3146C7.17836 28.8555 5.07267 29.0656 3.39258 29.9992C2.31561 30.5975 0.4302 32.2237 1.16601 31.9197C5.32887 30.199 6.87548 30.3858 11.9234 33.2196C13.5109 34.1109 14.3739 34.4914 15.4168 34.7602C16.3283 34.995 16.3233 34.97 15.5882 35.6435C14.3188 36.8072 13.8418 37.0413 11.4005 37.6987C6.64184 38.98 5.07293 40.0719 3.50927 43.1911C3.07843 44.0508 3.14058 44.0282 4.44044 42.8537C6.92609 40.6081 8.5658 40.2339 13.4755 40.7914C15.4516 41.0157 17.1021 41.0612 17.9842 40.9158C18.5892 40.8159 18.5928 40.8374 18.1305 41.8015C17.4726 43.1737 17.0478 43.6237 14.4476 45.7034C11.3735 48.162 10.3361 49.738 9.99442 52.4691C9.7807 54.1787 9.85465 54.1729 10.7247 52.4123C12.1688 49.49 13.316 48.6966 18.1675 47.2657C20.4206 46.6012 21.459 46.1922 22.4376 45.584L22.8829 45.307L22.8792 46.1275C22.8719 47.7346 22.5645 48.6285 21.2327 50.913C19.3725 54.104 18.6988 56.6439 19.2038 58.56C19.5023 59.6911 19.8827 60.8718 19.9491 60.8718C19.9887 60.8718 20.0493 60.1502 20.0836 59.2682C20.2103 56.0138 21.1561 54.4469 24.6642 51.6785C26.5808 50.1664 27.2138 49.5921 27.9211 48.724C28.7164 47.7478 28.6786 47.738 29.0869 49.0232C29.5099 50.3558 29.5262 51.3114 29.1716 54.0412C28.655 58.0193 29.0995 60.091 30.9595 62.3732C31.9143 63.5445 31.9224 63.523 31.2553 61.5885C30.2037 58.5387 30.5069 56.8637 32.873 52.6442C33.9827 50.6653 34.1387 50.3305 34.5116 49.1268C34.9068 47.8514 34.8554 47.8677 35.6557 48.7605C36.6073 49.8219 36.9359 50.5425 37.6602 53.1568C38.9039 57.6472 39.9964 59.1964 42.9839 60.7067C43.8388 61.1388 43.7966 61.0244 42.5956 59.6563C40.3454 57.0928 40.0635 55.6961 40.6986 50.2582C40.9181 48.3792 40.9273 47.458 40.739 46.1331L40.6679 45.6334L41.1276 45.7957C42.4956 46.2785 43.571 47.2042 45.1423 49.2523C48.0011 52.9782 49.4969 53.9239 53.14 54.3081C54.0441 54.4036 53.992 54.352 52.3509 53.5276C49.1984 51.9436 48.5132 50.9388 46.97 45.6342C46.4878 43.9777 46.2117 43.2303 45.7737 42.399C45.1132 41.1446 45.108 41.1548 46.3357 41.2653C47.8983 41.4057 48.4283 41.6111 50.9656 43.0596C54.572 45.1182 56.5529 45.5127 59.2465 44.7082C60.5471 44.3195 60.8156 44.172 60.2393 44.1623C55.9676 44.09 54.6355 43.3818 51.5823 39.5604C49.8459 37.3866 49.1476 36.6352 48.3168 36.0459C47.565 35.5126 47.58 35.4713 48.6674 35.0789C49.7709 34.6808 51.7344 34.6376 53.8996 34.964C57.5548 35.5147 59.7709 35.0326 62.1129 33.1778C63.3944 32.1627 63.3608 32.1425 61.5294 32.826L60.0295 33.3856H58.7196C56.6769 33.3856 55.7785 33.0811 52.5898 31.307C50.2287 29.9934 50.0677 29.9177 48.9651 29.6034C48.4228 29.449 47.9403 29.2865 47.8928 29.2423C47.7745 29.1324 49.0408 28.0129 49.8162 27.5419C50.4747 27.1419 50.7173 27.059 53.5852 26.2543C57.3194 25.2069 58.8683 24.0776 60.3439 21.3276C60.9947 20.1145 60.9486 20.1163 59.5708 21.3568C56.9897 23.6808 55.5139 24.0258 50.5987 23.4557C49.0227 23.2726 48.2859 23.2374 47.0623 23.2861C46.0785 23.325 45.5168 23.3097 45.5168 23.2442C45.5168 22.4724 46.9839 20.5676 48.4776 19.3997C52.8856 15.9536 53.8252 14.5569 54.052 11.1132L54.1144 10.1672L53.4009 11.5989C51.7984 14.8144 50.6651 15.6152 45.7525 17.0026C44.15 17.4552 43.4009 17.729 42.4332 18.2145C41.0135 18.9269 40.9871 18.9216 41.0786 17.9444C41.2443 16.174 41.5446 15.3908 43.0489 12.8034C45.0676 9.33228 45.3762 6.9594 44.2258 3.75682L44.0748 3.33657L44.0147 3.70448C43.982 3.90672 43.9258 4.66331 43.8904 5.38572C43.748 8.28956 42.7731 9.77303 39.0198 12.7981C37.2996 14.1845 36.5913 14.8549 35.8204 15.8253C35.3303 16.4425 35.2702 16.3962 34.874 15.0937C34.4665 13.754 34.4482 12.8975 34.7767 10.5352C35.216 7.37596 35.0361 5.23635 34.1906 3.56326C33.7908 2.77169 32.2087 0.746735 32.2087 1.02628Z"/>
</mask>
<path fill-rule="evenodd" clip-rule="evenodd" d="M32.2087 1.02628C32.2087 1.056 32.4497 1.79393 32.7439 2.66623C33.763 5.6871 33.4695 7.39095 31.2482 11.3467C30.0134 13.5458 29.7341 14.1464 29.453 15.2089C29.1409 16.3878 29.1207 16.391 28.2824 15.4056C27.3662 14.3287 26.97 13.4755 26.3868 11.3233C25.1126 6.622 24.2504 5.33523 21.2857 3.71053C20.1397 3.08253 20.1439 3.18457 21.3187 4.49264C23.4897 6.90996 23.9127 8.61092 23.422 12.9522C23.0835 15.9489 23.0609 16.396 23.1941 17.5065C23.3462 18.7741 23.3987 18.7307 22.3516 18.2029C20.7801 17.4103 20.4667 17.1102 18.4064 14.4233C16.0039 11.2904 14.1544 10.187 10.9374 9.96659L10.0466 9.90558L11.4569 10.5922C14.7732 12.2064 15.5413 13.3554 17.1794 19.1523C17.4487 20.1045 17.7792 20.961 18.1846 21.7579C18.8949 23.153 18.9101 23.127 17.4897 22.9518C16.0212 22.7709 15.3567 22.5134 13.2426 21.3061C9.50956 19.1741 7.49565 18.7404 4.85974 19.501C3.15028 19.9941 3.14792 20.0214 4.8073 20.1227C8.47979 20.3462 9.51795 21.0355 13.3134 25.7681C14.0256 26.6562 14.7913 27.4727 15.3716 27.9626C16.4206 28.8486 16.4255 28.8039 15.2335 29.2037C14.1599 29.5639 12.2168 29.6071 10.2561 29.3146C7.17836 28.8555 5.07267 29.0656 3.39258 29.9992C2.31561 30.5975 0.4302 32.2237 1.16601 31.9197C5.32887 30.199 6.87548 30.3858 11.9234 33.2196C13.5109 34.1109 14.3739 34.4914 15.4168 34.7602C16.3283 34.995 16.3233 34.97 15.5882 35.6435C14.3188 36.8072 13.8418 37.0413 11.4005 37.6987C6.64184 38.98 5.07293 40.0719 3.50927 43.1911C3.07843 44.0508 3.14058 44.0282 4.44044 42.8537C6.92609 40.6081 8.5658 40.2339 13.4755 40.7914C15.4516 41.0157 17.1021 41.0612 17.9842 40.9158C18.5892 40.8159 18.5928 40.8374 18.1305 41.8015C17.4726 43.1737 17.0478 43.6237 14.4476 45.7034C11.3735 48.162 10.3361 49.738 9.99442 52.4691C9.7807 54.1787 9.85465 54.1729 10.7247 52.4123C12.1688 49.49 13.316 48.6966 18.1675 47.2657C20.4206 46.6012 21.459 46.1922 22.4376 45.584L22.8829 45.307L22.8792 46.1275C22.8719 47.7346 22.5645 48.6285 21.2327 50.913C19.3725 54.104 18.6988 56.6439 19.2038 58.56C19.5023 59.6911 19.8827 60.8718 19.9491 60.8718C19.9887 60.8718 20.0493 60.1502 20.0836 59.2682C20.2103 56.0138 21.1561 54.4469 24.6642 51.6785C26.5808 50.1664 27.2138 49.5921 27.9211 48.724C28.7164 47.7478 28.6786 47.738 29.0869 49.0232C29.5099 50.3558 29.5262 51.3114 29.1716 54.0412C28.655 58.0193 29.0995 60.091 30.9595 62.3732C31.9143 63.5445 31.9224 63.523 31.2553 61.5885C30.2037 58.5387 30.5069 56.8637 32.873 52.6442C33.9827 50.6653 34.1387 50.3305 34.5116 49.1268C34.9068 47.8514 34.8554 47.8677 35.6557 48.7605C36.6073 49.8219 36.9359 50.5425 37.6602 53.1568C38.9039 57.6472 39.9964 59.1964 42.9839 60.7067C43.8388 61.1388 43.7966 61.0244 42.5956 59.6563C40.3454 57.0928 40.0635 55.6961 40.6986 50.2582C40.9181 48.3792 40.9273 47.458 40.739 46.1331L40.6679 45.6334L41.1276 45.7957C42.4956 46.2785 43.571 47.2042 45.1423 49.2523C48.0011 52.9782 49.4969 53.9239 53.14 54.3081C54.0441 54.4036 53.992 54.352 52.3509 53.5276C49.1984 51.9436 48.5132 50.9388 46.97 45.6342C46.4878 43.9777 46.2117 43.2303 45.7737 42.399C45.1132 41.1446 45.108 41.1548 46.3357 41.2653C47.8983 41.4057 48.4283 41.6111 50.9656 43.0596C54.572 45.1182 56.5529 45.5127 59.2465 44.7082C60.5471 44.3195 60.8156 44.172 60.2393 44.1623C55.9676 44.09 54.6355 43.3818 51.5823 39.5604C49.8459 37.3866 49.1476 36.6352 48.3168 36.0459C47.565 35.5126 47.58 35.4713 48.6674 35.0789C49.7709 34.6808 51.7344 34.6376 53.8996 34.964C57.5548 35.5147 59.7709 35.0326 62.1129 33.1778C63.3944 32.1627 63.3608 32.1425 61.5294 32.826L60.0295 33.3856H58.7196C56.6769 33.3856 55.7785 33.0811 52.5898 31.307C50.2287 29.9934 50.0677 29.9177 48.9651 29.6034C48.4228 29.449 47.9403 29.2865 47.8928 29.2423C47.7745 29.1324 49.0408 28.0129 49.8162 27.5419C50.4747 27.1419 50.7173 27.059 53.5852 26.2543C57.3194 25.2069 58.8683 24.0776 60.3439 21.3276C60.9947 20.1145 60.9486 20.1163 59.5708 21.3568C56.9897 23.6808 55.5139 24.0258 50.5987 23.4557C49.0227 23.2726 48.2859 23.2374 47.0623 23.2861C46.0785 23.325 45.5168 23.3097 45.5168 23.2442C45.5168 22.4724 46.9839 20.5676 48.4776 19.3997C52.8856 15.9536 53.8252 14.5569 54.052 11.1132L54.1144 10.1672L53.4009 11.5989C51.7984 14.8144 50.6651 15.6152 45.7525 17.0026C44.15 17.4552 43.4009 17.729 42.4332 18.2145C41.0135 18.9269 40.9871 18.9216 41.0786 17.9444C41.2443 16.174 41.5446 15.3908 43.0489 12.8034C45.0676 9.33228 45.3762 6.9594 44.2258 3.75682L44.0748 3.33657L44.0147 3.70448C43.982 3.90672 43.9258 4.66331 43.8904 5.38572C43.748 8.28956 42.7731 9.77303 39.0198 12.7981C37.2996 14.1845 36.5913 14.8549 35.8204 15.8253C35.3303 16.4425 35.2702 16.3962 34.874 15.0937C34.4665 13.754 34.4482 12.8975 34.7767 10.5352C35.216 7.37596 35.0361 5.23635 34.1906 3.56326C33.7908 2.77169 32.2087 0.746735 32.2087 1.02628Z" fill="#D0E1C4"/>
<path fill-rule="evenodd" clip-rule="evenodd" d="M32.2087 1.02628C32.2087 1.056 32.4497 1.79393 32.7439 2.66623C33.763 5.6871 33.4695 7.39095 31.2482 11.3467C30.0134 13.5458 29.7341 14.1464 29.453 15.2089C29.1409 16.3878 29.1207 16.391 28.2824 15.4056C27.3662 14.3287 26.97 13.4755 26.3868 11.3233C25.1126 6.622 24.2504 5.33523 21.2857 3.71053C20.1397 3.08253 20.1439 3.18457 21.3187 4.49264C23.4897 6.90996 23.9127 8.61092 23.422 12.9522C23.0835 15.9489 23.0609 16.396 23.1941 17.5065C23.3462 18.7741 23.3987 18.7307 22.3516 18.2029C20.7801 17.4103 20.4667 17.1102 18.4064 14.4233C16.0039 11.2904 14.1544 10.187 10.9374 9.96659L10.0466 9.90558L11.4569 10.5922C14.7732 12.2064 15.5413 13.3554 17.1794 19.1523C17.4487 20.1045 17.7792 20.961 18.1846 21.7579C18.8949 23.153 18.9101 23.127 17.4897 22.9518C16.0212 22.7709 15.3567 22.5134 13.2426 21.3061C9.50956 19.1741 7.49565 18.7404 4.85974 19.501C3.15028 19.9941 3.14792 20.0214 4.8073 20.1227C8.47979 20.3462 9.51795 21.0355 13.3134 25.7681C14.0256 26.6562 14.7913 27.4727 15.3716 27.9626C16.4206 28.8486 16.4255 28.8039 15.2335 29.2037C14.1599 29.5639 12.2168 29.6071 10.2561 29.3146C7.17836 28.8555 5.07267 29.0656 3.39258 29.9992C2.31561 30.5975 0.4302 32.2237 1.16601 31.9197C5.32887 30.199 6.87548 30.3858 11.9234 33.2196C13.5109 34.1109 14.3739 34.4914 15.4168 34.7602C16.3283 34.995 16.3233 34.97 15.5882 35.6435C14.3188 36.8072 13.8418 37.0413 11.4005 37.6987C6.64184 38.98 5.07293 40.0719 3.50927 43.1911C3.07843 44.0508 3.14058 44.0282 4.44044 42.8537C6.92609 40.6081 8.5658 40.2339 13.4755 40.7914C15.4516 41.0157 17.1021 41.0612 17.9842 40.9158C18.5892 40.8159 18.5928 40.8374 18.1305 41.8015C17.4726 43.1737 17.0478 43.6237 14.4476 45.7034C11.3735 48.162 10.3361 49.738 9.99442 52.4691C9.7807 54.1787 9.85465 54.1729 10.7247 52.4123C12.1688 49.49 13.316 48.6966 18.1675 47.2657C20.4206 46.6012 21.459 46.1922 22.4376 45.584L22.8829 45.307L22.8792 46.1275C22.8719 47.7346 22.5645 48.6285 21.2327 50.913C19.3725 54.104 18.6988 56.6439 19.2038 58.56C19.5023 59.6911 19.8827 60.8718 19.9491 60.8718C19.9887 60.8718 20.0493 60.1502 20.0836 59.2682C20.2103 56.0138 21.1561 54.4469 24.6642 51.6785C26.5808 50.1664 27.2138 49.5921 27.9211 48.724C28.7164 47.7478 28.6786 47.738 29.0869 49.0232C29.5099 50.3558 29.5262 51.3114 29.1716 54.0412C28.655 58.0193 29.0995 60.091 30.9595 62.3732C31.9143 63.5445 31.9224 63.523 31.2553 61.5885C30.2037 58.5387 30.5069 56.8637 32.873 52.6442C33.9827 50.6653 34.1387 50.3305 34.5116 49.1268C34.9068 47.8514 34.8554 47.8677 35.6557 48.7605C36.6073 49.8219 36.9359 50.5425 37.6602 53.1568C38.9039 57.6472 39.9964 59.1964 42.9839 60.7067C43.8388 61.1388 43.7966 61.0244 42.5956 59.6563C40.3454 57.0928 40.0635 55.6961 40.6986 50.2582C40.9181 48.3792 40.9273 47.458 40.739 46.1331L40.6679 45.6334L41.1276 45.7957C42.4956 46.2785 43.571 47.2042 45.1423 49.2523C48.0011 52.9782 49.4969 53.9239 53.14 54.3081C54.0441 54.4036 53.992 54.352 52.3509 53.5276C49.1984 51.9436 48.5132 50.9388 46.97 45.6342C46.4878 43.9777 46.2117 43.2303 45.7737 42.399C45.1132 41.1446 45.108 41.1548 46.3357 41.2653C47.8983 41.4057 48.4283 41.6111 50.9656 43.0596C54.572 45.1182 56.5529 45.5127 59.2465 44.7082C60.5471 44.3195 60.8156 44.172 60.2393 44.1623C55.9676 44.09 54.6355 43.3818 51.5823 39.5604C49.8459 37.3866 49.1476 36.6352 48.3168 36.0459C47.565 35.5126 47.58 35.4713 48.6674 35.0789C49.7709 34.6808 51.7344 34.6376 53.8996 34.964C57.5548 35.5147 59.7709 35.0326 62.1129 33.1778C63.3944 32.1627 63.3608 32.1425 61.5294 32.826L60.0295 33.3856H58.7196C56.6769 33.3856 55.7785 33.0811 52.5898 31.307C50.2287 29.9934 50.0677 29.9177 48.9651 29.6034C48.4228 29.449 47.9403 29.2865 47.8928 29.2423C47.7745 29.1324 49.0408 28.0129 49.8162 27.5419C50.4747 27.1419 50.7173 27.059 53.5852 26.2543C57.3194 25.2069 58.8683 24.0776 60.3439 21.3276C60.9947 20.1145 60.9486 20.1163 59.5708 21.3568C56.9897 23.6808 55.5139 24.0258 50.5987 23.4557C49.0227 23.2726 48.2859 23.2374 47.0623 23.2861C46.0785 23.325 45.5168 23.3097 45.5168 23.2442C45.5168 22.4724 46.9839 20.5676 48.4776 19.3997C52.8856 15.9536 53.8252 14.5569 54.052 11.1132L54.1144 10.1672L53.4009 11.5989C51.7984 14.8144 50.6651 15.6152 45.7525 17.0026C44.15 17.4552 43.4009 17.729 42.4332 18.2145C41.0135 18.9269 40.9871 18.9216 41.0786 17.9444C41.2443 16.174 41.5446 15.3908 43.0489 12.8034C45.0676 9.33228 45.3762 6.9594 44.2258 3.75682L44.0748 3.33657L44.0147 3.70448C43.982 3.90672 43.9258 4.66331 43.8904 5.38572C43.748 8.28956 42.7731 9.77303 39.0198 12.7981C37.2996 14.1845 36.5913 14.8549 35.8204 15.8253C35.3303 16.4425 35.2702 16.3962 34.874 15.0937C34.4665 13.754 34.4482 12.8975 34.7767 10.5352C35.216 7.37596 35.0361 5.23635 34.1906 3.56326C33.7908 2.77169 32.2087 0.746735 32.2087 1.02628Z" stroke="black" stroke-width="1.85075" stroke-linejoin="round" mask="url(#path-1-outside-1)"/>
</g>
<path d="M33.8099 37.4445H30.2874L29.1685 38.4833C29.6381 39.065 31.2406 40.4778 32.0694 40.4778C32.8982 40.4778 34.3349 39.1204 34.8046 38.4417L33.8099 37.4445Z" fill="black"/>
<path d="M34.2647 38.6022C35.8058 38.2473 36.6475 37.7537 37.4492 36.5267" stroke="black" stroke-width="0.796365"/>
<path d="M29.8448 38.6021C28.3036 38.2472 27.462 37.7537 26.6603 36.5267" stroke="black" stroke-width="0.796365"/>
<rect x="31.7166" y="34.1719" width="0.716509" height="3.43245" fill="black"/>
<rect x="30.5217" y="27.7859" width="0.79612" height="7.18419" fill="black"/>
<rect x="33.4671" y="34.1719" width="0.798244" height="2.86603" transform="rotate(90 33.4671 34.1719)" fill="black"/>
<path d="M22.1627 27.8265C22.1627 22.0791 30.92 21.9992 30.92 27.8265" stroke="black" stroke-width="0.796365" stroke-linecap="round"/>
<path d="M33.3088 27.8258C33.3088 22.0784 42.0661 21.9986 42.0661 27.8258" stroke="black" stroke-width="0.796365" stroke-linecap="round" stroke-linejoin="round"/>
<path d="M33.389 34.571C34.5371 34.571 34.5487 33.1245 33.4686 33.0568M33.4686 33.0568C33.4427 33.0551 33.456 33.0568 33.4288 33.0568L33.4686 33.0568Z" stroke="black" stroke-width="0.796365" stroke-linejoin="round"/>
<path d="M40.2388 27.6978L35.3557 27.8267H35.2593L35.6448 29.2118L37.99 30.4358L39.9497 29.2118L40.2388 27.6978Z" fill="#C8BBF8"/>
<path fill-rule="evenodd" clip-rule="evenodd" d="M39.9626 28.1851C39.7916 29.2289 38.8881 30.0229 37.8026 30.0229C36.7171 30.0229 35.8135 29.2289 35.6426 28.1851H39.9626ZM39.948 27.3868H35.6572C35.86 26.3825 36.7449 25.6288 37.8026 25.6288C38.8602 25.6288 39.7452 26.3825 39.948 27.3868ZM40.788 27.8258C40.788 29.479 39.4514 30.8192 37.8026 30.8192C36.1538 30.8192 34.8171 29.479 34.8171 27.8258C34.8171 26.1726 36.1538 24.8324 37.8026 24.8324C39.4514 24.8324 40.788 26.1726 40.788 27.8258Z" fill="black"/>
<path fill-rule="evenodd" clip-rule="evenodd" d="M39.1893 28.0254H36.3408C36.42 28.7438 37.0274 29.3026 37.7651 29.3026C38.5027 29.3026 39.1101 28.7438 39.1893 28.0254Z" fill="black"/>
<path d="M28.9924 27.6978L24.1094 27.8267H24.013L24.3985 29.2118L26.7437 30.4358L28.7033 29.2118L28.9924 27.6978Z" fill="#C8BBF8"/>
<path fill-rule="evenodd" clip-rule="evenodd" d="M28.7164 28.1851C28.5454 29.2289 27.6418 30.0229 26.5564 30.0229C25.4709 30.0229 24.5673 29.2289 24.3964 28.1851H28.7164ZM28.7018 27.3868H24.411C24.6138 26.3825 25.4987 25.6288 26.5564 25.6288C27.614 25.6288 28.499 26.3825 28.7018 27.3868ZM29.5418 27.8258C29.5418 29.479 28.2052 30.8192 26.5564 30.8192C24.9076 30.8192 23.5709 29.479 23.5709 27.8258C23.5709 26.1726 24.9076 24.8324 26.5564 24.8324C28.2052 24.8324 29.5418 26.1726 29.5418 27.8258Z" fill="black"/>
<path fill-rule="evenodd" clip-rule="evenodd" d="M27.9431 28.0254H25.0946C25.1738 28.7438 25.7812 29.3026 26.5188 29.3026C27.2565 29.3026 27.8639 28.7438 27.9431 28.0254Z" fill="black"/>
<defs>
<filter id="filter0_d" x="0.0745697" y="0.0746155" width="64.978" height="65.1434" filterUnits="userSpaceOnUse" color-interpolation-filters="sRGB">
<feFlood flood-opacity="0" result="BackgroundImageFix"/>
<feColorMatrix in="SourceAlpha" type="matrix" values="0 0 0 0 0 0 0 0 0 0 0 0 0 0 0 0 0 0 127 0"/>
<feOffset dx="1.12727" dy="1.12727"/>
<feColorMatrix type="matrix" values="0 0 0 0 0 0 0 0 0 0 0 0 0 0 0 0 0 0 1 0"/>
<feBlend mode="normal" in2="BackgroundImageFix" result="effect1_dropShadow"/>
<feBlend mode="normal" in="SourceGraphic" in2="effect1_dropShadow" result="shape"/>
</filter>
</defs>
</svg>
