<svg width="98" height="26" viewBox="0 0 98 26" fill="none" xmlns="http://www.w3.org/2000/svg">
<path d="M15.9008 10.5659C15.9008 8.33249 12.5673 7.76579 10.8339 7.76579C7.40038 7.76579 2.83348 9.56588 2.83348 13.5661C2.83348 17.2996 7.00036 19.033 7.00036 20.7998C7.00036 21.5332 6.23366 21.8998 5.56696 21.8998C3.9002 21.8998 4.13355 19.6664 2.73348 19.6664C1.60009 19.6664 0.966721 21.0331 0.966721 22.0332C0.966721 24.8333 4.90026 25.4334 7.0337 25.4334C10.4005 25.4334 15.2675 23.9333 15.2675 19.7997C15.2675 15.7995 10.5005 14.1995 10.5005 12.0327C10.5005 11.466 10.9672 11.066 11.5339 11.066C12.8007 11.066 12.8007 12.9994 14.1341 12.9994C15.3008 12.9994 15.9008 11.566 15.9008 10.5659Z" fill="black"/>
<path d="M24.1661 20.1998C23.4994 20.2664 23.3994 19.3997 23.3994 18.8997C23.3661 16.7663 25.5995 11.7993 27.3663 11.666C27.8996 11.6327 28.033 12.2994 28.033 12.7327C28.0997 14.3995 25.9329 20.0664 24.1661 20.1998ZM33.4333 7.93246C32.3999 7.93246 31.5332 8.33249 30.5998 8.79918C30.2998 8.96585 29.6997 9.33254 29.333 9.33254C28.3663 9.33254 27.433 7.73246 25.0995 7.9658C19.9659 8.43249 16.2324 14.0328 15.9657 20.0331C15.8324 22.7332 17.0991 25.4334 20.1659 25.4334C23.5994 25.4334 25.2328 22.4332 26.0996 22.4332C27.1663 22.4332 25.7329 25.2667 28.6997 25.2667C30.5331 25.2667 35.4 23.3333 35.4 21.1665C35.4 20.6331 35.0667 20.3998 34.5667 20.3331C34.2 20.2998 33.9666 20.3331 33.8333 19.9331C33.6333 19.3997 33.7666 18.333 33.7999 17.7996C34.0666 14.1995 34.6667 11.1993 34.8 9.1992C34.8667 8.26581 34.3666 7.93246 33.4333 7.93246Z" fill="black"/>
<path d="M45.0055 14.2995C45.5055 11.3993 45.5055 11.4993 47.8056 11.4993C48.7057 11.4993 48.7057 10.7993 48.8057 10.0659C48.8724 9.63255 48.9724 9.09919 48.9724 8.6325C48.9724 8.13247 48.5723 8.03247 48.139 8.03247C47.1389 8.03247 46.0389 8.36582 46.0389 7.36577C46.0389 6.83241 46.2722 4.93231 46.3389 4.26561C46.3389 3.3989 45.9055 3.03221 45.0722 3.03221C43.7721 3.03221 42.072 3.19889 40.9053 3.76559C40.0052 4.19894 39.6386 5.16566 39.3385 6.16571C38.8718 7.69912 38.7718 8.03247 37.7051 8.16581C36.3051 8.29915 35.605 9.09919 35.605 10.5326C35.605 11.4326 36.0384 11.666 36.8384 11.666C38.1718 11.666 38.2718 11.8327 38.0385 13.1327L37.0384 18.9997C36.8717 20.0331 36.7051 21.0998 36.7051 22.1665C36.7051 24.3 38.0385 25.2667 40.0386 25.2667C41.972 25.2667 48.3057 23.1332 48.3057 20.5331C48.3057 19.9664 48.1057 19.333 47.4056 19.333C46.9056 19.333 46.3056 19.9664 45.5055 19.9664C44.6721 19.9664 44.2388 19.0664 44.5721 17.5996L45.0055 14.2995Z" fill="black"/>
<path d="M49.9097 21.1998C49.8097 21.8332 49.7097 22.4332 49.7097 23.0666C49.7097 24.4666 51.1431 25.2334 52.4098 25.2334C54.3099 25.2334 59.5769 23.6999 59.5769 21.1665C59.5769 20.3664 59.1102 20.3331 58.4768 20.3331C57.9434 20.3331 57.5101 20.3331 57.5767 19.6997C57.7434 18.3997 58.3435 14.5661 58.4101 14.1995C58.4768 13.7328 58.9768 10.8993 58.9768 9.46588C58.9768 8.46583 58.5101 7.93246 57.4767 7.93246C55.7767 7.93246 53.2432 8.66584 51.6764 9.33254C50.5764 9.79923 49.043 10.4326 49.043 11.866C49.043 13.0661 49.843 13.0327 50.343 13.0327C50.9097 13.0327 51.0764 13.2661 51.0764 13.6994C51.0764 14.1328 50.9097 14.7661 50.7764 15.5329L49.9097 21.1998ZM53.5432 6.56573C55.5433 6.69907 60.2102 5.03232 60.2436 2.59886C60.2769 1.16545 58.6768 0.698761 57.4767 0.698761C55.3433 0.698761 50.5764 2.0655 50.5764 4.7323C50.5764 6.19904 52.4098 6.49906 53.5432 6.56573Z" fill="black"/>
<path d="M69.6902 9.89923C69.6902 8.39916 68.7901 7.93246 67.4234 7.93246C65.4566 7.93246 59.9563 8.93252 59.9563 11.566C59.9563 12.4994 60.423 12.4327 61.1564 12.4994C61.7564 12.5327 62.0231 12.7994 62.0231 13.3994C62.0231 14.3995 61.023 18.233 61.023 20.4331C61.023 23.8666 64.2232 25.4334 67.2567 25.4334C74.7571 25.4334 78.2239 18.2997 78.2239 11.666C78.2239 9.63255 77.5906 7.9658 75.3238 7.9658C74.0904 7.9658 72.4236 8.36582 72.4236 9.8659C72.4236 11.2326 74.2237 12.6994 74.2237 14.9328C74.2237 17.1996 72.9903 21.2331 70.1902 21.2331C67.7901 21.2331 68.5901 17.8663 68.7901 16.4329C69.0901 14.3661 69.6902 11.8993 69.6902 9.89923Z" fill="black"/>
<path d="M86.4947 20.1998C85.828 20.2664 85.728 19.3997 85.728 18.8997C85.6947 16.7663 87.9281 11.7993 89.6949 11.666C90.2282 11.6327 90.3616 12.2994 90.3616 12.7327C90.4282 14.3995 88.2615 20.0664 86.4947 20.1998ZM95.7618 7.93246C94.7285 7.93246 93.8617 8.33249 92.9284 8.79918C92.6284 8.96585 92.0283 9.33254 91.6616 9.33254C90.6949 9.33254 89.7615 7.73246 87.4281 7.9658C82.2945 8.43249 78.561 14.0328 78.2943 20.0331C78.1609 22.7332 79.4277 25.4334 82.4945 25.4334C85.928 25.4334 87.5614 22.4332 88.4281 22.4332C89.4949 22.4332 88.0615 25.2667 91.0283 25.2667C92.8617 25.2667 97.7286 23.3333 97.7286 21.1665C97.7286 20.6331 97.3953 20.3998 96.8952 20.3331C96.5286 20.2998 96.2952 20.3331 96.1619 19.9331C95.9619 19.3997 96.0952 18.333 96.1285 17.7996C96.3952 14.1995 96.9952 11.1993 97.1286 9.1992C97.1953 8.26581 96.6952 7.93246 95.7618 7.93246Z" fill="black"/>
</svg>
