<svg width="83" height="83" viewBox="0 0 83 83" fill="none" xmlns="http://www.w3.org/2000/svg">
<path fill-rule="evenodd" clip-rule="evenodd" d="M41.6683 0.0350923C41.6683 0.0747687 41.9901 1.06001 42.3829 2.22467C43.7434 6.25798 43.3517 8.53287 40.3859 13.8144C38.7372 16.7505 38.3643 17.5524 37.989 18.9709C37.5724 20.545 37.5454 20.5492 36.4261 19.2336C35.2028 17.7957 34.6738 16.6567 33.8951 13.7832C32.1939 7.5062 31.0428 5.78818 27.0844 3.61896C25.5544 2.78049 25.56 2.91673 27.1285 4.66319C30.0271 7.89068 30.5918 10.1617 29.9368 15.958C29.4848 19.959 29.4546 20.5559 29.6325 22.0387C29.8356 23.7311 29.9056 23.6731 28.5076 22.9684C26.4094 21.9102 25.991 21.5095 23.2401 17.9222C20.0324 13.7393 17.5631 12.266 13.2679 11.9717L12.0786 11.8903L13.9615 12.807C18.3893 14.9622 19.4148 16.4963 21.602 24.236C21.9615 25.5074 22.4027 26.651 22.9439 27.7149C23.8924 29.5775 23.9127 29.5428 22.0162 29.3089C20.0555 29.0674 19.1683 28.7236 16.3457 27.1116C11.3615 24.2651 8.67266 23.6861 5.15333 24.7016C2.87095 25.3599 2.8678 25.3964 5.08331 25.5316C9.98663 25.8301 11.3727 26.7503 16.4403 33.0691C17.3912 34.2548 18.4135 35.345 19.1883 35.9992C20.5887 37.1821 20.5954 37.1224 19.0038 37.6561C17.5704 38.1371 14.9761 38.1947 12.3583 37.8043C8.24903 37.1912 5.43762 37.4718 3.19445 38.7182C1.75654 39.517 -0.760768 41.6883 0.221648 41.2824C5.77968 38.9851 7.84465 39.2344 14.5843 43.018C16.7039 44.208 17.8561 44.716 19.2485 45.0749C20.4655 45.3884 20.4588 45.3551 19.4775 46.2543C17.7826 47.808 17.1457 48.1205 13.8862 48.9983C7.5327 50.7089 5.43797 52.1668 3.35025 56.3314C2.77502 57.4792 2.858 57.449 4.5935 55.8809C7.91222 52.8827 10.1015 52.3831 16.6566 53.1274C19.2951 53.427 21.4987 53.4877 22.6765 53.2935C23.4842 53.1601 23.4891 53.1889 22.8718 54.4761C21.9934 56.3082 21.4262 56.909 17.9545 59.6856C13.8501 62.9683 12.4651 65.0725 12.0089 68.7189C11.7235 71.0015 11.8223 70.9938 12.9839 68.643C14.912 64.7414 16.4438 63.6821 22.9212 61.7716C25.9294 60.8844 27.3158 60.3384 28.6224 59.5262L29.2169 59.1565L29.212 60.252C29.2022 62.3977 28.7919 63.5911 27.0137 66.6413C24.53 70.9018 23.6305 74.2929 24.3048 76.8512C24.7033 78.3613 25.2113 79.9378 25.2999 79.9378C25.3527 79.9378 25.4336 78.9744 25.4795 77.7967C25.6486 73.4516 26.9114 71.3597 31.5952 67.6634C34.1542 65.6445 34.9994 64.8777 35.9436 63.7186C37.0055 62.4153 36.9551 62.4023 37.5002 64.1182C38.065 65.8973 38.0867 67.1733 37.6133 70.8179C36.9236 76.1293 37.517 78.8954 40.0004 81.9424C41.2751 83.5063 41.286 83.4775 40.3953 80.8946C38.9914 76.8227 39.3961 74.5864 42.5552 68.9527C44.0368 66.3106 44.2451 65.8636 44.743 64.2565C45.2706 62.5536 45.202 62.5754 46.2705 63.7674C47.5411 65.1845 47.9798 66.1466 48.9468 69.6371C50.6074 75.6324 52.066 77.7009 56.0548 79.7173C57.1962 80.2942 57.1398 80.1415 55.5363 78.315C52.532 74.8923 52.1556 73.0275 53.0036 65.767C53.2966 63.2583 53.3089 62.0283 53.0575 60.2594L52.9626 59.5923L53.5763 59.8089C55.4029 60.4535 56.8387 61.6895 58.9366 64.424C62.7535 69.3987 64.7505 70.6613 69.6147 71.1743C70.8218 71.3017 70.7522 71.2329 68.5612 70.1321C64.3521 68.0174 63.4373 66.6757 61.3768 59.5933C60.733 57.3816 60.3643 56.3837 59.7796 55.2738C58.8977 53.599 58.8907 53.6127 60.5299 53.7602C62.6162 53.9477 63.3238 54.2219 66.7115 56.1558C71.5266 58.9044 74.1714 59.4311 77.7677 58.357C79.5043 57.8381 79.8628 57.6411 79.0932 57.6281C73.3899 57.5315 71.6113 56.586 67.535 51.4839C65.2165 48.5815 64.2842 47.5784 63.175 46.7915C62.1713 46.0794 62.1912 46.0243 63.6431 45.5004C65.1164 44.9688 67.738 44.9113 70.6289 45.347C75.5091 46.0822 78.4679 45.4386 81.5948 42.9622C83.3058 41.6069 83.261 41.5798 80.8158 42.4924L78.8132 43.2396H77.0643C74.337 43.2396 73.1375 42.833 68.8801 40.4643C65.7277 38.7105 65.5127 38.6094 64.0405 38.1898C63.3165 37.9837 62.6723 37.7667 62.6089 37.7077C62.451 37.5609 64.1417 36.0662 65.177 35.4374C66.0561 34.9033 66.38 34.7927 70.2091 33.7183C75.1947 32.3198 77.2629 30.8121 79.2329 27.1404C80.1019 25.5207 80.0403 25.5232 78.2008 27.1794C74.7547 30.2822 72.7842 30.7429 66.2217 29.9817C64.1175 29.7373 63.1337 29.6903 61.5001 29.7552C60.1865 29.8072 59.4365 29.7868 59.4365 29.6994C59.4365 28.6688 61.3954 26.1257 63.3897 24.5664C69.275 19.9653 70.5295 18.1005 70.8323 13.5026L70.9157 12.2396L69.963 14.1511C67.8235 18.4443 66.3103 19.5134 59.7513 21.3659C57.6117 21.9702 56.6115 22.3357 55.3196 22.9839C53.424 23.9351 53.3887 23.928 53.5109 22.6233C53.7321 20.2595 54.133 19.2139 56.1416 15.7593C58.8368 11.1248 59.2489 7.95669 57.7129 3.68076L57.5113 3.11967L57.4311 3.61089C57.3873 3.8809 57.3124 4.89107 57.2651 5.85559C57.075 9.73265 55.7733 11.7133 50.7621 15.7522C48.4654 17.6033 47.5197 18.4983 46.4904 19.794C45.8361 20.618 45.7559 20.5562 45.2269 18.8172C44.6828 17.0286 44.6583 15.885 45.097 12.7309C45.6834 8.51286 45.4432 5.65616 44.3145 3.42234C43.7805 2.36547 41.6683 -0.338147 41.6683 0.0350923Z" fill="#F89F8F"/>
<path d="M43.9957 49.0156H39.7418L38.3906 50.2701C38.9578 50.9726 40.8929 52.6787 41.8938 52.6787C42.8947 52.6787 44.6296 51.0395 45.1968 50.2199L43.9957 49.0156Z" fill="#345C19"/>
<path d="M44.5451 50.413C46.4062 49.9845 47.4225 49.3885 48.3906 47.9067" stroke="#345C19" stroke-width="0.961689"/>
<path d="M39.2089 50.4125C37.3477 49.984 36.3314 49.388 35.3633 47.9062" stroke="#345C19" stroke-width="0.961689"/>
<rect x="41.4727" y="45.0635" width="0.865254" height="4.14501" fill="#345C19"/>
<rect x="40.0273" y="37.3516" width="0.961393" height="8.67561" fill="#345C19"/>
<rect x="43.5859" y="45.0635" width="0.963957" height="3.46102" transform="rotate(90 43.5859 45.0635)" fill="#345C19"/>
<path d="M29.9336 37.4003C29.9336 30.4598 40.5089 30.3634 40.5089 37.4003" stroke="#345C19" stroke-width="0.961689" stroke-linecap="round"/>
<path d="M43.3945 37.3998C43.3945 30.4593 53.9699 30.3629 53.9699 37.3998" stroke="#345C19" stroke-width="0.961689" stroke-linecap="round" stroke-linejoin="round"/>
<path d="M43.4893 45.5452C44.8758 45.5452 44.8898 43.7985 43.5855 43.7167M43.5855 43.7167C43.5542 43.7147 43.5702 43.7167 43.5374 43.7167L43.5855 43.7167Z" stroke="#345C19" stroke-width="0.961689" stroke-linejoin="round"/>
<path d="M51.7671 37.2461L45.8703 37.4017H45.7539L46.2194 39.0743L49.0514 40.5524L51.4179 39.0743L51.7671 37.2461Z" fill="#AFB9FF"/>
<path fill-rule="evenodd" clip-rule="evenodd" d="M51.4363 37.8341C51.2299 39.0948 50.1388 40.0536 48.8279 40.0536C47.517 40.0536 46.4258 39.0948 46.2195 37.8341H51.4363ZM51.4186 36.8702H46.2371C46.4821 35.6575 47.5507 34.7473 48.8279 34.7473C50.105 34.7473 51.1737 35.6575 51.4186 36.8702ZM52.4331 37.4005C52.4331 39.3969 50.819 41.0153 48.8279 41.0153C46.8368 41.0153 45.2227 39.3969 45.2227 37.4005C45.2227 35.4041 46.8368 33.7856 48.8279 33.7856C50.819 33.7856 52.4331 35.4041 52.4331 37.4005Z" fill="#345C19"/>
<path fill-rule="evenodd" clip-rule="evenodd" d="M50.4985 37.6416H47.0586C47.1542 38.5092 47.8878 39.1839 48.7785 39.1839C49.6693 39.1839 50.4028 38.5092 50.4985 37.6416Z" fill="#345C19"/>
<path d="M38.185 37.2451L32.2883 37.4007H32.1719L32.6374 39.0733L35.4694 40.5515L37.8359 39.0733L38.185 37.2451Z" fill="#AFB9FF"/>
<path fill-rule="evenodd" clip-rule="evenodd" d="M37.8543 37.8336C37.6479 39.0943 36.5567 40.0531 35.2458 40.0531C33.935 40.0531 32.8438 39.0943 32.6374 37.8336H37.8543ZM37.8366 36.8697H32.6551C32.9001 35.657 33.9687 34.7468 35.2458 34.7468C36.523 34.7468 37.5916 35.657 37.8366 36.8697ZM38.8511 37.4C38.8511 39.3964 37.237 41.0148 35.2458 41.0148C33.2547 41.0148 31.6406 39.3964 31.6406 37.4C31.6406 35.4036 33.2547 33.7852 35.2458 33.7852C37.237 33.7852 38.8511 35.4036 38.8511 37.4Z" fill="#345C19"/>
<path fill-rule="evenodd" clip-rule="evenodd" d="M36.9204 37.6416H33.4805C33.5761 38.5092 34.3097 39.1839 35.2004 39.1839C36.0912 39.1839 36.8247 38.5092 36.9204 37.6416Z" fill="#345C19"/>
</svg>
