<svg width="48" height="48" viewBox="0 0 48 48" fill="none" xmlns="http://www.w3.org/2000/svg">
<mask id="path-1-outside-1" maskUnits="userSpaceOnUse" x="0" y="0.221436" width="48" height="48" fill="black">
<rect fill="white" y="0.221436" width="48" height="48"/>
<path fill-rule="evenodd" clip-rule="evenodd" d="M23.9821 1.24079C23.9821 1.26267 24.1596 1.80608 24.3762 2.44845C25.1266 4.67302 24.9106 5.92773 23.2748 8.84076C22.3655 10.4601 22.1598 10.9025 21.9528 11.6848C21.723 12.553 21.7081 12.5553 21.0908 11.8297C20.4161 11.0367 20.1243 10.4084 19.6948 8.82352C18.7565 5.36147 18.1216 4.4139 15.9384 3.21747C15.0945 2.75501 15.0976 2.83015 15.9627 3.79341C17.5614 5.57353 17.8729 6.82612 17.5116 10.023C17.2623 12.2298 17.2457 12.559 17.3438 13.3768C17.4558 14.3103 17.4944 14.2783 16.7233 13.8896C15.5661 13.306 15.3353 13.085 13.8181 11.1064C12.0489 8.79931 10.6869 7.98672 8.31789 7.82443L7.66192 7.7795L8.70043 8.28515C11.1426 9.47383 11.7082 10.3199 12.9145 14.5888C13.1129 15.29 13.3562 15.9207 13.6547 16.5075C14.1778 17.5349 14.189 17.5157 13.143 17.3867C12.0616 17.2535 11.5723 17.0639 10.0155 16.1748C7.26644 14.6048 5.7834 14.2855 3.84232 14.8456C2.58347 15.2087 2.58173 15.2288 3.80369 15.3034C6.50812 15.468 7.27262 15.9756 10.0676 19.4606C10.5921 20.1146 11.1559 20.7159 11.5833 21.0767C12.3557 21.7292 12.3594 21.6963 11.4815 21.9906C10.6909 22.2559 9.26005 22.2877 7.81621 22.0723C5.54974 21.7342 3.99912 21.8889 2.7619 22.5764C1.96882 23.017 0.580399 24.2146 1.12225 23.9907C4.18778 22.7236 5.32671 22.8611 9.04396 24.948C10.213 25.6043 10.8485 25.8845 11.6165 26.0824C12.2877 26.2554 12.2841 26.237 11.7428 26.7329C10.808 27.5899 10.4567 27.7622 8.65891 28.2464C5.15465 29.1899 3.99931 29.994 2.84783 32.291C2.53056 32.924 2.57632 32.9074 3.53354 32.0425C5.36398 30.3888 6.57146 30.1133 10.1869 30.5238C11.6422 30.689 12.8576 30.7225 13.5072 30.6154C13.9527 30.5418 13.9554 30.5577 13.6149 31.2677C13.1304 32.2782 12.8176 32.6095 10.9028 34.141C8.63902 35.9515 7.8751 37.1121 7.62349 39.1233C7.46611 40.3822 7.52056 40.378 8.16128 39.0814C9.22471 36.9295 10.0695 36.3452 13.6422 35.2915C15.3013 34.8021 16.066 34.501 16.7867 34.0531L17.1146 33.8491L17.1119 34.4534C17.1064 35.6368 16.8801 36.2951 15.8994 37.9774C14.5295 40.3272 14.0334 42.1976 14.4053 43.6086C14.6251 44.4415 14.9053 45.3111 14.9541 45.3111C14.9833 45.3111 15.0279 44.7797 15.0532 44.1301C15.1464 41.7336 15.843 40.5798 18.4263 38.5411C19.8377 37.4276 20.3039 37.0046 20.8247 36.3654C21.4104 35.6465 21.3826 35.6393 21.6832 36.5858C21.9947 37.567 22.0067 38.2708 21.7456 40.281C21.3652 43.2104 21.6925 44.7361 23.0622 46.4167C23.7653 47.2792 23.7712 47.2634 23.28 45.8388C22.5056 43.5929 22.7289 42.3595 24.4713 39.2522C25.2885 37.795 25.4034 37.5484 25.678 36.662C25.969 35.7228 25.9311 35.7348 26.5205 36.3923C27.2212 37.1739 27.4632 37.7045 27.9966 39.6297C28.9125 42.9364 29.7169 44.0773 31.917 45.1895C32.5465 45.5076 32.5154 45.4234 31.631 44.416C29.9739 42.5282 29.7664 41.4997 30.2341 37.4952C30.3957 36.1115 30.4024 35.4331 30.2638 34.4574L30.2115 34.0895L30.55 34.209C31.5574 34.5645 32.3493 35.2462 33.5064 36.7544C35.6116 39.4982 36.7131 40.1946 39.3959 40.4775C40.0617 40.5478 40.0233 40.5099 38.8148 39.9027C36.4933 38.7363 35.9888 37.9964 34.8523 34.0901C34.4972 32.8702 34.2939 32.3198 33.9714 31.7077C33.485 30.7839 33.4811 30.7915 34.3852 30.8728C35.5359 30.9762 35.9262 31.1275 37.7947 32.1941C40.4504 33.7101 41.9091 34.0006 43.8927 33.4082C44.8505 33.122 45.0482 33.0133 44.6238 33.0061C41.4781 32.9529 40.4972 32.4314 38.2489 29.6173C36.9701 28.0165 36.4559 27.4632 35.8441 27.0292C35.2905 26.6365 35.3015 26.6061 36.1023 26.3172C36.9149 26.024 38.3608 25.9922 39.9553 26.2325C42.647 26.638 44.2789 26.2831 46.0035 24.9172C46.9472 24.1697 46.9225 24.1548 45.5739 24.6581L44.4693 25.0702H43.5048C42.0005 25.0702 41.3389 24.8459 38.9908 23.5395C37.252 22.5722 37.1335 22.5164 36.3215 22.285C35.9221 22.1713 35.5668 22.0516 35.5319 22.0191C35.4448 21.9381 36.3773 21.1137 36.9483 20.7669C37.4332 20.4723 37.6118 20.4113 39.7238 19.8187C42.4736 19.0474 43.6143 18.2158 44.7008 16.1907C45.1801 15.2974 45.1461 15.2987 44.1316 16.2122C42.2309 17.9236 41.1441 18.1777 37.5245 17.7578C36.364 17.623 35.8213 17.5971 34.9203 17.6329C34.1958 17.6616 33.7822 17.6503 33.7822 17.6021C33.7822 17.0337 34.8626 15.631 35.9625 14.771C39.2086 12.2333 39.9005 11.2048 40.0675 8.66879L40.1135 7.97219L39.588 9.02648C38.408 11.3943 37.5734 11.984 33.9558 13.0058C32.7757 13.3391 32.224 13.5407 31.5114 13.8982C30.466 14.4228 30.4465 14.4189 30.5139 13.6993C30.6359 12.3956 30.857 11.8189 31.9649 9.91344C33.4514 7.35733 33.6786 5.60994 32.8315 3.25155L32.7203 2.94209L32.6761 3.21302C32.6519 3.36194 32.6106 3.9191 32.5845 4.45108C32.4797 6.58947 31.7617 7.6819 28.9978 9.90956C27.731 10.9305 27.2095 11.4242 26.6417 12.1388C26.2808 12.5933 26.2366 12.5592 25.9448 11.6C25.6447 10.6135 25.6312 9.98277 25.8732 8.24312C26.1966 5.9167 26.0642 4.34108 25.4416 3.10902C25.1471 2.52611 23.9821 1.03493 23.9821 1.24079Z"/>
</mask>
<path fill-rule="evenodd" clip-rule="evenodd" d="M23.9821 1.24079C23.9821 1.26267 24.1596 1.80608 24.3762 2.44845C25.1266 4.67302 24.9106 5.92773 23.2748 8.84076C22.3655 10.4601 22.1598 10.9025 21.9528 11.6848C21.723 12.553 21.7081 12.5553 21.0908 11.8297C20.4161 11.0367 20.1243 10.4084 19.6948 8.82352C18.7565 5.36147 18.1216 4.4139 15.9384 3.21747C15.0945 2.75501 15.0976 2.83015 15.9627 3.79341C17.5614 5.57353 17.8729 6.82612 17.5116 10.023C17.2623 12.2298 17.2457 12.559 17.3438 13.3768C17.4558 14.3103 17.4944 14.2783 16.7233 13.8896C15.5661 13.306 15.3353 13.085 13.8181 11.1064C12.0489 8.79931 10.6869 7.98672 8.31789 7.82443L7.66192 7.7795L8.70043 8.28515C11.1426 9.47383 11.7082 10.3199 12.9145 14.5888C13.1129 15.29 13.3562 15.9207 13.6547 16.5075C14.1778 17.5349 14.189 17.5157 13.143 17.3867C12.0616 17.2535 11.5723 17.0639 10.0155 16.1748C7.26644 14.6048 5.7834 14.2855 3.84232 14.8456C2.58347 15.2087 2.58173 15.2288 3.80369 15.3034C6.50812 15.468 7.27262 15.9756 10.0676 19.4606C10.5921 20.1146 11.1559 20.7159 11.5833 21.0767C12.3557 21.7292 12.3594 21.6963 11.4815 21.9906C10.6909 22.2559 9.26005 22.2877 7.81621 22.0723C5.54974 21.7342 3.99912 21.8889 2.7619 22.5764C1.96882 23.017 0.580399 24.2146 1.12225 23.9907C4.18778 22.7236 5.32671 22.8611 9.04396 24.948C10.213 25.6043 10.8485 25.8845 11.6165 26.0824C12.2877 26.2554 12.2841 26.237 11.7428 26.7329C10.808 27.5899 10.4567 27.7622 8.65891 28.2464C5.15465 29.1899 3.99931 29.994 2.84783 32.291C2.53056 32.924 2.57632 32.9074 3.53354 32.0425C5.36398 30.3888 6.57146 30.1133 10.1869 30.5238C11.6422 30.689 12.8576 30.7225 13.5072 30.6154C13.9527 30.5418 13.9554 30.5577 13.6149 31.2677C13.1304 32.2782 12.8176 32.6095 10.9028 34.141C8.63902 35.9515 7.8751 37.1121 7.62349 39.1233C7.46611 40.3822 7.52056 40.378 8.16128 39.0814C9.22471 36.9295 10.0695 36.3452 13.6422 35.2915C15.3013 34.8021 16.066 34.501 16.7867 34.0531L17.1146 33.8491L17.1119 34.4534C17.1064 35.6368 16.8801 36.2951 15.8994 37.9774C14.5295 40.3272 14.0334 42.1976 14.4053 43.6086C14.6251 44.4415 14.9053 45.3111 14.9541 45.3111C14.9833 45.3111 15.0279 44.7797 15.0532 44.1301C15.1464 41.7336 15.843 40.5798 18.4263 38.5411C19.8377 37.4276 20.3039 37.0046 20.8247 36.3654C21.4104 35.6465 21.3826 35.6393 21.6832 36.5858C21.9947 37.567 22.0067 38.2708 21.7456 40.281C21.3652 43.2104 21.6925 44.7361 23.0622 46.4167C23.7653 47.2792 23.7712 47.2634 23.28 45.8388C22.5056 43.5929 22.7289 42.3595 24.4713 39.2522C25.2885 37.795 25.4034 37.5484 25.678 36.662C25.969 35.7228 25.9311 35.7348 26.5205 36.3923C27.2212 37.1739 27.4632 37.7045 27.9966 39.6297C28.9125 42.9364 29.7169 44.0773 31.917 45.1895C32.5465 45.5076 32.5154 45.4234 31.631 44.416C29.9739 42.5282 29.7664 41.4997 30.2341 37.4952C30.3957 36.1115 30.4024 35.4331 30.2638 34.4574L30.2115 34.0895L30.55 34.209C31.5574 34.5645 32.3493 35.2462 33.5064 36.7544C35.6116 39.4982 36.7131 40.1946 39.3959 40.4775C40.0617 40.5478 40.0233 40.5099 38.8148 39.9027C36.4933 38.7363 35.9888 37.9964 34.8523 34.0901C34.4972 32.8702 34.2939 32.3198 33.9714 31.7077C33.485 30.7839 33.4811 30.7915 34.3852 30.8728C35.5359 30.9762 35.9262 31.1275 37.7947 32.1941C40.4504 33.7101 41.9091 34.0006 43.8927 33.4082C44.8505 33.122 45.0482 33.0133 44.6238 33.0061C41.4781 32.9529 40.4972 32.4314 38.2489 29.6173C36.9701 28.0165 36.4559 27.4632 35.8441 27.0292C35.2905 26.6365 35.3015 26.6061 36.1023 26.3172C36.9149 26.024 38.3608 25.9922 39.9553 26.2325C42.647 26.638 44.2789 26.2831 46.0035 24.9172C46.9472 24.1697 46.9225 24.1548 45.5739 24.6581L44.4693 25.0702H43.5048C42.0005 25.0702 41.3389 24.8459 38.9908 23.5395C37.252 22.5722 37.1335 22.5164 36.3215 22.285C35.9221 22.1713 35.5668 22.0516 35.5319 22.0191C35.4448 21.9381 36.3773 21.1137 36.9483 20.7669C37.4332 20.4723 37.6118 20.4113 39.7238 19.8187C42.4736 19.0474 43.6143 18.2158 44.7008 16.1907C45.1801 15.2974 45.1461 15.2987 44.1316 16.2122C42.2309 17.9236 41.1441 18.1777 37.5245 17.7578C36.364 17.623 35.8213 17.5971 34.9203 17.6329C34.1958 17.6616 33.7822 17.6503 33.7822 17.6021C33.7822 17.0337 34.8626 15.631 35.9625 14.771C39.2086 12.2333 39.9005 11.2048 40.0675 8.66879L40.1135 7.97219L39.588 9.02648C38.408 11.3943 37.5734 11.984 33.9558 13.0058C32.7757 13.3391 32.224 13.5407 31.5114 13.8982C30.466 14.4228 30.4465 14.4189 30.5139 13.6993C30.6359 12.3956 30.857 11.8189 31.9649 9.91344C33.4514 7.35733 33.6786 5.60994 32.8315 3.25155L32.7203 2.94209L32.6761 3.21302C32.6519 3.36194 32.6106 3.9191 32.5845 4.45108C32.4797 6.58947 31.7617 7.6819 28.9978 9.90956C27.731 10.9305 27.2095 11.4242 26.6417 12.1388C26.2808 12.5933 26.2366 12.5592 25.9448 11.6C25.6447 10.6135 25.6312 9.98277 25.8732 8.24312C26.1966 5.9167 26.0642 4.34108 25.4416 3.10902C25.1471 2.52611 23.9821 1.03493 23.9821 1.24079Z" stroke="#345C19" stroke-width="1.10016" stroke-linejoin="round" mask="url(#path-1-outside-1)"/>
</svg>
