<svg width="123" height="36" viewBox="0 0 123 36" fill="none" xmlns="http://www.w3.org/2000/svg">
<path d="M18.5922 28.0371C18.5922 30.3076 17.7137 32.1944 15.9567 33.6975C14.1997 35.2005 11.9795 35.952 9.29612 35.952C8.46554 35.952 7.6669 35.9201 6.90021 35.8561C6.13352 35.7921 5.41475 35.6962 4.7439 35.5683C3.91332 35.4084 3.01884 35.1845 2.06048 34.8967C1.13406 34.5769 0.59099 34.401 0.431263 34.369C0.303481 34.3371 0.207646 34.2731 0.143755 34.1772C0.111809 34.0812 0.0958367 33.9213 0.0958367 33.6975C0.0958367 33.6335 0.0958367 33.5376 0.0958367 33.4097C0.0958367 33.2817 0.111809 33.0579 0.143755 32.7381C0.271537 31.4269 0.351399 30.1957 0.383345 29.0444C0.447236 27.8612 0.479181 26.614 0.479181 25.3028C0.479181 25.1109 0.527099 25.015 0.622936 25.015C0.750717 24.983 0.814609 25.063 0.814609 25.2548C0.8785 26.9817 1.10212 28.4848 1.48546 29.764C1.86881 31.0112 2.42785 32.0505 3.1626 32.882C3.89734 33.7454 4.80779 34.417 5.89393 34.8967C6.98008 35.3444 8.20998 35.5683 9.58363 35.5683C11.4365 35.5683 12.858 35.1685 13.8483 34.369C14.8387 33.5376 15.3338 32.3863 15.3338 30.9152C15.3338 29.8279 14.8866 28.9005 13.9921 28.133C13.0976 27.3335 11.101 26.4061 8.00233 25.3508C4.80779 24.2635 2.66744 23.2241 1.5813 22.2328C0.5271 21.2094 0 19.9782 0 18.5391C0 16.3325 0.910445 14.5257 2.73133 13.1186C4.58417 11.7115 6.80438 11.0079 9.39196 11.0079C10.6698 11.0079 11.7879 11.0559 12.7462 11.1518C13.7365 11.2158 15.238 11.4236 17.2505 11.7754C17.4103 11.8394 17.5061 11.9033 17.538 11.9673C17.6019 11.9993 17.6339 12.0632 17.6339 12.1592C17.6339 12.383 17.6179 12.7188 17.586 13.1665C17.586 13.6142 17.57 14.4297 17.538 15.613C17.4742 17.116 17.4262 18.2033 17.3943 18.8749C17.3943 19.5145 17.3943 20.0262 17.3943 20.4099C17.3943 20.6018 17.3304 20.6977 17.2026 20.6977C17.1068 20.6977 17.0429 20.6018 17.0109 20.4099C16.979 19.1307 16.8193 17.9795 16.5318 16.9561C16.2443 15.9008 15.829 14.9734 15.2859 14.1739C14.615 13.2465 13.7525 12.5589 12.6983 12.1112C11.6761 11.6315 10.4781 11.3917 9.10445 11.3917C7.3155 11.3917 5.87796 11.7434 4.79181 12.447C3.70567 13.1505 3.1626 14.078 3.1626 15.2292C3.1626 16.3485 3.60983 17.3079 4.50431 18.1074C5.39878 18.9069 7.3794 19.8343 10.4462 20.8896C13.7046 21.9769 15.8769 23.0642 16.963 24.1516C18.0492 25.2069 18.5922 26.5021 18.5922 28.0371Z" fill="#345C19"/>
<path d="M36.9052 28.8046C36.0427 30.5635 34.685 32.2104 32.8322 33.7454C31.0113 35.2485 29.2383 36 27.5133 36C25.7563 36 24.3027 35.4883 23.1527 34.465C22.0027 33.4416 21.4276 32.1624 21.4276 30.6274C21.4276 28.8366 22.386 27.1736 24.3027 25.6386C26.2195 24.1036 29.2862 22.5206 33.503 20.8896L37.2406 19.4505C37.1767 16.5084 36.7934 14.4297 36.0906 13.2145C35.3878 11.9993 34.2218 11.3917 32.5926 11.3917C31.9537 11.3917 31.3787 11.5036 30.8675 11.7275C30.3564 11.9513 29.9092 12.2711 29.5258 12.6868C29.2064 13.0066 28.9029 13.3904 28.6154 13.8381C28.3598 14.2858 28.0244 14.9894 27.6091 15.9488C27.4494 16.3645 27.3216 16.6683 27.2257 16.8602C27.1299 17.0201 27.05 17.164 26.9862 17.2919C26.7625 17.7396 26.4431 18.0594 26.0278 18.2513C25.6125 18.4432 25.0375 18.5391 24.3027 18.5391C23.568 18.5391 22.993 18.4112 22.5777 18.1554C22.1624 17.8675 21.9547 17.4998 21.9547 17.0521C21.9547 16.6043 22.1145 16.1406 22.4339 15.6609C22.7853 15.1493 23.2645 14.7016 23.8715 14.3178C25.2132 13.3904 26.7785 12.6069 28.5675 11.9673C30.3883 11.3277 32.0016 11.0079 33.4072 11.0079C36.2184 11.0079 38.3428 11.7434 39.7803 13.2145C41.2498 14.6536 41.9845 16.8122 41.9845 19.6904C41.9845 20.266 41.9686 20.9696 41.9366 21.801C41.9366 22.6325 41.9047 23.9277 41.8408 25.6866C41.7769 27.0937 41.729 28.085 41.697 28.6607C41.697 29.2043 41.697 29.652 41.697 30.0038C41.697 31.3789 41.7929 32.3543 41.9845 32.93C42.1762 33.5056 42.4957 33.7934 42.9429 33.7934C43.3262 33.7934 43.7575 33.5056 44.2367 32.93C44.7478 32.3543 45.1631 31.6987 45.4826 30.9632C45.6103 30.7713 45.7701 30.7393 45.9617 30.8673C46.1534 30.9632 46.1854 31.1231 46.0576 31.347C45.3548 32.4343 44.3645 33.4736 43.0867 34.465C41.8408 35.4563 40.7387 35.952 39.7803 35.952C38.758 35.952 37.9914 35.6482 37.4802 35.0406C37.001 34.433 36.7615 33.4896 36.7615 32.2104C36.7615 31.6028 36.7774 30.9792 36.8094 30.3396C36.8413 29.7 36.8733 29.1883 36.9052 28.8046ZM25.9799 28.8526C25.9799 30.0998 26.4111 31.1551 27.2737 32.0185C28.1681 32.85 29.2862 33.2817 30.6279 33.3137C31.8738 33.3137 33.1357 32.7221 34.4135 31.5388C35.6913 30.3236 36.5378 29.0924 36.9531 27.8452C37.049 25.8305 37.1129 24.1995 37.1448 22.9523C37.2087 21.7051 37.2406 20.8576 37.2406 20.4099V19.7863L33.5989 21.3693C30.6599 22.6165 28.6473 23.7678 27.5612 24.8231C26.507 25.8784 25.9799 27.2216 25.9799 28.8526Z" fill="#345C19"/>
<path d="M61.078 29.1883C59.8961 31.331 58.5703 32.9939 57.1008 34.1772C55.6633 35.3604 54.2098 35.952 52.7403 35.952C51.1111 35.952 49.9291 35.4084 49.1943 34.3211C48.4596 33.2338 48.0922 31.4749 48.0922 29.0444V14.3658H44.9296C44.8977 14.3658 44.8817 14.3338 44.8817 14.2698C44.8817 14.1739 44.8977 14.1099 44.9296 14.078L52.5965 6.69066C52.6924 6.59472 52.7563 6.56274 52.7882 6.59472C52.8521 6.59472 52.884 6.65868 52.884 6.7866V11.4876H59.4009C59.8481 11.4556 60.1836 11.4556 60.4072 11.4876C60.6628 11.4876 60.7905 11.5036 60.7905 11.5356C60.7905 11.6955 60.5669 12.1112 60.1197 12.7828C59.6724 13.4544 59.2252 13.982 58.778 14.3658H52.7882V28.181C52.7882 29.9079 53.0438 31.219 53.5549 32.1145C54.098 33.0099 54.8806 33.4576 55.9029 33.4576C56.7974 33.4576 57.6279 33.0739 58.3946 32.3064C59.1933 31.5388 59.8961 30.4036 60.503 28.9005C60.5989 28.7086 60.7426 28.6607 60.9343 28.7566C61.126 28.8526 61.1739 28.9965 61.078 29.1883Z" fill="#345C19"/>
<path d="M64.9141 35.4244C63.828 35.4563 63.0453 35.4723 62.5661 35.4723C62.0869 35.4723 61.7036 35.4723 61.4161 35.4723C61.2244 35.4723 61.1286 35.4084 61.1286 35.2805C61.1286 35.1206 61.2244 35.0406 61.4161 35.0406C62.6939 35.0406 63.4925 34.8008 63.812 34.3211C64.1634 33.8094 64.3391 32.4343 64.3391 30.1957V17.6277C64.3391 15.9967 64.1794 14.9734 63.8599 14.5576C63.5405 14.1419 62.7099 14.078 61.3682 14.3658C61.1765 14.4297 61.0487 14.3978 60.9848 14.2698C60.9529 14.1419 61.0327 14.046 61.2244 13.982C62.3106 13.7262 63.4925 13.3424 64.7704 12.8307C66.0482 12.2871 67.2142 11.6795 68.2684 11.0079C68.3642 10.9439 68.5239 10.9599 68.7476 11.0559C69.0031 11.1518 69.1309 11.2478 69.1309 11.3437V30.1957C69.1309 32.4663 69.2906 33.8414 69.6101 34.3211C69.9615 34.8008 70.7441 35.0406 71.9581 35.0406C72.1497 35.0406 72.2456 35.1206 72.2456 35.2805C72.2456 35.4084 72.1497 35.4723 71.9581 35.4723C71.6706 35.4723 71.2872 35.4723 70.808 35.4723C70.3608 35.4723 69.642 35.4563 68.6517 35.4244C68.0128 35.3924 67.5656 35.3764 67.31 35.3764C67.0864 35.3764 66.9267 35.3764 66.8308 35.3764C66.735 35.3764 66.5593 35.3764 66.3037 35.3764C66.0482 35.3764 65.585 35.3924 64.9141 35.4244Z" fill="#345C19"/>
<path d="M85.666 35.6642H85.0431C84.9153 35.6642 84.8195 35.6482 84.7556 35.6162C84.6917 35.5843 84.6278 35.5043 84.5639 35.3764L76.8012 17.9635C75.747 15.565 74.8845 13.95 74.2136 13.1186C73.5427 12.2871 72.6802 11.8874 71.626 11.9193C71.4663 11.9193 71.3864 11.8554 71.3864 11.7275C71.3864 11.5676 71.4663 11.4876 71.626 11.4876C71.6899 11.4876 71.8177 11.4876 72.0094 11.4876C72.201 11.4876 72.6163 11.5036 73.2552 11.5356C74.2775 11.5356 74.9963 11.5516 75.4116 11.5835C75.8268 11.5835 76.1144 11.5835 76.2741 11.5835C76.3699 11.5835 76.5616 11.5835 76.8491 11.5835C77.1686 11.5835 77.7436 11.5835 78.5742 11.5835C79.8839 11.5516 80.8103 11.5356 81.3534 11.5356C81.8965 11.5356 82.2958 11.5356 82.5514 11.5356C82.743 11.5356 82.8389 11.5995 82.8389 11.7275C82.8389 11.8554 82.743 11.9193 82.5514 11.9193C81.0819 11.9193 80.2832 12.1912 80.1555 12.7348C80.0277 13.2785 80.411 14.5736 81.3055 16.6203L87.5828 30.8193L92.1829 19.8343C93.2691 17.3079 93.6205 15.3571 93.2371 13.982C92.8538 12.6069 91.7676 11.9353 89.9787 11.9673C89.7551 11.9673 89.6432 11.9033 89.6432 11.7754C89.6432 11.6155 89.7551 11.5356 89.9787 11.5356C90.2342 11.5356 90.5697 11.5356 90.985 11.5356C91.4002 11.5356 92.0711 11.5516 92.9975 11.5835C93.5725 11.5835 93.9559 11.5835 94.1475 11.5835C94.3712 11.5835 94.5309 11.5835 94.6267 11.5835C94.7545 11.5835 95.0101 11.5835 95.3934 11.5835C95.7768 11.5516 96.4476 11.5356 97.406 11.5356C98.013 11.5036 98.4123 11.4876 98.6039 11.4876C98.7956 11.4876 98.9234 11.4876 98.9873 11.4876C99.147 11.4876 99.2269 11.5676 99.2269 11.7275C99.2269 11.8554 99.147 11.9193 98.9873 11.9193C97.997 11.8874 97.0067 12.495 96.0164 13.7422C95.058 14.9894 93.9239 17.116 92.6142 20.1221L86.0973 35.3284C86.0334 35.4563 85.9695 35.5363 85.9056 35.5683C85.8417 35.6322 85.7619 35.6642 85.666 35.6642Z" fill="#345C19"/>
<path d="M112.889 28.8046C112.027 30.5635 110.669 32.2104 108.816 33.7454C106.995 35.2485 105.222 36 103.497 36C101.74 36 100.287 35.4883 99.1367 34.465C97.9866 33.4416 97.6512 32.1624 97.6512 30.6274C97.6512 28.8366 98.37 27.1736 100.287 25.6386C102.203 24.1036 105.27 22.5206 109.487 20.8896L113.225 19.4505C113.161 16.5084 112.777 14.4297 112.075 13.2145C111.372 11.9993 110.206 11.3917 108.577 11.3917C107.938 11.3917 107.363 11.5036 106.851 11.7275C106.34 11.9513 105.893 12.2711 105.51 12.6868C105.19 13.0066 104.887 13.3904 104.599 13.8381C104.344 14.2858 104.008 14.9894 103.593 15.9488C103.433 16.3645 103.306 16.6683 103.21 16.8602C103.114 17.0201 103.034 17.164 102.97 17.2919C102.746 17.7396 102.427 18.0594 102.012 18.2513C101.596 18.4432 101.021 18.5391 100.287 18.5391C99.5519 18.5391 98.9769 18.4112 98.5616 18.1554C98.1463 17.8675 97.9387 17.4998 97.9387 17.0521C97.9387 16.6043 98.0984 16.1406 98.4179 15.6609C98.7693 15.1493 99.2485 14.7016 99.8554 14.3178C101.197 13.3904 102.762 12.6069 104.551 11.9673C106.372 11.3277 107.986 11.0079 109.391 11.0079C112.202 11.0079 114.327 11.7434 115.764 13.2145C117.234 14.6536 117.968 16.8122 117.968 19.6904C117.968 20.266 117.953 20.9696 117.921 21.801C117.921 22.6325 117.889 23.9277 117.825 25.6866C117.761 27.0937 117.713 28.085 117.681 28.6607C117.681 29.2043 117.681 29.652 117.681 30.0038C117.681 31.3789 117.777 32.3543 117.968 32.93C118.16 33.5056 118.48 33.7934 118.927 33.7934C119.31 33.7934 119.741 33.5056 120.221 32.93C120.732 32.3543 121.147 31.6987 121.467 30.9632C121.594 30.7713 121.754 30.7393 121.946 30.8673C122.137 30.9632 122.169 31.1231 122.042 31.347C121.339 32.4343 120.348 33.4736 119.071 34.465C117.825 35.4563 116.723 35.952 115.764 35.952C114.742 35.952 113.975 35.6482 113.464 35.0406C112.985 34.433 112.745 33.4896 112.745 32.2104C112.745 31.6028 112.761 30.9792 112.793 30.3396C112.825 29.7 112.857 29.1883 112.889 28.8046ZM101.964 28.8526C101.964 30.0998 102.395 31.1551 103.258 32.0185C104.152 32.85 105.27 33.2817 106.612 33.3137C107.858 33.3137 109.12 32.7221 110.397 31.5388C111.675 30.3236 112.522 29.0924 112.937 27.8452C113.033 25.8305 113.097 24.1995 113.129 22.9523C113.193 21.7051 113.225 20.8576 113.225 20.4099V19.7863L109.583 21.3693C106.644 22.6165 104.631 23.7678 103.545 24.8231C102.491 25.8784 101.964 27.2216 101.964 28.8526Z" fill="#345C19"/>
<path d="M70.5344 6.3321C70.6399 6.39073 70.6926 6.47868 70.6926 6.59594C70.6926 6.70147 70.6399 6.78356 70.5344 6.84219C69.8316 7.2057 69.0527 7.38745 68.1976 7.38745C68.0922 7.38745 67.9867 7.38745 67.8813 7.38745C68.0219 7.64543 68.1215 7.87408 68.18 8.07343C68.2152 8.17896 68.1917 8.27277 68.1097 8.35486C68.0629 8.41349 67.9985 8.4428 67.9165 8.4428C67.893 8.4428 67.8637 8.43694 67.8286 8.42521C67.3952 8.2845 66.9442 8.05584 66.4757 7.73923V8.86494C66.4757 8.95875 66.4288 9.00565 66.3351 9.00565H66.054C65.9603 9.00565 65.9134 8.95875 65.9134 8.86494V7.73923C65.4449 8.06757 64.9939 8.29622 64.5605 8.42521C64.5254 8.43694 64.4961 8.4428 64.4727 8.4428C64.3907 8.4428 64.3262 8.41349 64.2794 8.35486C64.1974 8.27277 64.174 8.17896 64.2091 8.07343C64.2677 7.87408 64.3672 7.64543 64.5078 7.38745C64.4024 7.38745 64.297 7.38745 64.1916 7.38745C63.3365 7.38745 62.5575 7.2057 61.8547 6.84219C61.7493 6.78356 61.6966 6.70147 61.6966 6.59594C61.6966 6.47868 61.7493 6.39073 61.8547 6.3321C62.2295 6.13276 62.6746 5.98032 63.19 5.87478C62.8621 5.48782 62.5692 5.04223 62.3115 4.53801C62.0655 4.03378 61.9074 3.682 61.8371 3.48266C61.7786 3.27159 61.7317 3.10156 61.6966 2.97257C61.6966 2.94912 61.6966 2.92567 61.6966 2.90221C61.6966 2.83186 61.72 2.76736 61.7668 2.70873C61.8254 2.6501 61.8957 2.62079 61.9777 2.62079C62.0011 2.62079 62.0187 2.62665 62.0304 2.63838C62.1592 2.66183 62.3232 2.70287 62.5224 2.7615C62.7215 2.82013 63.0612 2.97257 63.5414 3.21882C64.0334 3.45334 64.4727 3.72304 64.8592 4.02792C64.8592 4.02792 64.8592 4.02206 64.8592 4.01033C64.8592 3.98688 64.8592 3.96929 64.8592 3.95756C64.8592 3.33608 64.9529 2.69701 65.1403 2.04034C65.3395 1.38368 65.5035 0.938089 65.6323 0.703567C65.7612 0.469045 65.8724 0.275564 65.9662 0.123124C66.013 0.0410416 66.0891 0 66.1946 0C66.3 0 66.3761 0.0410416 66.423 0.123124C66.4698 0.181755 66.5167 0.257974 66.5635 0.351783C66.6221 0.445592 66.71 0.627347 66.8271 0.897047C66.956 1.16675 67.0672 1.44231 67.1609 1.72374C67.2546 2.00517 67.3366 2.35109 67.4069 2.7615C67.4889 3.17191 67.5299 3.5706 67.5299 3.95756C67.5299 3.99274 67.5299 4.01619 67.5299 4.02792C67.9165 3.72304 68.3499 3.45334 68.8301 3.21882C69.3221 2.97257 69.6676 2.82013 69.8668 2.7615C70.0659 2.70287 70.2299 2.66183 70.3587 2.63838C70.3705 2.62665 70.388 2.62079 70.4115 2.62079C70.4934 2.62079 70.5579 2.6501 70.6047 2.70873C70.6867 2.77909 70.716 2.86703 70.6926 2.97257C70.6574 3.10156 70.6047 3.27159 70.5344 3.48266C70.4759 3.682 70.3177 4.03378 70.0601 4.53801C69.8141 5.04223 69.5271 5.48782 69.1991 5.87478C69.7262 5.98032 70.1713 6.13276 70.5344 6.3321Z" fill="#345C19"/>
</svg>
